<svg width="208" height="54" viewBox="0 0 208 54" fill="none" xmlns="http://www.w3.org/2000/svg">
<path d="M69.2723 40.3384V13.8849H79.6903C81.6038 13.8849 83.2008 14.1733 84.4795 14.7503C85.7582 15.3273 86.7196 16.1281 87.3637 17.1528C88.0068 18.169 88.3288 19.3402 88.3288 20.6663C88.3288 21.6997 88.1257 22.6082 87.7194 23.3918C87.3122 24.1667 86.7533 24.804 86.0419 25.3035C85.3389 25.7943 84.5347 26.1431 83.6286 26.3498V26.6081C84.619 26.6511 85.5467 26.9353 86.4107 27.4606C87.2832 27.9859 87.9899 28.7222 88.5319 29.6694C89.0739 30.6081 89.3454 31.7275 89.3454 33.0278C89.3454 34.4314 89.0019 35.6841 88.3157 36.7863C87.6389 37.8799 86.6344 38.7461 85.3051 39.3828C83.9759 40.0205 82.3367 40.3384 80.3887 40.3384H69.2723ZM74.7739 35.766H79.2579C80.7912 35.766 81.9089 35.469 82.612 34.875C83.315 34.2722 83.666 33.4713 83.666 32.4724C83.666 31.7404 83.4928 31.0946 83.1455 30.5349C82.7982 29.9751 82.303 29.5359 81.659 29.2173C81.0243 28.8987 80.266 28.7394 79.3852 28.7394H74.7739V35.766ZM74.7739 24.9547H78.8516C79.6052 24.9547 80.2745 24.8212 80.8586 24.5543C81.4512 24.2788 81.9174 23.8912 82.2562 23.3918C82.6035 22.8923 82.7767 22.2938 82.7767 21.5963C82.7767 20.6404 82.4425 19.8697 81.7732 19.2842C81.1132 18.6985 80.1724 18.4058 78.9527 18.4058H74.7739V24.9547ZM91.3918 40.3384V20.4984H96.8034V40.3384H91.3918ZM94.1102 17.9408C93.3061 17.9408 92.6153 17.6695 92.0395 17.127C91.4723 16.5759 91.1886 15.9171 91.1886 15.1507C91.1886 14.3929 91.4723 13.7428 92.0395 13.2003C92.6153 12.6492 93.3061 12.3735 94.1102 12.3735C94.9153 12.3735 95.6015 12.6492 96.1687 13.2003C96.7444 13.7428 97.0328 14.3929 97.0328 15.1507C97.0328 15.9171 96.7444 16.5759 96.1687 17.127C95.6015 17.6695 94.9153 17.9408 94.1102 17.9408ZM105.12 13.8849V40.3384H99.7082V13.8849H105.12ZM108.025 40.3384V20.4984H113.436V40.3384H108.025ZM110.743 17.9408C109.938 17.9408 109.248 17.6695 108.672 17.127C108.105 16.5759 107.821 15.9171 107.821 15.1507C107.821 14.3929 108.105 13.7428 108.672 13.2003C109.248 12.6492 109.938 12.3735 110.743 12.3735C111.547 12.3735 112.233 12.6492 112.801 13.2003C113.377 13.7428 113.665 14.3929 113.665 15.1507C113.665 15.9171 113.377 16.5759 112.801 17.127C112.233 17.6695 111.547 17.9408 110.743 17.9408ZM116.34 40.3384V20.4984H121.498V23.9988H121.727C122.134 22.8363 122.811 21.9192 123.76 21.2476C124.708 20.5759 125.844 20.24 127.164 20.24C128.502 20.24 129.641 20.5802 130.582 21.2604C131.522 21.9321 132.148 22.845 132.462 23.9988H132.665C133.063 22.8622 133.783 21.9537 134.825 21.2734C135.875 20.5844 137.116 20.24 138.548 20.24C140.368 20.24 141.846 20.8299 142.981 22.0097C144.124 23.1808 144.696 24.8428 144.696 26.9956V40.3384H139.296V28.0806C139.296 26.9784 139.009 26.1517 138.432 25.6005C137.857 25.0494 137.137 24.7739 136.273 24.7739C135.291 24.7739 134.524 25.0925 133.974 25.7297C133.423 26.3584 133.148 27.1894 133.148 28.2227V40.3384H127.901V27.9643C127.901 26.9913 127.626 26.2163 127.075 25.6393C126.533 25.0624 125.817 24.7739 124.928 24.7739C124.327 24.7739 123.785 24.9289 123.302 25.2389C122.828 25.5403 122.451 25.9665 122.171 26.5177C121.892 27.0602 121.753 27.6974 121.753 28.4294V40.3384H116.34ZM154.73 40.662C153.248 40.662 151.906 40.2747 150.703 39.4989C149.509 38.7156 148.56 37.5658 147.857 36.0506C147.163 34.5263 146.815 32.6576 146.815 30.4444C146.815 28.1711 147.176 26.2809 147.896 24.7739C148.615 23.2582 149.572 22.1259 150.767 21.3767C151.97 20.6189 153.287 20.24 154.718 20.24C155.81 20.24 156.72 20.4295 157.449 20.8084C158.186 21.1787 158.779 21.6437 159.227 22.2034C159.685 22.7546 160.032 23.2971 160.269 23.8309H160.435V13.8849H165.833V40.3384H160.498V37.1613H160.269C160.015 37.7124 159.655 38.2587 159.19 38.8013C158.732 39.3352 158.135 39.7788 157.398 40.1319C156.67 40.485 155.78 40.662 154.73 40.662ZM156.445 36.2828C157.318 36.2828 158.054 36.042 158.656 35.5594C159.266 35.0687 159.732 34.3841 160.054 33.5057C160.383 32.6274 160.549 31.5983 160.549 30.4186C160.549 29.2389 160.388 28.2141 160.066 27.3443C159.744 26.4746 159.279 25.8029 158.668 25.3293C158.059 24.8557 157.318 24.6188 156.445 24.6188C155.556 24.6188 154.807 24.8643 154.197 25.3552C153.587 25.846 153.126 26.5263 152.812 27.396C152.498 28.2658 152.342 29.2733 152.342 30.4186C152.342 31.5725 152.498 32.5929 152.812 33.4799C153.134 34.3583 153.596 35.0472 154.197 35.5471C154.807 36.0372 155.556 36.2828 156.445 36.2828ZM177.669 40.7268C175.695 40.7268 173.989 40.3004 172.549 39.4475C171.118 38.5862 170.013 37.3897 169.233 35.8564C168.454 34.3152 168.065 32.5284 168.065 30.4961C168.065 28.4466 168.454 26.6554 169.233 25.1226C170.013 23.5812 171.118 22.3842 172.549 21.5317C173.989 20.6706 175.695 20.24 177.669 20.24C179.642 20.24 181.345 20.6706 182.776 21.5317C184.216 22.3842 185.325 23.5812 186.105 25.1226C186.884 26.6554 187.273 28.4466 187.273 30.4961C187.273 32.5284 186.884 34.3152 186.105 35.8564C185.325 37.3897 184.216 38.5862 182.776 39.4475C181.345 40.3004 179.642 40.7268 177.669 40.7268ZM177.695 36.4636C178.593 36.4636 179.341 36.2057 179.943 35.6889C180.544 35.1635 180.997 34.4487 181.303 33.5445C181.615 32.6403 181.773 31.6113 181.773 30.4574C181.773 29.3034 181.615 28.2743 181.303 27.3702C180.997 26.466 180.544 25.7513 179.943 25.226C179.341 24.7007 178.593 24.438 177.695 24.438C176.788 24.438 176.026 24.7007 175.408 25.226C174.798 25.7513 174.336 26.466 174.022 27.3702C173.718 28.2743 173.566 29.3034 173.566 30.4574C173.566 31.6113 173.718 32.6403 174.022 33.5445C174.336 34.4487 174.798 35.1635 175.408 35.6889C176.026 36.2057 176.788 36.4636 177.695 36.4636ZM194.773 28.8685V40.3384H189.362V20.4984H194.52V23.9988H194.748C195.18 22.845 195.904 21.9321 196.92 21.2604C197.936 20.5802 199.169 20.24 200.617 20.24C201.972 20.24 203.153 20.5414 204.162 21.1442C205.17 21.747 205.953 22.6082 206.512 23.7276C207.071 24.8384 207.35 26.1646 207.35 27.706V40.3384H201.938V28.6877C201.947 27.4735 201.642 26.5263 201.024 25.846C200.405 25.1571 199.554 24.8126 198.47 24.8126C197.742 24.8126 197.098 24.972 196.539 25.2905C195.988 25.6092 195.557 26.0742 195.243 26.6856C194.938 27.2884 194.782 28.016 194.773 28.8685Z" fill="#00ACFF"/>
<path d="M45.7235 34.1197C45.7235 34.1197 44.3296 35.2249 41.3687 30.2927C38.4078 25.36 21.86 9.88195 6.61907 8.01123L0 32.759C0 32.759 14.8927 37.3518 20.2924 49.0873C20.2924 49.0873 21.1636 50.108 22.3829 49.6832L45.7235 34.1197Z" fill="#FF8A00"/>
<path d="M45.9837 32.9156C45.9837 32.9156 49.6421 15.7612 33.9659 0L25.605 13.2359C25.605 13.2359 40.236 20.9859 45.8967 33.1768" fill="#FF8A00"/>
<path d="M20.8401 48.0841L14.5616 53.3L15.0755 50.8034L12.6108 50.5474L19.2836 45.6504L20.8401 48.0841Z" fill="#FF8A00"/>
<path opacity="0.5" d="M22.3822 50.6798L45.7038 34.7575C45.5775 34.8381 44.7874 35.2244 43.2774 33.5454L19.8898 49.2378C20.0274 49.5128 20.1643 49.7879 20.2911 50.0706C20.2911 50.0706 21.1629 51.1147 22.3822 50.6798Z" fill="#FF8A00"/>
<path d="M46.6325 34.3721C46.5399 34.3721 46.4603 34.301 46.4528 34.2057C46.4444 34.1059 46.5183 34.0182 46.6185 34.0098C46.6915 34.0035 54.0147 33.3251 57.2986 26.8569C57.3454 26.7673 57.4549 26.734 57.5429 26.7769C57.6328 26.8223 57.6674 26.9311 57.6225 27.0208C54.245 33.6732 46.7233 34.365 46.6484 34.3708C46.6428 34.3721 46.6382 34.3721 46.6325 34.3721Z" fill="#FF8A00"/>
<path d="M46.4518 33.186C46.3835 33.186 46.317 33.1476 46.2871 33.081C46.2459 32.9895 46.2852 32.882 46.376 32.8398C46.4322 32.8141 52.0105 30.1685 52.9307 23.6515C52.9447 23.553 53.0383 23.4838 53.1357 23.4979C53.2349 23.5114 53.3042 23.6036 53.2892 23.7027C52.3409 30.4207 46.5857 33.1431 46.5277 33.17C46.5033 33.1809 46.4771 33.186 46.4518 33.186Z" fill="#FF8A00"/>
<path d="M58.1232 26.6971C58.1232 27.0035 57.8751 27.2516 57.569 27.2516C57.262 27.2516 57.0139 27.0035 57.0139 26.6971C57.0139 26.3907 57.262 26.1426 57.569 26.1426C57.8742 26.1426 58.1232 26.3907 58.1232 26.6971Z" fill="#FF8A00"/>
<path d="M53.6637 23.5126C53.6637 23.8189 53.4156 24.0671 53.1095 24.0671C52.8034 24.0671 52.5553 23.8189 52.5553 23.5126C52.5553 23.2062 52.8034 22.958 53.1095 22.958C53.4156 22.958 53.6637 23.2062 53.6637 23.5126Z" fill="#FF8A00"/>
</svg>
