<?xml version="1.0" encoding="utf-8"?>
<!-- Generator: Adobe Illustrator 28.4.1, SVG Export Plug-In . SVG Version: 6.00 Build 0)  -->
<svg version="1.0" id="katman_1" xmlns="http://www.w3.org/2000/svg" xmlns:xlink="http://www.w3.org/1999/xlink" x="0px" y="0px"
	 viewBox="0 0 1295.4 1304.3" style="enable-background:new 0 0 1295.4 1304.3;" xml:space="preserve">
<style type="text/css">
	.st0{fill:#E61D40;}
	.st1{fill:#FBC712;}
	.st2{fill:#199054;}
	.st3{fill:#FEFEFE;}
	.st4{fill:#B8CE44;}
	.st5{fill:#F47182;}
	.st6{fill:#EF5232;}
	.st7{fill:#F9CCC0;}
	.st8{fill:#4B0909;}
	.st9{fill:#FBE4CE;}
	.st10{fill:#6F302B;}
	.st11{fill:#F8DDB4;}
	.st12{fill:#F5BB7B;}
	.st13{fill:#010201;}
	.st14{fill:#079186;}
	.st15{fill:#B45617;}
	.st16{fill:#2D0300;}
	.st17{fill:#F78A3D;}
	.st18{fill:#07A499;}
	.st19{fill:#078177;}
	.st20{fill:url(#SVGID_1_);}
	.st21{fill:url(#SVGID_00000092450306307206892620000013972834978570125497_);}
	.st22{fill:#BB0302;}
	.st23{fill:url(#SVGID_00000016075646687946556600000001411532040487440273_);}
</style>
<path class="st0" d="M954.2,86.9c1.9,0,3.8,0.3,5.6,0.8c3.8,1.2,6.8,3.4,8.5,7c1.7,3.5,1.6,7.8,0.2,11.4c-1.8,4.7-5.2,7.2-9.6,9.2
	c-2.4,0.3-5.7,0.5-8-0.4c-3.1-1.2-5-4.3-6.2-7.3c-1.6-3.8-2.1-8.9-0.4-12.8C946.3,90.5,950,88.5,954.2,86.9z"/>
<path class="st1" d="M1044.4,142.3c1.4,5,2.5,9.8,4.7,14.6c6,12.5,13.6,17.2,26.3,21.7l-4.3,2.2c-15.6,8.5-21.3,19.7-26.1,36.3
	l-4.3-12.3c-6-13.2-14.9-20.8-28.2-25.9c4.3-1.4,8.8-2.8,12.8-5C1036,167.7,1041.1,153.5,1044.4,142.3z"/>
<path class="st2" d="M114.4,783.2l3.6-4.7c5,10.5,11.6,20,18.2,29.5c15.8,22.4,34.3,43.1,53.8,62.4c12.2,12.1,25.4,24.6,39,35
	c3.1,3.2,7.7,6,11.6,8.1c1.3-0.6,0.9-0.5,1.9-0.8c5.5-1.7,9.7-3.8,14.6-6.8c10,10.2,21.8,18.1,33.8,25.7c10.2,6.5,20.9,13,31.9,18.1
	c-0.6,3.1-1.5,11.8-3.8,13.6c-1.4,1-2.3,1.7-3.2,3.2c-32.4-15.6-62.4-36.1-90.7-58.2c-4.2-5.3-10.3-9.5-15.7-13.5
	c-28.1-21.2-52.9-49.4-73.5-77.8C128,806.2,120.3,795.4,114.4,783.2z"/>
<path class="st3" d="M257.1,906c10,10.2,21.8,18.1,33.8,25.7c10.2,6.5,20.9,13,31.9,18.1c-0.6,3.1-1.5,11.8-3.8,13.6l-78.5-49.8
	c1.3-0.6,0.9-0.5,1.9-0.8C248,911.1,252.3,909.1,257.1,906z"/>
<path class="st4" d="M110.3,823.9c4.9,0.3,9.7,0.5,14.4,2.1c9.8,3.3,19.2,10.5,23.6,20.1c1.9,4.2,1.5,7.9,0,12.1
	c-3.3,9.1-12.3,16.9-21,20.8c-15.5,7-31.2,5.2-46.7-0.6c-16.8-7.4-32.3-19.7-45.2-32.7C62.1,843.4,83.8,825.7,110.3,823.9z"/>
<path class="st4" d="M225.1,908.4c0.5,10.1,4.8,15.8-1.7,25.4c-6.1,9.1-16.8,14.1-27.3,16c-27.9,5.1-58.9-6.5-81.6-22.2
	c24.5-14.3,43.5-38.4,74.5-36.7c3.9,0.2,7.8,0.8,11.7,1.8c2.5,0.6,5.1,1.8,7.7,2.1l1,0.1C214.8,899,220.9,903.2,225.1,908.4z"/>
<path class="st5" d="M308.1,72.3c5.8-0.3,11,0.5,15.9,3.7c5.7,3.7,10.2,10.6,11.5,17.3c0.9,4.7,0,9.4-1,13.9
	c-3.8,17.5-14.8,33.4-24.7,47.9l-26.8-11.2c-11-6.2-26.5-14.9-31.1-27.3l-0.4-1c-1.5-4.2-2-10.4-0.3-14.6l0.3-0.8
	c1.1-2.7,2.6-5.2,4.5-7.4c3.9-4.2,9.7-7.3,15.6-7.3c7.3,0.1,12.2,3.4,17.1,8.2c0.7-3.2,1.2-6.7,2.9-9.6
	C295.2,78,301.3,74.1,308.1,72.3z"/>
<path class="st4" d="M87.4,719.9c0-5.9-0.3-12,0.4-17.9c3.6-29.9,20.1-52,38.7-74.6c5.8,16.5,14.5,31.4,20.6,47.7
	c7.7,20.5,9.6,44.2-0.1,64.4l-6.4,11.2c-4.1,4.9-22.1,23.2-22.7,27.7l-3.6,4.7c-1.3,0.1-4.8,4.1-6.1,5c-4.1,3-9.1,4.8-14,5.8
	c-15.8,3.4-34.6-1.4-48-10.1C18.1,765.7,6.8,733.1,0,701.9c3.4,2,6.8,4.4,10.5,5.9c26.3,10.7,55.4,9.1,79.5,26L87.4,719.9z"/>
<path class="st6" d="M1144.2,952.7l4.3-2.2c-2,7.9-3,16-4.5,24c-2.7,15.2-5.5,30.4-9.7,45.2l-7.1,23c-0.9,2.6-4,8-3.8,10.5
	c31.1,4.7,63.5,10.7,94.9,8.8l-51.5,34.4c-25.4,15.6-51.9,29.4-79.2,41.2l-33.9,12.7c-5.3-8-9.3-17.7-13.6-26.3l-23-44.7
	c-3.4-7-6-15.4-10.5-21.7l2.9-3.4c0.7-0.9,2.2-2.6,2.6-3.6c2.2-5.7-0.2-17.5-1.1-23.4c8.9-1.9,18.1-6,26.5-9.6
	C1076.9,1001.4,1110.5,978.6,1144.2,952.7z"/>
<path class="st6" d="M246.9,1152.4c-18-5.7-35-13-52.2-20.7c-33.2-14.7-65.7-31.7-95.8-52c-6.2-4.2-14.8-9-19.4-14.7
	c21.5-1.6,43.5-5.2,64.2-10.9l35.9-11.5l-41-94.5c9.7,8.9,22.9,15.5,34.2,22.3l65.9,38l68.9,32.9c-1.2,12.3-2.1,25.4-5,37.5
	l-1.2-0.4c-1.9-0.8-3.6-1.9-5.3-3.1l-31.3,49C259,1133.3,253.6,1144.1,246.9,1152.4z"/>
<path class="st4" d="M1152.1,743.6l-1.5-2.9c-19.1-38.5,1.4-76.3,14-112.9c19.7,20.6,38.5,44.7,42.4,73.7c1.1,7.9,0.7,15.5,0.5,23.4
	l-2.1,9.4c27.1-18.2,61.3-16.2,90-31.6c-4.8,29.3-15.6,61.2-41,79.1c-15.2,10.7-34.4,15.8-52.9,12.4c-7.4-1.4-14-4.8-20.8-7.9
	l-17.7,26.6l-11.9,15.9c-1.6,2.2-4.1,4.8-5,7.3c17.2-9.2,34.7-16.6,54.6-10.7c9.4,2.8,18.5,7.3,27.6,10.9c11.6,4.6,23.6,8.1,36,9.7
	c-16.9,15.8-34.7,30.6-57.6,36.3c-14.2,3.5-29.8,0.1-42-7.5c-11.8-7.3-19.8-17.5-27.4-28.9c-12.9,16-28.5,31.1-44.2,44.4
	c6.4-0.9,13.1-2,19.6-1.4c11.8,1.2,24.1,8.2,33.5,15.2l32.8,27c-4.6,3.4-25.6,18.9-30.4,19.4l-4.3,2.2
	c-33.6,25.8-67.3,48.7-106.6,65.3c-8.4,3.5-17.6,7.6-26.5,9.6l-9.5-40.5c0.3-1.8-0.3-2.8-0.5-4.5c-0.3-4-0.4-21.8,1.5-24.3
	c-1.4-2.6-0.9-7.1-0.4-10c0.4-6.1,1.2-8.9,5.2-13.5c1.1-0.4,1.7-0.8,2.6-1.4c-0.7-5.6-2.8-11.1-4.7-16.4c-3.5-10-7.2-19.3-11.9-28.8
	l1.6-0.6c13.8,7.1,30.4,14.5,45.8,17.2c-4.8-8.6-7.8-16.6-9.4-26.3c-5.5-33.8,18.3-61.5,36.7-87l6.3,10.5
	c8.4,17.1,16.7,35.6,14,55.1c-2.3,16.2-9.5,30-18.8,43.3c5.8-4,10.7-9,15.9-13.8c17.1-15.6,32.6-32.4,47.3-50.2
	c-8.2-3.9-16.6-7.7-24.1-13c-10.2-7.2-17.3-16-23.7-26.6c-2.2-4.9-4.5-10.1-5.9-15.3c-4.3-16.5-1.1-31.7,2.9-47.8
	c1.8-7.5,3.2-15.3,5.8-22.5c6.4,3.7,12.2,8.7,17.8,13.4c12.2,10.4,22.9,21.4,33.1,33.7C1143.7,753.6,1147.7,748.6,1152.1,743.6z"/>
<path class="st3" d="M993.5,888.2l1.6-0.6c13.8,7.1,30.4,14.5,45.8,17.2l8.6,10l-47.3,33.5c0.4-6.1,1.2-8.9,5.2-13.5
	c1.1-0.4,1.7-0.8,2.6-1.4c-0.7-5.6-2.8-11.1-4.7-16.4C1001.9,907,998.2,897.7,993.5,888.2z"/>
<path class="st3" d="M1138.8,758.2c4.9-4.6,8.8-9.6,13.3-14.7l25.2,33.3c-11.9,18-23.2,37.5-38.7,52.7c9.2-19.5,12.2-41.3,4.6-61.9
	L1138.8,758.2z"/>
<path class="st3" d="M1002.6,958.3l58.1-40.8c7.2,9.5,14.2,19,23.9,26c14.1,10.2,28.9,13.8,46.2,11.9c4.1-0.4,8-1.9,12-2.5l1.3-0.2
	c-33.6,25.8-67.3,48.7-106.6,65.3c-8.4,3.5-17.6,7.6-26.5,9.6l-9.5-40.5c0.3-1.8-0.3-2.8-0.5-4.5
	C1000.8,978.5,1000.7,960.7,1002.6,958.3z"/>
<path class="st7" d="M132,279.3c-1.3-4.1-2.4-7.9-2.8-12.3c-0.9-10.4,2.6-20.4,9.2-28.4c6.4-7.6,16.2-12.9,26.2-13.6
	c14.6-1.1,24.1,5.7,34.5,14.8c2.2-6.4,4.4-12.3,8.8-17.6c6.3-7.4,14.8-13.1,24.7-13.8c12.2-0.8,22.7,3.5,31.7,11.4
	c5.1-1.3,10.4-1.3,15.6-1.7c29.9-2.2,58.5,1.1,88.1,3.9c-4.6,23.7-6.8,47.6-5.4,71.7l6.3,64.8c4.5,41,11,86.6-28.6,113.2
	c-18.2,12.2-41.7,15.9-63,11.5C267,481.1,251,475,244.8,466c-1.1-1.7-1.8-3.3-2.4-5.2c-0.2-0.8-0.5-1.3-1-2
	c2.8,26.4,18,50.6,38.5,67.2c9.7,7.9,20.3,13.5,31.8,18.3c-36.2,11.3-70.8,32.2-89.1,66.6c-17.6,33.3-17.1,74-6.2,109.3
	c18.7,60.5,62.9,106.4,118.3,135.5l9.9,4.6l-21.8,89.6c-11-5.1-21.7-11.6-31.9-18.1c-12-7.6-23.8-15.6-33.8-25.7
	c-4.9,3.1-9.1,5.2-14.6,6.8c-1,0.3-0.7,0.2-1.9,0.8c-3.9-2.1-8.5-4.9-11.6-8.1c-1.6-3.6-5.8-7.1-8.2-10.3
	c-7.8-10.2-9.3-21.2-11.5-33.4c-3.3-3.2-5.9-7.3-8.7-11L184.2,828l-7,2.9c-3,1-7.5,2.3-10.5,0.5c-8.3-4.8-12.7-18.2-14.9-26.8
	c-2.7-10.5-2-20,0.6-30.4l-0.9-1.6l-11-21.9l6.4-11.2c9.7-20.2,7.8-43.8,0.1-64.4c-6.1-16.3-14.8-31.2-20.6-47.7
	c-18.6,22.5-35.1,44.6-38.7,74.6c-0.7,5.9-0.4,12-0.4,17.9l-1.5-2c-2.6-3.9-4.6-8.8-6.8-13c-6.5-12.5-12.3-25.2-17.6-38.3
	c-18.8-46.4-32.8-94.9-32.3-145.4c0.2-19.9,3.1-40.4,7.2-59.8c8.2-38.8,22.6-77.7,42.3-112.2c7.6-13.3,16.6-26.1,25.5-38.6
	c5.4-7.6,11.4-14.6,17.6-21.6C125,285.6,128.1,281.8,132,279.3z"/>
<path class="st0" d="M132.9,399.9c2.7-0.4,5.7-0.7,8.4,0.1c3.4,1.1,6,4.1,7.6,7.1c2.1,4,2.4,9.8,0.9,14.1c-1.7,5.2-5.4,7.7-10,10.1
	c-1.7,0.1-3.5,0.3-5.3,0c-3.7-0.6-7.1-3.2-9-6.4c-2.8-4.5-3.3-9.6-1.9-14.7C125.2,404.9,128.3,402.4,132.9,399.9z"/>
<path class="st1" d="M168.2,518c2.1,5.1,3.3,10.1,6,15c6.1,10.9,15.2,16.4,26.9,19.8c-5.5,2.6-11.1,5.2-15.8,9.2
	c-8.5,7.1-13,18.5-16.8,28.5l-0.7,0.2c-1.3-2.2-1.6-4.7-2.5-7.2c-5.2-14.6-14.6-24-28.3-30.7c3.7-1.4,7.5-2.6,10.9-4.5
	C160.2,541.6,164.3,530.8,168.2,518z"/>
<path class="st4" d="M152.5,774.3c6.8-24.3,26.8-40.2,47.9-52.2l4-2c1.3,14.6,6,28.2,8,42.6c2.7,19-1.7,37.9-14.1,52.8
	c-4.2,5-8.7,8.9-14.1,12.5l-7,2.9c-3,1-7.5,2.3-10.5,0.5c-8.3-4.8-12.7-18.2-14.9-26.8C149.2,794.2,149.9,784.7,152.5,774.3z"/>
<path class="st4" d="M209.3,861.7c1.1-25.1,12-49.3,29.6-67.2c15.7,29.4,41.1,57.7,29.7,93.5c-2.2,7-5.8,13.1-11.4,18
	c-4.9,3.1-9.1,5.2-14.6,6.8c-1,0.3-0.7,0.2-1.9,0.8c-3.9-2.1-8.5-4.9-11.6-8.1c-1.6-3.6-5.8-7.1-8.2-10.3
	C213,885,211.4,874,209.3,861.7z"/>
<path class="st0" d="M132,279.3c-1.3-4.1-2.4-7.9-2.8-12.3c-0.9-10.4,2.6-20.4,9.2-28.4c6.4-7.6,16.2-12.9,26.2-13.6
	c14.6-1.1,24.1,5.7,34.5,14.8c2.2-6.4,4.4-12.3,8.8-17.6c6.3-7.4,14.8-13.1,24.7-13.8c12.2-0.8,22.7,3.5,31.7,11.4
	c9.1,10,12.4,21.5,11.8,34.8c-0.7,13.9-7.1,27.7-13.9,39.6c-7.6,13.5-16.5,26.2-26,38.5c-3.4,4.5-7.6,11-11.8,14.6l-0.8,0.5
	C190.9,329.5,149.6,315.2,132,279.3z"/>
<path class="st7" d="M918,234c63.3-17.5,134.2-17.9,192.5,15.3c22.8,13,42.5,28.9,60.7,47.7c5.2,5.4,10.6,10.5,15.2,16.4
	c10.5,13.4,20.9,26.8,29.6,41.5c22.8,38.4,38.5,84.1,45.9,128c1.9,10.9,3.8,22.1,4.3,33.2c0.5,11.9-0.6,23.9-1.9,35.7
	c-5.4,47.7-20.6,93.9-40,137.6l-16.8,35.5c0.2-7.9,0.6-15.5-0.5-23.4c-3.9-29-22.7-53.1-42.4-73.7c-12.5,36.6-33.1,74.4-14,112.9
	l1.5,2.9c-4.4,5-8.4,10-13.3,14.7c-10.2-12.4-20.9-23.3-33.1-33.7c-5.6-4.8-11.5-9.7-17.8-13.4c-2.6,7.3-4,15.1-5.8,22.5
	c-4,16.1-7.2,31.3-2.9,47.8c1.4,5.2,3.7,10.4,5.9,15.3c6.4,10.6,13.5,19.4,23.7,26.6c7.4,5.2,15.9,9,24.1,13
	c-14.8,17.8-30.2,34.6-47.3,50.2c-5.2,4.7-10.1,9.8-15.9,13.8c9.3-13.3,16.6-27.1,18.8-43.3c2.7-19.5-5.6-38-14-55.1l-6.3-10.5
	c-18.4,25.6-42.2,53.2-36.7,87c1.6,9.7,4.6,17.8,9.4,26.3c-15.4-2.8-32-10.1-45.8-17.2l-1.6,0.6c-0.2,0-5.1-8.8-5.7-9.8
	c-6.6-11-15.7-24.1-26.7-31c-2.9-0.1-6.7-2.5-9.4-3.7c-7.5-4.2-19.1-11-27.6-11.8l-5.2-1.3l0.1-1.6c-14.1,5.1-31.7,6-46.5,4
	c-14.8-2-29.3-5.7-43.2-11.1c-1.4-1.1-2.9-1.7-4.6-2.3l-0.3-0.2c-17.3-0.7-30.6,0.8-46.1,8.9c-8.2-10.7-13.6-22.8-18.5-35.3
	c-4.3-11-8.5-22.3-10.7-34c5-4,5.8-11.7,11.2-15.1l-4-18.3c-2.2-2-7.8-3.1-10.8-4.1c-0.4-0.7-0.8-1.2-1.5-1.7
	c-5.6-4.5-11.8-9.7-14.1-16.7c-2.3-7.1-0.7-14.4,2.9-20.8c2.2-4,3.6-4.9,7.9-6.1c-0.2-2.9-0.1-5.5-2.1-7.8
	c1.3-2.5-0.9-12.6-1.1-15.9c-0.3-5-0.3-10.2,0-15.2c1.4-23.2,7.1-47.6,19.2-67.7c18.5-30.7,52-48.4,85.9-56.7
	c35.1-6.8,69.4-2.9,101.8,12.5c10.8,5.2,22.2,12.6,33.7,15.8c4-1.5,7.9-3.5,11.5-5.7c18.5-10.9,35.8-24.7,44.7-44.8
	c4.3-9.7,6.9-20.4,9.5-30.7l-6.7,10c-8.6,10.8-23.1,16.2-36.5,17.5c-19.8,1.9-37.7-3.6-54-14.9c-16.1-11.1-27.9-27-32.2-46.2
	c-4.3-18.8-1.8-38.1,1.1-56.8l6.6-47.2C924.8,292.7,923.5,263.3,918,234z"/>
<path class="st5" d="M1073.3,315.8c6.1-0.6,11.5-0.5,17,2.4c9.1,4.9,12.7,14.1,15.5,23.5l5.6-2.9c5.2-2.4,10.6-2.5,15.9-0.4
	c6,2.4,10.8,7.3,13.4,13.2c2.9,6.8,2.7,14.1-0.3,20.8c-5.3,11.9-17.6,17.7-29.2,21.9c-14.5,4.6-27.4,7.1-39.6,16.8
	c-3.7-25.7-26.6-49.8-16.5-76.5C1058.6,325.3,1064.4,319.6,1073.3,315.8z"/>
<path class="st0" d="M1117,484.1c7.8-0.8,15.3,0.3,21.6,5.3c8.3,6.7,11.9,15.4,12.9,25.8c2.4-2.1,5.4-3.9,8.4-5.1
	c6.3-2.5,14.4-1.5,20.4,1.2c6.3,2.8,11.5,7.6,13.8,14.3c2.4,7.1,1.3,16-1.9,22.6c-6.4,13.3-19.1,19.1-32.3,23.7
	c-10.3,3-21.2,5.8-30.8,10.5c-4.8,2.3-9.2,5.5-13.6,8.5c-1.7-15.8-10.5-28.5-16.1-43.1c-5.8-15.3-8.1-30.2-1.1-45.5
	C1102.4,493.1,1107.7,487.7,1117,484.1z"/>
<path class="st8" d="M1013.1,563.6c23.4,7.2,43.5,27.9,54.8,49.2c18.1,34.3,19.8,75.1,8.3,111.7c-7.6,24.1-19.4,47.5-35.8,66.8
	c-17.1,20.1-39.6,36-62.9,48.2l-16.4,7.9c-2.9-0.1-6.7-2.5-9.4-3.7c-7.5-4.2-19.1-11-27.6-11.8l-5.2-1.3l0.1-1.6
	c2.3,0.1,4.8-1.1,6.9-1.8c6.1-2,12-4.5,17.7-7.3c29.9-15,49.3-42.2,59.7-73.3l1.3,0.4l1.6,0.8c4.2,1.8,9.4,1,13.5-0.7
	c5.5-2.2,10.2-6.5,12.2-12.1c1.9-5.2,1.2-10.4-1.2-15.4c-2.4-4.8-5.7-7-10.6-8.6c0.7-2.7,3.3-5.4,4.8-7.8c2.2-3.4,4-7,5.7-10.7
	c15.4-34.1,13.8-72.7-3.4-105.8c-2.6-5.1-5.7-9.8-9-14.5c-1.6-2.2-4.4-5-5.1-7.6L1013.1,563.6z"/>
<path class="st9" d="M842.6,512.8c35.1-6.8,69.4-2.9,101.8,12.5c10.8,5.2,22.2,12.6,33.7,15.8c11,5.1,21.6,10.6,30.8,18.6
	c1.1,1,3.6,2.6,4.3,3.9l0.1,0.8c0.8,2.6,3.6,5.3,5.1,7.6c3.3,4.7,6.3,9.4,9,14.5c17.2,33.1,18.8,71.7,3.4,105.8
	c-1.6,3.6-3.5,7.3-5.7,10.7c-1.5,2.4-4.1,5-4.8,7.8c4.8,1.7,8.2,3.9,10.6,8.6c2.5,4.9,3.2,10.1,1.2,15.4c-2.1,5.6-6.7,9.9-12.2,12.1
	c-4.1,1.7-9.3,2.4-13.5,0.7l-1.6-0.8l-1.3-0.4c-10.4,31.2-29.8,58.3-59.7,73.3c-5.7,2.9-11.6,5.3-17.7,7.3c-2.1,0.7-4.7,1.9-6.9,1.8
	c-14.1,5.1-31.7,6-46.5,4c-14.8-2-29.3-5.7-43.2-11.1c-1.4-1.1-2.9-1.7-4.6-2.3l-0.3-0.2c-17.3-0.7-30.6,0.8-46.1,8.9
	c-8.2-10.7-13.6-22.8-18.5-35.3c-4.3-11-8.5-22.3-10.7-34c5-4,5.8-11.7,11.2-15.1l-4-18.3c-2.2-2-7.8-3.1-10.8-4.1
	c-0.4-0.7-0.8-1.2-1.5-1.7c-5.6-4.5-11.8-9.7-14.1-16.7c-2.3-7.1-0.7-14.4,2.9-20.8c2.2-4,3.6-4.9,7.9-6.1c-0.2-2.9-0.1-5.5-2.1-7.8
	c1.3-2.5-0.9-12.6-1.1-15.9c-0.3-5-0.3-10.2,0-15.2c1.4-23.2,7.1-47.6,19.2-67.7C775.2,538.8,808.7,521.1,842.6,512.8z"/>
<path class="st10" d="M939.9,669.6l0.6-0.3c2.2-0.7,5.5-0.2,7.6,0.8c4.2,2,10.8,6.2,12.1,10.9c0.3,1.2-0.4,1.8-0.9,2.8l-2.1,0.8
	c-2.8-0.7-4.8-3.7-7.1-5.5c-3.1-2.3-7-3.5-10.4-5.4C939.2,671.9,939.4,671.5,939.9,669.6z"/>
<path class="st10" d="M816.9,651.1c2.8-0.2,6.3-0.6,9,0.2c1.9,0.6,2.8,1.8,3.8,3.5c-0.4,1.8-0.3,2.8-1.7,4.1l-9-0.9
	c-3.8,0.7-7.9,3-11.7,2.6c-1.1-1.6-0.8-2.1-0.8-4.1C808.3,653.4,813.7,652.2,816.9,651.1z"/>
<path class="st11" d="M869.6,732l1.1-0.1c4.2-0.2,11.4,0.4,14.5,3.2c0.6,4-0.7,6.5-2.9,9.7l-2.5,1.5c-1.9,1-4.8,1.1-6.8,0.2
	c-1.9-0.8-3.7-2.9-4.2-4.8C868,738.9,868,734.6,869.6,732z"/>
<path class="st12" d="M852.9,763.6c1.6-0.3,1.5-0.5,3,0.2c2,3.6,3.9,7.6,7.7,9.5c3.8,1.9,10.3,2,13.9-0.4c2-1.3,4.2-3.6,6.5-4.1
	c1.1-0.3,1.5,0.3,2.4,0.9c0.2,2.7-0.3,3.4-1.5,5.7c-4,3.2-7.6,5.2-13,5.2c-6.4,0-12.1-1.7-16.7-6.3c-2.5-2.5-4.6-5.8-4.5-9.4
	L852.9,763.6z"/>
<path class="st13" d="M819.3,675.9c2-0.3,3.8-0.1,5.7,0.4c3.1,0.8,5.5,3.3,6.9,6.1c2.4,4.7,2.9,10.6,1,15.5
	c-1.9,4.9-5.1,7.4-9.8,9.4c-2.1,0-4.3,0-6.3-0.7c-3.3-1.3-6.2-4.7-7.4-8c-1.7-4.7-1.7-10.5,0.7-15
	C812.4,679.6,815,677.2,819.3,675.9z"/>
<path class="st13" d="M935.8,693.1c1.9-0.1,4-0.3,5.8,0.2c3.2,0.8,5.8,3.4,7.3,6.2c2.6,4.8,2.6,11.4,1,16.5
	c-1.6,4.9-4.6,7.4-9.2,9.5c-2.3,0-4.9,0.3-7.1-0.4c-2.9-0.8-4.9-3-6.3-5.5c-2.4-4.3-3-10.2-1.6-14.9
	C927.6,699.1,930.8,695.9,935.8,693.1z"/>
<path class="st7" d="M783.9,710.8c6.8-0.5,14.1-0.9,20.5,1.6c6.6,2.5,14.7,9,17.2,15.8c1.3,3.4,1.5,7.3-0.1,10.6
	c-2.7,5.6-9.3,8.8-14.8,10.7c-8.1,1.2-17,1.1-24.7-1.9c-5.7-2.2-11.7-5.9-13.9-12c-1.4-3.9-1.5-10.6,0.6-14.2
	C772.1,715.8,777.9,712.6,783.9,710.8z"/>
<path class="st7" d="M947.2,734.6c5.9-0.3,11.6,0.2,17.2,2.3c7.2,2.7,13.3,8.5,16.2,15.7c1.2,3.1,1.5,8.9,0,11.9
	c-3.2,6.3-12.7,9.2-19,11c-8.4,0.6-17.6-0.2-24.9-4.6c-5.2-3.2-8.6-7-9.8-13.1c-1-4.8,0.4-9,3.2-13C934.2,738.7,940,736,947.2,734.6
	z"/>
<path class="st14" d="M749,759c5-4,5.8-11.7,11.2-15.1c11,33.2,32.4,57,62.6,74.2c1,0.6,0.6,0.3,1.6,1.2
	c-17.3-0.7-30.6,0.8-46.1,8.9c-8.2-10.7-13.6-22.8-18.5-35.3C755.4,781.9,751.3,770.6,749,759z"/>
<path class="st15" d="M842.6,512.8c35.1-6.8,69.4-2.9,101.8,12.5c10.8,5.2,22.2,12.6,33.7,15.8c11,5.1,21.6,10.6,30.8,18.6
	c1.1,1,3.6,2.6,4.3,3.9l0.1,0.8c0.8,2.6,3.6,5.3,5.1,7.6c3.3,4.7,6.3,9.4,9,14.5c17.2,33.1,18.8,71.7,3.4,105.8
	c-1.6,3.6-3.5,7.3-5.7,10.7c-1.5,2.4-4.1,5-4.8,7.8c-6.3,4.7-12.1,11.2-17.9,16.6c1.7-15.7,0.6-31.9-6.3-46.4
	c-4.8-10-11.5-19.3-17.2-28.8c-11.6-19.3-20-39.3-21.7-61.9c-6.2,9.6-13.4,17.7-22,25.2c-25.3,22.1-60.1,25.1-91.6,16
	c-10.2-2.9-20.2-8.3-30.9-8.9c-10.8-0.5-19,2.2-27,9.7c-16.8,15.6-22.8,44.1-23.6,66c-2.6-6.5-4.9-13.9-9.9-19
	c-3.7-3.7-6.7-3.4-11.5-3.3c-0.2-2.9-0.1-5.5-2.1-7.8c1.3-2.5-0.9-12.6-1.1-15.9c-0.3-5-0.3-10.2,0-15.2
	c1.4-23.2,7.1-47.6,19.2-67.7C775.2,538.8,808.7,521.1,842.6,512.8z"/>
<path class="st8" d="M368.2,221.9c3.2-15.3,7-30.3,12.7-45c20.6-53.6,58.2-99.5,106.3-130.9C550.8,4.5,628.5-9.5,702.8,6.4
	C773.4,21.4,835.7,65,874.8,125.5C896.5,159,910.2,195,918,234c5.5,29.3,6.8,58.8,4,88.4l-6.6,47.2c-2.9,18.8-5.4,38.1-1.1,56.8
	c4.4,19.1,16.1,35.1,32.2,46.2c16.3,11.2,34.2,16.7,54,14.9c13.4-1.3,28-6.7,36.5-17.5l6.7-10c-2.6,10.3-5.1,21-9.5,30.7
	c-9,20.1-26.2,33.8-44.7,44.8c-3.7,2.2-7.5,4.2-11.5,5.7c-11.5-3.2-22.9-10.6-33.7-15.8c-32.3-15.4-66.6-19.3-101.8-12.5
	c-33.9,8.3-67.4,26-85.9,56.7c-12.1,20.1-17.8,44.4-19.2,67.7c-0.3,5-0.3,10.2,0,15.2c0.2,3.3,2.4,13.4,1.1,15.9
	c-5.2-2.5-10.2-5-14.5-8.9c-25.5-23.6-30.7-61.8-31.8-94.7c-8.2,2.7-15.8,6.7-24,9.4c-25.4,8.4-52,6.4-75.9-5.5l-5.6-3.3l-1.6,0.7
	c-1.9,35.8-7.4,69.1-35.6,94c-5.4,4.8-14.1,7.5-20.8,10.4c-11.1,4.9-23.2,11.7-35,13.9c-41.9,7.5-79.9,37.8-103.7,72.1
	c-18,26-28.5,54.8-39,84.4l-6.3,19.4l-9.9-4.6c-55.4-29-99.6-75-118.3-135.5c-10.9-35.3-11.5-76,6.2-109.3
	c18.3-34.4,52.9-55.3,89.1-66.6c-11.4-4.8-22.1-10.4-31.8-18.3c-20.4-16.6-35.7-40.8-38.5-67.2c0.5,0.7,0.8,1.2,1,2
	c0.6,1.9,1.2,3.6,2.4,5.2c6.1,8.9,22.2,15.1,32.6,17.2c21.2,4.4,44.8,0.7,63-11.5c39.6-26.6,33.1-72.2,28.6-113.2l-6.3-64.8
	C361.3,269.5,363.5,245.6,368.2,221.9z"/>
<path class="st10" d="M520.5,108.2l0.3,0.7c-24.6,13.4-45.3,29.8-62.4,52.1c-30.5,39.6-44.3,95.4-37.6,144.8l0.2,1.3l-3-8.3
	l-4.9-19.4c-8.5-39.1-1.7-79.5,20.2-113C453.2,136,485.3,115.6,520.5,108.2z"/>
<path class="st10" d="M574.7,88.2c3.6,7.4,6.4,14.6,11.1,21.5c9.5,13.7,22.5,24.9,36.2,34.3c38,25.9,82.5,35.9,126.6,46.7
	c21.1,5.2,42.4,10.4,62.2,19.7c33,15.5,57.6,39.5,70,74.1c-6.3-9.4-11.8-18.1-20.4-25.7c-11.3-9.8-25.5-16.5-39.4-21.8
	c-61.5-23.5-133.8-21.9-188.6-61.9c-23.9-17.4-46.6-42.8-54.8-71.8C576.1,98.4,575.5,93.2,574.7,88.2z"/>
<path class="st10" d="M594.2,41.9l3.5,5c8.1,11.6,19.5,18.5,32.5,23.3c20,7.5,41.9,10,62.8,13.8c54,10,115.3,26.2,153.2,68.9
	c16.5,18.6,28.1,41.1,32.2,65.7c0.9,5.8,2,12.1,1.7,18c-0.7-1.2-1.1-2.3-1.5-3.7c-4.3-13.5-12.1-26.2-20.9-37.2
	c-33.2-41.5-84.1-59.8-133.7-73.5c-25.9-7.1-53.9-12.5-77.8-25.1C623.2,85.1,602.1,67.5,594.2,41.9z"/>
<path class="st16" d="M462.8,400.8l5.4,0.8c2.3,4,3.2,9.6,4.7,14c2.6,7.6,5.5,15,9.1,22.2c21.6,43.4,60.2,83.5,103.8,105.3
	l-0.5,23.1c-1.9,35.8-7.4,69.1-35.6,94c-5.4,4.8-14.1,7.5-20.8,10.4c-11.1,4.9-23.2,11.7-35,13.9c-41.9,7.5-79.9,37.8-103.7,72.1
	c-18,26-28.5,54.8-39,84.4c-2-2.2-3.2-5.4-4.7-7.9c-3.3-5.5-6.7-11-9.6-16.7c-12.7-25.1-17.1-54-14.9-81.8
	c3.3-41.7,22.4-79.2,56-104.5c11.1-8.3,23.2-15,34.7-22.8c23.2-15.6,43.6-37.3,53.3-63.9c11-30.3,11-60.9,6.5-92.5l-3.6-20.1
	C467.2,424.2,460.9,406.3,462.8,400.8z"/>
<path class="st11" d="M462.8,400.8c-10.8-4.1-19.8-9.7-27.9-18c-9.6-9.9-15.8-23.2-15.6-37.2c0.2-9.5,4-18,10.9-24.5
	c5.3-5,11.2-7.3,18.5-7c4.5,0.2,8.3,1.6,12.5,3.1c1.1-12.4,1.8-24.7,3.9-37c3.2-18.3,8-36.8,15.7-53.8c14-31.1,35.7-56.4,61.6-78.2
	l13.7-10.5c23.5,51.6,65.5,89.9,118.6,109.8c14,5.2,29.1,8.6,43.8,10.6l30.9,3.1c23.3,3,45.1,9.4,66.1,19.9l1.8,33.3l1.3-0.3
	c8.7-2.1,17-1.5,24.8,3.2c7.6,4.7,13.4,12.4,15.4,21.2c3.3,14.3-0.3,27.9-8.2,40c-7.9,12.2-18.6,19.4-30.9,26.5
	c1,3.4,0.2,6.8,0.1,10.4l0,14.5c0.2,8.2,1.1,16.8,2.5,24.9c2.3,13.6,6.3,27.1,11.8,39.7c2.7,6.1,6.4,12.1,8.3,18.5
	c-33.9,8.3-67.4,26-85.9,56.7c-12.1,20.1-17.8,44.4-19.2,67.7c-0.3,5-0.3,10.2,0,15.2c0.2,3.3,2.4,13.4,1.1,15.9
	c-5.2-2.5-10.2-5-14.5-8.9c-25.5-23.6-30.7-61.8-31.8-94.7c-8.2,2.7-15.8,6.7-24,9.4c-25.4,8.4-52,6.4-75.9-5.5l-5.6-3.3l-1.6,0.7
	l0.5-23.1c-43.6-21.8-82.2-61.9-103.8-105.3c-3.6-7.2-6.6-14.6-9.1-22.2c-1.5-4.4-2.4-10-4.7-14L462.8,400.8z"/>
<path class="st12" d="M624.8,380.5l0.6-0.2c2.7-0.5,3.2,0,5.3,1.6c1.1,3.3-3.8,7-3.8,11.2c4.1,3,10.3,1.7,15.2,1.1l0.5,1
	c-1,2.5-3.1,3.9-5.2,5.5c-3.4,1.8-6.8,3.1-10.7,2.5c-2.9-0.4-5.8-3-7.4-5.4c-1.9-2.9-2.3-7-1.4-10.3
	C618.8,384.2,622.1,382.1,624.8,380.5z"/>
<path class="st12" d="M457.8,334.2l1.7,0.4c0.3,15.8,0.7,31.4,3.4,47c-2.6-1.8-4.8-3.8-7.1-5.9c-2.9-3.1-5.2-6.1-7.2-9.9
	c-3.1-5.9-4-11.4-2-17.8C448.5,342.1,452.3,336.9,457.8,334.2z"/>
<path class="st12" d="M818.1,335.9l3.3,1.4c5.5,2.5,8.3,5.2,10.4,11c2.6,7.2,2,13.5-1.3,20.3l-0.5,1.1c-1.9,3.8-4.6,6.4-7.5,9.4
	c-3.1,2.6-6.2,4.6-9.7,6.6L818.1,335.9z"/>
<path class="st8" d="M535.5,260.4l9.5,0.4c7.6,0.9,15.9,4.6,22.5,8.3c1.6,0.9,3.9,2,5,3.6c1.1,1.7,1.4,3.3,0.7,5.3
	c-0.8,2.4-4.8,4.3-7.3,4c-3.7-0.4-8.3-3.1-11.8-4.5c-13.3-5.4-26.3-5.6-39.7-0.7c-11.6,5.7-19.5,12.6-28.8,21.4
	c2.5-6,6.1-11.3,10.3-16.2C506.4,269.5,519,261.8,535.5,260.4z"/>
<path class="st8" d="M725.6,263.9c6.1-1.2,13.5,0.2,19.2,2.4c19.8,7.6,33.4,28.8,41.7,47.3c-4.9-4.8-8.3-11.3-13.1-16.4
	c-13.1-12-33.5-23-52-18.8c-5.7,1.3-10.7,4.5-16.7,3.2c-1.7-1.2-3-1.9-3.6-4c-0.5-1.7-0.5-3.5,0.3-5.1
	C707.7,267.4,717.8,265.1,725.6,263.9z"/>
<path class="st13" d="M727.4,305.8c3.9-0.2,7.2,0,10.8,1.7c5.3,2.5,8.9,7.6,10.7,13c2.4,7.2,1.9,15.4-1.8,22
	c-3.5,6.2-8.4,9-14.9,10.9c-4,0.1-7.4,0-11.1-1.7c-5.1-2.3-9.5-7.2-11.2-12.5c-2.3-7.4-1.1-16.2,2.7-22.9
	C716,310,720.7,307.6,727.4,305.8z"/>
<path class="st3" d="M714.8,322.2l1.1-0.4c2-0.3,4,0.2,5.5,1.8c1.2,1.2,1.8,2.8,1.8,4.5c0,3-1.5,4.2-3.5,6c-0.5,0.2-1.1,0.5-1.6,0.7
	c-2,0.4-2.9,0.1-4.4-1.2c-1.5-1.3-1.9-3.5-1.8-5.3C711.9,325.5,712.8,324.2,714.8,322.2z"/>
<path class="st13" d="M524.8,302.6c0.6,0.3,0.3,0.1,0.9,0.8c3.1,3.9,6.6,7.2,10.4,10.4c2.9-1.1,4.8-4.5,7.8-5.8
	c4.2-1.9,9.7-1.5,13.8,0.4c5,2.2,9.4,7.8,11.2,12.8c2.5,6.8,2.5,15.2-0.9,21.7c-2.5,4.8-6.3,8.8-11.6,10.4
	c-5.6,1.7-12.4,0.9-17.4-2.2c-2.2-1.4-3.9-3.4-5.5-5.4l-0.3-0.6l-0.5-1.1c-2.4-4.8-3.1-13-1.3-18.2c0.8-2.3,2.3-4.6,2.2-7.1
	c-3.7,1.7-6.4,1.9-10.4,1.9c-3.4-2-5.9-3.2-7.3-7l0.7-0.9c1.9,1.3,3.8,2.9,5.8,3.9c2.7,1.4,5.7,1.7,8.6,0.9l-5.7-1.9
	c-4-1.9-5.3-5.3-6.7-9.2l0.6-0.8c3.6,7.6,8.3,9.1,15.5,11.9l1.1-1.7l-1.1-0.5c-1.9-0.9-4.2-1.8-5.8-3.2
	C526.2,309.4,525.1,306.2,524.8,302.6z"/>
<path class="st3" d="M538.6,322.2l2.8-0.1c1.8,1,2.6,1.3,3.5,3.3c0.9,2,1,5,0.1,7c-1,2.1-2.7,2.5-4.7,3.1l-2.3-0.2
	c-1.7-0.3-3.1-1.4-3.9-2.9c-1.2-2.2-1-5.1,0.1-7.3C535.3,323.2,536.8,322.9,538.6,322.2z"/>
<path class="st12" d="M585.7,543c4.7,6.4,31.3,13.8,39.8,15.2c20,3.2,36.8-1.7,55.2-9.1c4.1-1.6,8.1-4.2,12.3-5.4l-0.7,21.1
	c-8.2,2.7-15.8,6.7-24,9.4c-25.4,8.4-52,6.4-75.9-5.5l-5.6-3.3l-1.6,0.7L585.7,543z"/>
<path class="st6" d="M586.2,441c25.4,9.7,50.1,14.1,77.1,8.5c8.8-1.8,17.2-4.9,25.6-7.8c-2.9,8.1-6.2,14.8-11.5,21.7
	c-8.6,9.2-19.4,16.8-32.2,18.6l-1.4,0.2c-10.9,1.5-21.6-0.3-31.2-5.7C599.3,468.9,590.3,455.4,586.2,441z"/>
<path class="st7" d="M522.7,373.9c5.8-0.2,10.8-0.2,16.3,2.2c7.1,3.1,13,9.2,15.5,16.7c2.6,7.8,1.6,16.4-2.2,23.6
	c-4.2,8.1-10.9,12-19.3,14.6c-6.3,0.8-12.8,0.4-18.6-2.6c-7.3-3.8-12.7-11.3-14.9-19.2c-1.9-6.9-0.7-14.9,2.9-21
	C507.1,380.4,514,375.9,522.7,373.9z"/>
<path class="st7" d="M750,373.9c6.3-0.6,11.7-0.1,17.4,2.8c7,3.5,11.7,9.7,14,17.1c2.4,7.8,1.7,16.5-2.5,23.6
	c-4.3,7.5-11.7,11.4-19.8,13.6c-3.8,0.4-7.6,0.4-11.4-0.4c-6.8-1.4-14-5.8-17.7-11.7c-4-6.4-5.9-15-4.1-22.4
	c1.8-7.2,6.3-14.5,13-18.2l0.9-0.5C743.2,375.9,746.2,374.8,750,373.9z"/>
<path class="st16" d="M692.9,543.7c2.7-2.2,6.5-3.8,9.5-5.6c6.6-4,13.1-8.3,19.3-13c27.6-21,52-47,68.7-77.5
	c6.8-12.4,12-25.3,17-38.5l12.4-4.1c1,3.4,0.2,6.8,0.1,10.4l0,14.5c0.2,8.2,1.1,16.8,2.5,24.9c2.3,13.6,6.3,27.1,11.8,39.7
	c2.7,6.1,6.4,12.1,8.3,18.5c-33.9,8.3-67.4,26-85.9,56.7c-12.1,20.1-17.8,44.4-19.2,67.7c-0.3,5-0.3,10.2,0,15.2
	c0.2,3.3,2.4,13.4,1.1,15.9c-5.2-2.5-10.2-5-14.5-8.9c-25.5-23.6-30.7-61.8-31.8-94.7L692.9,543.7z"/>
<path class="st17" d="M585.1,566.1l1.6-0.7l5.6,3.3c24,11.8,50.5,13.8,75.9,5.5c8.2-2.7,15.9-6.7,24-9.4c1.1,32.9,6.3,71,31.8,94.7
	c4.3,4,9.3,6.4,14.5,8.9c2,2.3,1.9,4.9,2.1,7.8c-4.2,1.2-5.6,2.1-7.9,6.1c-3.6,6.4-5.2,13.7-2.9,20.8c2.3,7,8.5,12.2,14.1,16.7
	c0.6,0.5,1,1,1.5,1.7c3,1,8.7,2.1,10.8,4.1l4,18.3c-5.5,3.4-6.2,11-11.2,15.1c2.3,11.7,6.4,23,10.7,34c4.9,12.4,10.3,24.6,18.5,35.3
	c15.5-8.1,28.8-9.6,46.1-8.9l0.3,0.2c1.7,0.7,3.1,1.2,4.6,2.3c13.9,5.4,28.4,9.1,43.2,11.1c14.9,2,32.4,1,46.5-4l-0.1,1.6l5.2,1.3
	c8.5,0.9,20.1,7.6,27.6,11.8c2.7,1.2,6.5,3.6,9.4,3.7c11,6.9,20.1,20,26.7,31c0.6,1,5.5,9.8,5.7,9.8c4.7,9.5,8.5,18.8,11.9,28.8
	c1.8,5.3,3.9,10.8,4.7,16.4c-0.9,0.6-1.6,1-2.6,1.4c-4.1,4.6-4.9,7.4-5.2,13.5c-0.5,2.9-0.9,7.3,0.4,10c-1.9,2.4-1.8,20.3-1.5,24.3
	c0.1,1.7,0.8,2.7,0.5,4.5l9.5,40.5c0.9,5.9,3.4,17.6,1.1,23.4c-0.4,1-1.9,2.6-2.6,3.6l-2.9,3.4c4.5,6.3,7.1,14.7,10.5,21.7l23,44.7
	c4.4,8.6,8.4,18.3,13.6,26.3l0.3,0.8c2.7,6.9,8,14.9,12.2,21c-29.8,19.3-59.3,38-91.2,53.9c-141.4,70.8-306.6,97-461.9,63.8
	c-64.7-13.8-126.8-34.5-186.7-62.6c-32.9-15.4-64.4-32.4-94-53.5l14.4-21.6c6.8-8.3,12.1-19.1,17.9-28.2l31.3-49
	c1.7,1.1,3.4,2.3,5.3,3.1l1.2,0.4c2.9-12.1,3.8-25.1,5-37.5c1.3-14.7,3.8-29.5,6.2-44.1l3.6-20.2c0.5-2.8,1.7-6.1,1.3-8.9l-2.8-1.5
	c0.9-1.4,1.8-2.2,3.2-3.2c2.3-1.8,3.2-10.5,3.8-13.6l21.8-89.6l6.3-19.4c10.5-29.6,21-58.4,39-84.4c23.8-34.3,61.8-64.7,103.7-72.1
	c11.9-2.2,23.9-9,35-13.9c6.6-2.9,15.4-5.6,20.8-10.4C577.8,635.2,583.2,601.9,585.1,566.1z"/>
<path class="st18" d="M450.5,956.4c12.9,10.3,27.6,20.9,42.5,28.1c26,12.5,57.3,16.5,85.7,13.4c22.9-2.5,50-9.3,68.8-23
	c9,9,16.6,14.8,29.7,17.1l1,0.2c11.9,2.1,24.9,0.2,36.7-1.7c8.5-1.4,18-3,26-6.1l0.6,16.9l-0.9,0.2c-15.1,2.9-31.2,12.1-39.8,25.2
	c-5.6,8.6-8.5,22.1-6.3,32.3c1.2,5.3,4.4,10.4,7.8,14.5c5.4,13.5,13.1,24.1,22.2,35.3c10.9,13.5,22.7,25.8,35.4,37.6
	c3.4,3.1,8.4,8.8,12.6,10.6l0.9,0.3l5.2,6.1c-6.9,2.3-14.9,3.2-22.1,4.3c-27.4,4.6-55.5,6.5-83.2,7.2
	c-52.7,1.3-105.4-2.9-157.1-13.4l-64.8-16.5l4.5-6.8c6.2-9.6,11.7-19.5,16.7-29.7c2.2-4.5,4.9-9.5,5.6-14.5c0.6-3.6-0.3-8.3-0.6-12
	c-1.6-16.8-5.5-33.4-9.1-49.9l-4.5-17.4l-30.2-11.4c1.8-2.6,2.8-8.4,3.9-11.5c3.5-10.2,6.9-20.7,11.5-30.5
	C449.9,960.4,450.3,957.5,450.5,956.4z"/>
<path class="st19" d="M450.5,956.4c12.9,10.3,27.6,20.9,42.5,28.1c26,12.5,57.3,16.5,85.7,13.4c22.9-2.5,50-9.3,68.8-23
	c9,9,16.6,14.8,29.7,17.1l1,0.2c11.9,2.1,24.9,0.2,36.7-1.7c8.5-1.4,18-3,26-6.1l0.6,16.9l-0.9,0.2c-15.1,2.9-31.2,12.1-39.8,25.2
	c-5.6,8.6-8.5,22.1-6.3,32.3c1.2,5.3,4.4,10.4,7.8,14.5c5.4,13.5,13.1,24.1,22.2,35.3c10.9,13.5,22.7,25.8,35.4,37.6
	c3.4,3.1,8.4,8.8,12.6,10.6l0.9,0.3l5.2,6.1c-6.9,2.3-14.9,3.2-22.1,4.3c-6.7-8.4-15.5-15.5-23.1-23.1
	c-15.7-15.6-30.8-37.3-36.3-58.9c-1.5-6-1.7-12.4-2.5-18.6l-4.6,1.6c-24.7,8.2-50.7,9.1-76.5,6.8c-51.3-4.4-99.2-20.5-145-43.6
	l-4.5-17.4l-30.2-11.4c1.8-2.6,2.8-8.4,3.9-11.5c3.5-10.2,6.9-20.7,11.5-30.5C449.9,960.4,450.3,957.5,450.5,956.4z"/>
<path class="st7" d="M449.3,961.2l14.9,53.3l-30.2-11.4c1.8-2.6,2.8-8.4,3.9-11.5C441.3,981.5,444.6,970.9,449.3,961.2z"/>
<path class="st14" d="M351,840.9c10.5-29.6,21-58.4,39-84.4c23.8-34.3,61.8-64.7,103.7-72.1l3.6,10.5c-14.3,30-28.7,59.8-40.8,90.8
	c-14.7,37.9-25.7,76.5-21.3,117.7c1.6,15.2,5.9,29.9,11.1,44.2c1.1,3.1,2.4,6.1,4.2,8.9c-0.3,1.1-0.6,4-1.2,4.7
	c-4.6,9.7-8,20.3-11.5,30.5c-1.1,3.1-2.1,8.9-3.9,11.5l30.2,11.4l4.5,17.4c3.6,16.5,7.5,33,9.1,49.9c0.3,3.7,1.2,8.4,0.6,12
	c-0.8,5-3.5,10-5.6,14.5c-5,10.2-10.5,20.1-16.7,29.7l-4.5,6.8c-17.2-4.1-34.8-11.7-51.3-18.3l-21-8.4l-51.6-24.9
	c-8.5-4.6-17.3-9.1-25.2-14.4c2.9-12.1,3.8-25.1,5-37.5c1.3-14.7,3.8-29.5,6.2-44.1l3.6-20.2c0.5-2.8,1.7-6.1,1.3-8.9l-2.8-1.5
	c0.9-1.4,1.8-2.2,3.2-3.2c2.3-1.8,3.2-10.5,3.8-13.6l21.8-89.6L351,840.9z"/>
<path class="st3" d="M433.9,1003.1l30.2,11.4l4.5,17.4c3.6,16.5,7.5,33,9.1,49.9c0.3,3.7,1.2,8.4,0.6,12c-0.8,5-3.5,10-5.6,14.5
	c-5,10.2-10.5,20.1-16.7,29.7l-4.5,6.8c-17.2-4.1-34.8-11.7-51.3-18.3L433.9,1003.1z"/>
<linearGradient id="SVGID_1_" gradientUnits="userSpaceOnUse" x1="1142.3688" y1="376.8129" x2="1109.4736" y2="546.8398" gradientTransform="matrix(1.4033 0 0 -1.4033 -731.4468 1624.8921)">
	<stop  offset="0" style="stop-color:#FDDFC1"/>
	<stop  offset="1" style="stop-color:#F3EED9"/>
</linearGradient>
<path class="st20" d="M778.3,828.2c15.5-8.1,28.8-9.6,46.1-8.9l0.3,0.2c1.7,0.7,3.1,1.2,4.6,2.3c13.9,5.4,28.4,9.1,43.2,11.1
	c14.9,2,32.4,1,46.5-4l-0.1,1.6l5.2,1.3c8.5,0.9,20.1,7.6,27.6,11.8c2.7,1.2,6.5,3.6,9.4,3.7c11,6.9,20.1,20,26.7,31
	c0.6,1,5.5,9.8,5.7,9.8c4.7,9.5,8.5,18.8,11.9,28.8c1.8,5.3,3.9,10.8,4.7,16.4c-0.9,0.6-1.6,1-2.6,1.4c-4.1,4.6-4.9,7.4-5.2,13.5
	c-0.5,2.9-0.9,7.3,0.4,10c-1.9,2.4-1.8,20.3-1.5,24.3c0.1,1.7,0.8,2.7,0.5,4.5l9.5,40.5c0.9,5.9,3.4,17.6,1.1,23.4
	c-0.4,1-1.9,2.6-2.6,3.6l-2.9,3.4c-28.3,25-61.9,44.7-95.3,61.9c-11.6,6.6-24.7,11.3-37,16.2l-69.3,21.6l-6.5,1.1
	c-8,0.8-17.2-0.2-25-1.4l-0.9-0.3c-4.2-1.7-9.2-7.5-12.6-10.6c-12.8-11.7-24.5-24-35.4-37.6c-9.1-11.2-16.8-21.8-22.2-35.3
	c-3.4-4.1-6.7-9.2-7.8-14.5c-2.2-10.2,0.7-23.7,6.3-32.3c8.5-13.1,24.6-22.3,39.8-25.2l0.9-0.2l-0.6-16.9l0.8-1
	c-2.6-4-6-10-10.1-12.5c-2.3-1.4-5.2-2-7.7-2.8c-17.1-6-37.4-19.4-45.1-36.4c-2.2-5-1.8-10.5,0.3-15.4c1.4-3.2,4.5-7.1,8-8.1
	c7.8-2.3,15.5,2.3,21.9,6.1c-3.2-5.5-9.6-13.6-10.1-19.9c-0.3-4,0.5-8.6,3.2-11.7c2-2.2,3.9-3.4,7-3.4c10.2,0,20.5,18,26.4,25.2
	c0.1-5.2,0.5-10.1,1.5-15.1C742.3,864.3,756.8,842.2,778.3,828.2z"/>
<linearGradient id="SVGID_00000145767731928236408360000015977943050677698439_" gradientUnits="userSpaceOnUse" x1="1192.2921" y1="433.1451" x2="1214.0149" y2="379.3428" gradientTransform="matrix(1.4033 0 0 -1.4033 -731.4468 1624.8921)">
	<stop  offset="0" style="stop-color:#037976"/>
	<stop  offset="1" style="stop-color:#099A84"/>
</linearGradient>
<path style="fill:url(#SVGID_00000145767731928236408360000015977943050677698439_);" d="M1001.6,987l9.5,40.5
	c0.9,5.9,3.4,17.6,1.1,23.4c-0.4,1-1.9,2.6-2.6,3.6l-2.9,3.4c-28.3,25-61.9,44.7-95.3,61.9l-1.2-2.5l2.7-3.2c0.6-2.3,2.1-4.8,3-7
	c2.7-6.1,5.6-12.2,6.5-18.9l0.1-0.4c9-0.8,16.6-4.3,24.4-8.4c9.4-6.5,18.4-13.7,25.8-22.5c12.6-14.9,19.6-33.8,24.2-52.6
	C998.2,999.3,998.6,990.9,1001.6,987z"/>
<path class="st14" d="M947,1079.2l0.8,2.3c-2.8,3.8-7.1,6.3-10.4,9.7c-5.9,6-11.1,13.4-17.5,18.8c-2.2,1.9-4.1,3.5-7,4
	c0.6-2.3,2.1-4.8,3-7c2.7-6.1,5.6-12.2,6.5-18.9l0.1-0.4C931.6,1086.9,939.1,1083.4,947,1079.2z"/>
<path class="st22" d="M741.7,983.4l27.2,30.1c21.7,22.5,46.3,44.6,74.6,58.3c18.4,8.9,42,14.6,62.4,15.5l16.6,0.2l-0.1,0.4
	c-1,6.7-3.8,12.8-6.5,18.9c-1,2.2-2.5,4.7-3,7l-2.7,3.2l1.2,2.5c-11.6,6.6-24.7,11.3-37,16.2l-69.3,21.6l-6.5,1.1
	c-8,0.8-17.2-0.2-25-1.4l-0.9-0.3c-4.2-1.7-9.2-7.5-12.6-10.6c-12.8-11.7-24.5-24-35.4-37.6c-9.1-11.2-16.8-21.8-22.2-35.3
	c-3.4-4.1-6.7-9.2-7.8-14.5c-2.2-10.2,0.7-23.7,6.3-32.3c8.5-13.1,24.6-22.3,39.8-25.2l0.9-0.2l-0.6-16.9L741.7,983.4z"/>
<path class="st8" d="M922.5,1088c-1,6.7-3.8,12.8-6.5,18.9c-1,2.2-2.5,4.7-3,7l-2.7,3.2l-13.6-16.6c-11,3.8-22,6.7-33.6,7.9
	l-10.4-17.8l0.2-0.4l0.9-0.1c0.5,1.3,1,2.2,1.8,3.3c0.7,1,1.5,1.8,2,2.9l0.9,1.9c1,1.6,1.8,3.5,2.8,5l2.6,3.7h4.9
	c1.1-0.3,2.4-0.4,3.5-0.7c1.2-0.3,2.4-0.4,3.5-0.7l3.7-0.9c3.7-1-0.6-0.2,2.1-0.7c1.1-0.2,2.3-0.4,3.4-0.9l1-0.5
	c2.9-0.8,5.9-2.3,8.9-2.6l0.9-0.1l1.4-1.4c1.3-0.8,3.8-1.6,5.4-1.9C909.3,1095.7,916.7,1091.6,922.5,1088z"/>
<path class="st12" d="M863,1108.6c11.6-1.2,22.6-4.1,33.6-7.9l13.6,16.6l1.2,2.5c-11.6,6.6-24.7,11.3-37,16.2L863,1108.6z"/>
<path class="st9" d="M784.6,1078.4c2.7-6.2,6.5-11.5,13-14.1c8.6-3.5,17.2-2.6,25.5,1.1c8.1,3.6,16.1,9.5,21.9,16.2
	c2.6,2.9,4.8,6.5,7.5,9.2l10.4,17.8l11.4,27.4l-69.3,21.6c-1.4-5.4-5.1-11.1-7.7-16.1c-6.5-12.8-14.1-27.3-15.3-41.9
	C781.5,1092.2,782.8,1085.6,784.6,1078.4z"/>
<path class="st7" d="M702.4,1073.5c-1.7-11.3-2.1-22.5,4.8-32.4c4.4-6.3,11.3-10,18.8-11c7.7-1,14.5,2.7,20.2,7.4
	c12.6,10.4,22.4,23.3,33.1,35.6c1.7,1.8,3.4,3.7,5.3,5.3c-1.8,7.2-3,13.8-2.5,21.3c1.1,14.6,8.7,29.1,15.3,41.9
	c2.5,5,6.2,10.7,7.7,16.1l-6.5,1.1c-8,0.8-17.2-0.2-25-1.4l-0.9-0.3c-4.2-1.7-9.2-7.5-12.6-10.6c-12.8-11.7-24.5-24-35.4-37.6
	C715.5,1097.5,707.8,1087,702.4,1073.5z"/>
<path class="st12" d="M779.3,1073.1c1.7,1.8,3.4,3.7,5.3,5.3c-1.8,7.2-3,13.8-2.5,21.3c1.1,14.6,8.7,29.1,15.3,41.9
	c2.5,5,6.2,10.7,7.7,16.1l-6.5,1.1c-1.9-5.5-6.3-10.6-9.1-15.9C778.7,1122.3,772.1,1095.9,779.3,1073.1z"/>
<linearGradient id="SVGID_00000013195341268521667190000005971837690210453638_" gradientUnits="userSpaceOnUse" x1="1237.2035" y1="481.6627" x2="1049.7888" y2="537.059" gradientTransform="matrix(1.4033 0 0 -1.4033 -731.4468 1624.8921)">
	<stop  offset="0" style="stop-color:#C80603"/>
	<stop  offset="1" style="stop-color:#F14B4F"/>
</linearGradient>
<path style="fill:url(#SVGID_00000013195341268521667190000005971837690210453638_);" d="M778.3,828.2c15.5-8.1,28.8-9.6,46.1-8.9
	l0.3,0.2c1.7,0.7,3.1,1.2,4.6,2.3c13.9,5.4,28.4,9.1,43.2,11.1c14.9,2,32.4,1,46.5-4l-0.1,1.6l5.2,1.3c8.5,0.9,20.1,7.6,27.6,11.8
	c2.7,1.2,6.5,3.6,9.4,3.7c11,6.9,20.1,20,26.7,31c0.6,1,5.5,9.8,5.7,9.8c4.7,9.5,8.5,18.8,11.9,28.8c1.8,5.3,3.9,10.8,4.7,16.4
	c-0.9,0.6-1.6,1-2.6,1.4c-12.6-0.4-25.1,1.8-37.7,3.2c-4.2,0.5-8.6,1.4-12.8,1.3l-26.8,3.7c-1.3,13.6-4.2,27.3-7.5,40.6
	c-1.1,4.4-2,10.1-4.1,14c-1.5,6.4-4.1,12.5-6.6,18.6l-9.3-7.8c-5.8-4.1-11.8-8-18.3-10.9c-12.3-5.5-25.7-8.4-38.5-12.4
	c-2.2-0.5-3.9-1-5.8-2.1c-19.4-5.9-37.9-15.3-56-24.3c-5-2.5-11.3-4.9-15.7-8.2c-1.5-1.1-1.8-1.5-1.8-3.4c0-3.2,1.4-7,2.2-10.1
	c2.7-10.7,7.2-25,4.7-35.9c-0.5-2-1.7-2.9-3.4-3.9c-1.7-0.1-2.9-0.1-4.5,0.6c-7,3.1-11.8,15.8-14.9,22.3c-2.1-0.9-4.9-5.7-6.6-7.6
	c-2.6-2.9-5.7-5.5-8.6-8c0.1-5.2,0.5-10.1,1.5-15.1C742.3,864.3,756.8,842.2,778.3,828.2z"/>
<path class="st11" d="M824.7,819.5c1.7,0.7,3.1,1.2,4.6,2.3c13.9,5.4,28.4,9.1,43.2,11.1c14.9,2,32.4,1,46.5-4l-0.1,1.6l5.2,1.3
	c-0.2,3.5-0.9,7-2.1,10.3c-3.7,10.3-12.3,19.2-22.1,23.8c-14.5,6.9-33.8,8-48.8,2.4c-11-4.1-19.6-12.1-24.4-22.9
	C823.3,837.7,821.6,827.6,824.7,819.5z"/>
<path class="st12" d="M829.3,821.8c13.9,5.4,28.4,9.1,43.2,11.1c14.9,2,32.4,1,46.5-4l-0.1,1.6c-1.1,0.2-1.9,0.4-2.9,0.8l-1.8,4.5
	c-1.9,3.5-3.8,5.1-7.7,6.2c-5.5,1.7-11.8,1.9-17.6,1.6c-16.2-0.7-35.5-5-49.8-13C835.8,828.8,830.4,825.7,829.3,821.8z"/>
<path class="st5" d="M840.1,983.1l-0.4-0.6c-2.8-3.9-8.4-7.4-12-10.9c-14.4-14.2-27.9-34.1-26-55.3c0.5-5.6,3.3-10.3,7.6-13.8
	c5.2-4.2,12.5-5.3,19-4.4c8.5,1.2,17.3,8.3,22.2,15.2c1.7,2.5,3.1,7.3,5.1,9.1c5.6-5.7,12.8-9.9,21-10.3c6.5-0.3,14.3,2.5,19,7
	c5.5,5.2,7.3,11.5,7.3,18.9c0,9.9-3.8,17.9-10.8,24.8c-9.7,9.6-21.8,15.2-34.8,18.8c-3.6,1-8.3,1.4-11.4,3.6
	C843.8,984.7,842.1,984.2,840.1,983.1z"/>
<path class="st18" d="M585.1,566.1l1.6-0.7l5.6,3.3c24,11.8,50.5,13.8,75.9,5.5c8.2-2.7,15.9-6.7,24-9.4c1.1,32.9,6.3,71,31.8,94.7
	c4.3,4,9.3,6.4,14.5,8.9c2,2.3,1.9,4.9,2.1,7.8c-4.2,1.2-5.6,2.1-7.9,6.1c-3.6,6.4-5.2,13.7-2.9,20.8c2.3,7,8.5,12.2,14.1,16.7
	c0.6,0.5,1,1,1.5,1.7c3,1,8.7,2.1,10.8,4.1l4,18.3c-5.5,3.4-6.2,11-11.2,15.1c2.3,11.7,6.4,23,10.7,34c4.9,12.4,10.3,24.6,18.5,35.3
	c-21.5,13.9-36,36-41.2,61.1c-1.1,5.1-1.4,10-1.5,15.1c-6-7.1-16.2-25.2-26.4-25.2c-3,0-5,1.2-7,3.4c-2.8,3.1-3.5,7.6-3.2,11.7
	c0.4,6.3,6.9,14.5,10.1,19.9c-6.4-3.8-14.1-8.4-21.9-6.1c-3.5,1.1-6.6,4.9-8,8.1c-2.1,4.9-2.6,10.4-0.3,15.4
	c7.6,17,27.9,30.4,45.1,36.4c2.5,0.9,5.4,1.5,7.7,2.8c4.1,2.5,7.6,8.5,10.1,12.5l-0.8,1c-8.1,3.2-17.5,4.8-26,6.1
	c-11.8,1.9-24.7,3.8-36.7,1.7l-1-0.2c-13.1-2.3-20.6-8-29.7-17.1c-18.8,13.7-46,20.5-68.8,23c-28.5,3.1-59.8-1-85.7-13.4
	c-14.9-7.2-29.6-17.7-42.5-28.1c-1.8-2.8-3.1-5.7-4.2-8.9c-5.1-14.3-9.4-29-11.1-44.2c-4.4-41.2,6.6-79.8,21.3-117.7
	c12-31,26.5-60.8,40.8-90.8l-3.6-10.5c11.9-2.2,23.9-9,35-13.9c6.6-2.9,15.4-5.6,20.8-10.4C577.8,635.2,583.2,601.9,585.1,566.1z"/>
<path class="st11" d="M585.1,566.1l1.6-0.7l5.6,3.3c24,11.8,50.5,13.8,75.9,5.5c8.2-2.7,15.9-6.7,24-9.4c1.1,32.9,6.3,71,31.8,94.7
	c4.3,4,9.3,6.4,14.5,8.9c2,2.3,1.9,4.9,2.1,7.8c-4.2,1.2-5.6,2.1-7.9,6.1c-3.6,6.4-5.2,13.7-2.9,20.8c2.3,7,8.5,12.2,14.1,16.7
	c0.6,0.5,1,1,1.5,1.7c3,1,8.7,2.1,10.8,4.1l4,18.3c-5.5,3.4-6.2,11-11.2,15.1l-5.5,8.7c-21.6,31.1-49.3,59.7-87.8,67.4
	c-20.8,4.1-41.2,0.6-60.1-8.5c-50.6-24.2-80.7-80.9-98.5-131.6l-3.6-10.5c11.9-2.2,23.9-9,35-13.9c6.6-2.9,15.4-5.6,20.8-10.4
	C577.8,635.2,583.2,601.9,585.1,566.1z"/>
<path class="st19" d="M745.4,721.5c3,1,8.7,2.1,10.8,4.1l4,18.3c-5.5,3.4-6.2,11-11.2,15.1L745.4,721.5z"/>
</svg>
