<svg width="418" height="239" viewBox="0 0 418 239" fill="none" xmlns="http://www.w3.org/2000/svg">
    <g filter="url(#filter0_d_341_3982)">
    <rect x="36.0791" y="96.5393" width="346.152" height="138.461" rx="30" fill="#FFF5D1"/>
    </g>
    <g filter="url(#filter1_d_341_3982)">
    <path d="M25.7573 79.2246C16.5178 63.8763 11.8981 56.2022 13.9926 51.5997C16.087 46.9972 23.4825 45.8848 38.2734 43.6601L68.6379 39.0928C77.9611 37.6905 82.6227 36.9893 86.112 39.4219C89.6012 41.8546 90.5555 46.471 92.4639 55.704L100.572 94.9308C102.481 104.164 103.435 108.78 101.132 112.084C98.828 115.388 94.1664 116.089 84.8432 117.492L54.7264 122.022C39.9358 124.246 32.5405 125.359 28.7334 121.692C24.9264 118.026 26.0989 109.362 28.4438 92.0355C28.8301 89.1816 28.8582 86.6877 28.3626 84.8272C27.9352 83.2231 27.0148 81.3135 25.7573 79.2246Z" fill="url(#paint0_linear_341_3982)"/>
    </g>
    <g filter="url(#filter2_d_341_3982)">
    <path d="M392.202 79.2246C401.441 63.8763 406.061 56.2022 403.966 51.5997C401.872 46.9972 394.477 45.8848 379.686 43.6601L349.321 39.0928C339.998 37.6905 335.336 36.9893 331.847 39.4219C328.358 41.8546 327.404 46.471 325.495 55.704L317.387 94.9308C315.478 104.164 314.524 108.78 316.827 112.084C319.131 115.388 323.793 116.089 333.116 117.492L363.233 122.022C378.023 124.246 385.419 125.359 389.226 121.692C393.033 118.026 391.86 109.362 389.515 92.0355C389.129 89.1816 389.101 86.6877 389.596 84.8272C390.024 83.2231 390.944 81.3135 392.202 79.2246Z" fill="url(#paint1_linear_341_3982)"/>
    </g>
    <g filter="url(#filter3_d_341_3982)">
    <path d="M53.1094 56.1389C53.1094 40.2542 53.1094 32.3118 58.149 26.6317C63.1886 20.9517 70.7664 20.0429 85.9219 18.2255C113.219 14.952 156.022 11.1868 208.499 11.1868C260.975 11.1868 303.778 14.952 331.076 18.2255C346.231 20.043 353.809 20.9517 358.848 26.6318C363.888 32.3118 363.888 40.2542 363.888 56.1389V68.2731C363.888 88.4227 363.888 98.4975 357.574 104.423C351.261 110.348 341.154 109.706 320.941 108.421C285.781 106.186 237.303 103.484 208.499 103.484C179.694 103.484 131.216 106.186 96.056 108.421C75.8432 109.706 65.7368 110.348 59.4231 104.423C53.1094 98.4975 53.1094 88.4227 53.1094 68.2731V56.1389Z" fill="url(#paint2_linear_341_3982)"/>
    </g>
    <g filter="url(#filter4_d_341_3982)">
    <path d="M198.505 25.4498C202.584 14.7396 204.624 9.38449 208.198 9.38449C211.773 9.38449 213.812 14.7396 217.892 25.4498L219.727 30.2673C220.958 33.4999 221.574 35.1161 222.903 36.0321C224.232 36.9481 225.962 36.9481 229.421 36.9481H232.715C246.335 36.9481 253.145 36.9481 254.432 40.2505C254.551 40.5547 254.641 40.8694 254.7 41.1905C255.345 44.6758 249.557 48.2633 237.98 55.4382V55.4382C234.758 57.435 233.148 58.4333 232.516 60.0308C232.452 60.1927 232.396 60.3577 232.349 60.5252C231.882 62.178 232.556 63.949 233.905 67.4912L234.122 68.0588C238.645 79.9348 240.907 85.8728 238.036 88.2415C235.166 90.6102 229.765 87.2628 218.963 80.5681L213.663 77.2829C211.004 75.6353 209.675 74.8115 208.198 74.8115C206.721 74.8115 205.392 75.6353 202.734 77.2829L197.433 80.5681C186.631 87.2628 181.23 90.6102 178.36 88.2415C175.49 85.8728 177.751 79.9348 182.275 68.0588L182.491 67.4912C183.84 63.949 184.515 62.178 184.047 60.5252C184 60.3577 183.944 60.1927 183.88 60.0308C183.249 58.4333 181.638 57.435 178.416 55.4382V55.4382C166.84 48.2633 161.051 44.6758 161.697 41.1905C161.756 40.8694 161.846 40.5547 161.964 40.2505C163.252 36.9481 170.062 36.9481 183.682 36.9481H186.976C190.435 36.9481 192.165 36.9481 193.494 36.0321C194.823 35.1161 195.438 33.4999 196.67 30.2673L198.505 25.4498Z" fill="url(#paint3_linear_341_3982)"/>
    </g>
    <g filter="url(#filter5_d_341_3982)">
    <path d="M285.15 50.0251C289.446 43.1318 291.595 39.6851 294.044 40.0535C296.493 40.4218 297.13 44.2875 298.404 52.0187L298.677 53.6758C299.04 55.8798 299.221 56.9819 299.937 57.7239C299.986 57.7741 300.036 57.8228 300.087 57.87C300.849 58.5662 301.974 58.7354 304.224 59.0738L306.001 59.341C313.984 60.5418 317.976 61.1423 318.643 63.0316C318.838 63.584 318.886 64.1827 318.782 64.7729C318.427 66.7916 314.609 68.3798 306.975 71.5562V71.5562C304.843 72.4431 303.777 72.8865 303.148 73.7125C302.951 73.9706 302.789 74.2516 302.666 74.548C302.272 75.4963 302.454 76.6038 302.819 78.8187V78.8187C304.071 86.4209 304.698 90.222 302.9 91.5906C302.62 91.8042 302.312 91.9786 301.985 92.1085C299.892 92.9407 297.069 90.4467 291.422 85.4586L288.979 83.3005C287.386 81.8933 286.589 81.1897 285.572 81.0368C284.556 80.8839 283.525 81.3126 281.464 82.1702L278.303 83.4854C270.997 86.5251 267.344 88.045 265.711 86.6523C265.456 86.4349 265.236 86.1811 265.058 85.8985C263.918 84.0882 266.03 80.699 270.255 73.9206V73.9206C271.486 71.9458 272.102 70.9583 272.111 69.9521C272.114 69.6377 272.075 69.3264 271.993 69.0264C271.733 68.0666 270.909 67.3389 269.262 65.8836V65.8836C263.361 60.6713 260.411 58.0652 260.886 56.0645C261.025 55.4796 261.31 54.9309 261.715 54.4688C263.099 52.888 267.091 53.4884 275.075 54.6893L276.851 54.9565C279.101 55.2949 280.226 55.4641 281.222 55.0323C281.289 55.0031 281.356 54.9719 281.421 54.9388C282.391 54.4504 283.004 53.4678 284.229 51.5026L285.15 50.0251Z" fill="url(#paint4_linear_341_3982)"/>
    </g>
    <g filter="url(#filter6_d_341_3982)">
    <path d="M131.907 50.0251C127.611 43.1318 125.462 39.6851 123.013 40.0535C120.564 40.4218 119.927 44.2875 118.654 52.0187L118.381 53.6758C118.017 55.8798 117.836 56.9819 117.12 57.7239C117.072 57.7741 117.022 57.8228 116.97 57.87C116.208 58.5662 115.083 58.7354 112.833 59.0738L111.056 59.341C103.073 60.5418 99.0809 61.1423 98.4138 63.0316C98.2188 63.584 98.171 64.1827 98.2749 64.7729C98.6304 66.7916 102.448 68.3798 110.082 71.5562V71.5562C112.214 72.4431 113.28 72.8865 113.909 73.7125C114.106 73.9706 114.268 74.2516 114.391 74.548C114.786 75.4963 114.603 76.6038 114.238 78.8187V78.8187C112.986 86.4209 112.359 90.222 114.157 91.5906C114.437 91.8042 114.746 91.9786 115.072 92.1085C117.165 92.9407 119.989 90.4467 125.635 85.4586L128.078 83.3005C129.671 81.8933 130.468 81.1897 131.485 81.0368C132.501 80.8839 133.532 81.3126 135.593 82.1702L138.754 83.4854C146.06 86.5251 149.713 88.045 151.347 86.6523C151.601 86.4349 151.821 86.1811 151.999 85.8985C153.139 84.0882 151.027 80.699 146.802 73.9206V73.9206C145.571 71.9458 144.955 70.9583 144.946 69.9521C144.943 69.6377 144.982 69.3264 145.064 69.0264C145.324 68.0666 146.148 67.3389 147.795 65.8836V65.8836C153.696 60.6713 156.646 58.0652 156.171 56.0645C156.032 55.4796 155.747 54.9309 155.342 54.4688C153.958 52.888 149.966 53.4884 141.982 54.6893L140.206 54.9565C137.956 55.2949 136.831 55.4641 135.836 55.0323C135.768 55.0031 135.702 54.9719 135.636 54.9388C134.666 54.4504 134.053 53.4678 132.828 51.5026L131.907 50.0251Z" fill="url(#paint5_linear_341_3982)"/>
    </g>
    <g filter="url(#filter7_d_341_3982)">
    <rect x="95" y="179" width="235.075" height="41.5382" rx="20" fill="#FFDF6D"/>
    </g>
    <g filter="url(#filter8_d_341_3982)">
    <rect x="98.4443" y="181.077" width="228.187" height="34.6152" rx="17.3076" fill="#FFCF25"/>
    </g>
    <path d="M105.333 190.568C105.333 186.473 108.652 183.154 112.747 183.154H312.329C316.423 183.154 319.742 186.473 319.742 190.567V190.567C319.742 194.816 316.207 198.2 311.963 197.992C293.451 197.087 245.864 194.929 212.865 194.923C179.635 194.916 131.701 197.086 113.11 197.993C108.867 198.2 105.333 194.816 105.333 190.568V190.568Z" fill="#FFD84C"/>
    <path d="M117.938 184.719C119.587 186.283 118.149 189.442 115.683 191.122C113.218 192.803 109.106 193.426 107.457 191.862C105.808 190.299 106.818 187.432 109.712 185.459C112.606 183.487 116.289 183.155 117.938 184.719Z" fill="#FFE588"/>
    <path d="M146.248 212.584C145.544 212.584 144.872 212.464 144.232 212.224C143.592 212 143.016 211.72 142.504 211.384C141.992 211.048 141.352 210.6 140.584 210.04C139.832 209.496 139.216 209.072 138.736 208.768C138.272 208.464 137.792 208.24 137.296 208.096C136.624 208.208 136.04 208.264 135.544 208.264C132.952 208.264 131 207.448 129.688 205.816C128.392 204.184 127.744 201.96 127.744 199.144C127.744 197.304 128.08 195.688 128.752 194.296C129.44 192.904 130.4 191.832 131.632 191.08C132.864 190.328 134.28 189.952 135.88 189.952C138.536 189.952 140.52 190.736 141.832 192.304C143.144 193.856 143.8 196.032 143.8 198.832C143.8 200.816 143.4 202.552 142.6 204.04C141.816 205.512 140.728 206.616 139.336 207.352C139.96 207.432 140.568 207.6 141.16 207.856C141.768 208.112 142.504 208.464 143.368 208.912C144.312 209.392 145.096 209.752 145.72 209.992C146.36 210.248 146.984 210.376 147.592 210.376C148.024 210.376 148.384 210.344 148.672 210.28L148.984 211.36C148.632 211.792 148.232 212.104 147.784 212.296C147.352 212.488 146.84 212.584 146.248 212.584ZM135.736 206.8C137.032 206.8 138.048 206.12 138.784 204.76C139.52 203.384 139.888 201.408 139.888 198.832C139.888 196.336 139.536 194.48 138.832 193.264C138.128 192.032 137.112 191.416 135.784 191.416C134.472 191.416 133.448 192.064 132.712 193.36C131.976 194.656 131.608 196.576 131.608 199.12C131.608 201.632 131.968 203.544 132.688 204.856C133.408 206.152 134.424 206.8 135.736 206.8ZM145.347 204.256C145.347 202.8 146.075 201.704 147.531 200.968C149.003 200.232 150.899 199.856 153.219 199.84V199.288C153.219 198.632 153.147 198.12 153.003 197.752C152.875 197.384 152.627 197.112 152.259 196.936C151.907 196.744 151.387 196.648 150.699 196.648C149.915 196.648 149.211 196.752 148.587 196.96C147.963 197.152 147.315 197.408 146.643 197.728L145.899 196.192C146.139 195.984 146.539 195.736 147.099 195.448C147.675 195.16 148.355 194.912 149.139 194.704C149.923 194.48 150.731 194.368 151.563 194.368C152.795 194.368 153.755 194.528 154.443 194.848C155.147 195.168 155.651 195.68 155.955 196.384C156.259 197.088 156.411 198.032 156.411 199.216V206.56H157.707V207.904C157.387 207.984 156.931 208.064 156.339 208.144C155.747 208.224 155.227 208.264 154.779 208.264C154.235 208.264 153.867 208.184 153.675 208.024C153.499 207.864 153.411 207.536 153.411 207.04V206.392C152.979 206.872 152.419 207.304 151.731 207.688C151.043 208.072 150.267 208.264 149.403 208.264C148.667 208.264 147.987 208.112 147.363 207.808C146.755 207.488 146.267 207.032 145.899 206.44C145.531 205.832 145.347 205.104 145.347 204.256ZM150.939 206.272C151.275 206.272 151.659 206.176 152.091 205.984C152.523 205.776 152.899 205.528 153.219 205.24V201.304C151.779 201.304 150.699 201.552 149.979 202.048C149.275 202.528 148.923 203.152 148.923 203.92C148.923 204.688 149.099 205.272 149.451 205.672C149.819 206.072 150.315 206.272 150.939 206.272ZM161.341 213.976C161.053 213.976 160.741 213.952 160.405 213.904C160.085 213.856 159.853 213.8 159.709 213.736V211.168C159.821 211.232 160.045 211.296 160.381 211.36C160.717 211.424 161.021 211.456 161.293 211.456C162.093 211.456 162.749 211.192 163.261 210.664C163.789 210.136 164.277 209.248 164.725 208H163.429L158.917 196.36L157.837 196.048V194.656H164.437V196.048L162.685 196.336L164.821 202.984L165.685 205.816L166.429 202.984L168.397 196.336L166.885 196.048V194.656H172.093V196.048L170.917 196.336C170.037 199.024 169.165 201.616 168.301 204.112C167.437 206.608 166.933 208.008 166.789 208.312C166.277 209.656 165.789 210.728 165.325 211.528C164.861 212.328 164.309 212.936 163.669 213.352C163.029 213.768 162.253 213.976 161.341 213.976ZM176.995 208.216C175.987 208.216 175.243 207.984 174.763 207.52C174.283 207.056 174.043 206.32 174.043 205.312V196.504H172.483V195.256C172.611 195.208 172.843 195.128 173.179 195.016C173.515 194.888 173.771 194.784 173.947 194.704C174.219 194.496 174.451 194.136 174.643 193.624C174.787 193.288 175.051 192.456 175.435 191.128H177.355L177.451 194.656H181.123V196.504H177.475V203.248C177.475 204.144 177.499 204.776 177.547 205.144C177.595 205.512 177.699 205.752 177.859 205.864C178.019 205.96 178.299 206.008 178.699 206.008C179.099 206.008 179.515 205.968 179.947 205.888C180.379 205.792 180.739 205.68 181.027 205.552L181.483 206.896C181.035 207.232 180.379 207.536 179.515 207.808C178.651 208.08 177.811 208.216 176.995 208.216ZM182.496 204.256C182.496 202.8 183.224 201.704 184.68 200.968C186.152 200.232 188.048 199.856 190.368 199.84V199.288C190.368 198.632 190.296 198.12 190.152 197.752C190.024 197.384 189.776 197.112 189.408 196.936C189.056 196.744 188.536 196.648 187.848 196.648C187.064 196.648 186.36 196.752 185.736 196.96C185.112 197.152 184.464 197.408 183.792 197.728L183.048 196.192C183.288 195.984 183.688 195.736 184.248 195.448C184.824 195.16 185.504 194.912 186.288 194.704C187.072 194.48 187.88 194.368 188.712 194.368C189.944 194.368 190.904 194.528 191.592 194.848C192.296 195.168 192.8 195.68 193.104 196.384C193.408 197.088 193.56 198.032 193.56 199.216V206.56H194.856V207.904C194.536 207.984 194.08 208.064 193.488 208.144C192.896 208.224 192.376 208.264 191.928 208.264C191.384 208.264 191.016 208.184 190.824 208.024C190.648 207.864 190.56 207.536 190.56 207.04V206.392C190.128 206.872 189.568 207.304 188.88 207.688C188.192 208.072 187.416 208.264 186.552 208.264C185.816 208.264 185.136 208.112 184.512 207.808C183.904 207.488 183.416 207.032 183.048 206.44C182.68 205.832 182.496 205.104 182.496 204.256ZM188.088 206.272C188.424 206.272 188.808 206.176 189.24 205.984C189.672 205.776 190.048 205.528 190.368 205.24V201.304C188.928 201.304 187.848 201.552 187.128 202.048C186.424 202.528 186.072 203.152 186.072 203.92C186.072 204.688 186.248 205.272 186.6 205.672C186.968 206.072 187.464 206.272 188.088 206.272ZM202.049 201.352C202.049 199.848 202.345 198.568 202.937 197.512C203.545 196.456 204.353 195.664 205.361 195.136C206.369 194.592 207.465 194.32 208.649 194.32C210.665 194.32 212.217 194.944 213.305 196.192C214.409 197.424 214.961 199.104 214.961 201.232C214.961 202.752 214.657 204.048 214.049 205.12C213.457 206.176 212.657 206.968 211.649 207.496C210.657 208.008 209.561 208.264 208.361 208.264C206.361 208.264 204.809 207.648 203.705 206.416C202.601 205.168 202.049 203.48 202.049 201.352ZM208.553 206.704C210.361 206.704 211.265 204.96 211.265 201.472C211.265 199.648 211.049 198.264 210.617 197.32C210.185 196.36 209.481 195.88 208.505 195.88C206.649 195.88 205.721 197.624 205.721 201.112C205.721 202.936 205.945 204.328 206.393 205.288C206.857 206.232 207.577 206.704 208.553 206.704ZM221.079 198.232C220.599 198.232 220.151 198.048 219.735 197.68C219.335 197.296 219.015 196.8 218.775 196.192C218.551 195.584 218.439 194.936 218.439 194.248C218.439 193.192 218.623 192.2 218.991 191.272C219.375 190.328 219.839 189.528 220.383 188.872C220.943 188.216 221.471 187.76 221.967 187.504L222.807 188.272V188.608C222.439 188.944 222.071 189.512 221.703 190.312C221.335 191.112 221.151 192.016 221.151 193.024C221.151 193.424 221.215 193.76 221.343 194.032C221.487 194.288 221.695 194.584 221.967 194.92C222.207 195.208 222.391 195.48 222.519 195.736C222.647 195.976 222.711 196.264 222.711 196.6C222.711 197.08 222.551 197.472 222.23 197.776C221.927 198.08 221.543 198.232 221.079 198.232ZM228.536 213.976C228.248 213.976 227.936 213.952 227.6 213.904C227.28 213.856 227.048 213.8 226.904 213.736V211.168C227.016 211.232 227.24 211.296 227.576 211.36C227.912 211.424 228.216 211.456 228.488 211.456C229.288 211.456 229.944 211.192 230.456 210.664C230.984 210.136 231.472 209.248 231.92 208H230.624L226.112 196.36L225.032 196.048V194.656H231.632V196.048L229.88 196.336L232.016 202.984L232.88 205.816L233.624 202.984L235.592 196.336L234.08 196.048V194.656H239.288V196.048L238.112 196.336C237.232 199.024 236.36 201.616 235.496 204.112C234.632 206.608 234.128 208.008 233.984 208.312C233.472 209.656 232.984 210.728 232.52 211.528C232.056 212.328 231.504 212.936 230.864 213.352C230.224 213.768 229.448 213.976 228.536 213.976ZM241.502 196.936L239.966 196.504V194.848L243.95 194.344H244.022L244.622 194.824V195.76L244.598 196.336C245.158 195.808 245.886 195.352 246.782 194.968C247.678 194.584 248.582 194.392 249.494 194.392C250.47 194.392 251.23 194.576 251.774 194.944C252.334 195.296 252.734 195.856 252.974 196.624C253.214 197.392 253.334 198.432 253.334 199.744V206.368L254.798 206.56V208H248.606V206.56L249.902 206.368V199.744C249.902 198.912 249.846 198.264 249.734 197.8C249.622 197.32 249.414 196.976 249.11 196.768C248.822 196.544 248.406 196.432 247.862 196.432C246.95 196.432 245.974 196.824 244.934 197.608V206.344L246.374 206.56V208H240.11V206.56L241.502 206.344V196.936ZM256.23 204.256C256.23 202.8 256.958 201.704 258.414 200.968C259.886 200.232 261.782 199.856 264.102 199.84V199.288C264.102 198.632 264.03 198.12 263.886 197.752C263.758 197.384 263.51 197.112 263.142 196.936C262.79 196.744 262.27 196.648 261.582 196.648C260.798 196.648 260.094 196.752 259.47 196.96C258.846 197.152 258.198 197.408 257.526 197.728L256.782 196.192C257.022 195.984 257.422 195.736 257.982 195.448C258.558 195.16 259.238 194.912 260.022 194.704C260.806 194.48 261.614 194.368 262.446 194.368C263.678 194.368 264.638 194.528 265.326 194.848C266.03 195.168 266.534 195.68 266.838 196.384C267.142 197.088 267.294 198.032 267.294 199.216V206.56H268.59V207.904C268.27 207.984 267.814 208.064 267.222 208.144C266.63 208.224 266.11 208.264 265.662 208.264C265.118 208.264 264.75 208.184 264.558 208.024C264.382 207.864 264.294 207.536 264.294 207.04V206.392C263.862 206.872 263.302 207.304 262.614 207.688C261.926 208.072 261.15 208.264 260.286 208.264C259.55 208.264 258.87 208.112 258.246 207.808C257.638 207.488 257.15 207.032 256.782 206.44C256.414 205.832 256.23 205.104 256.23 204.256ZM261.822 206.272C262.158 206.272 262.542 206.176 262.974 205.984C263.406 205.776 263.782 205.528 264.102 205.24V201.304C262.662 201.304 261.582 201.552 260.862 202.048C260.158 202.528 259.806 203.152 259.806 203.92C259.806 204.688 259.982 205.272 260.334 205.672C260.702 206.072 261.198 206.272 261.822 206.272ZM272.752 206.032C272.88 206.224 273.168 206.408 273.616 206.584C274.08 206.744 274.544 206.824 275.008 206.824C275.76 206.824 276.32 206.672 276.688 206.368C277.072 206.048 277.264 205.632 277.264 205.12C277.264 204.592 277.032 204.168 276.568 203.848C276.104 203.512 275.32 203.104 274.216 202.624L273.544 202.336C272.44 201.872 271.616 201.312 271.072 200.656C270.528 200 270.256 199.152 270.256 198.112C270.256 197.392 270.472 196.752 270.904 196.192C271.336 195.616 271.944 195.168 272.728 194.848C273.512 194.528 274.416 194.368 275.44 194.368C276.192 194.368 276.832 194.416 277.36 194.512C277.904 194.608 278.472 194.736 279.064 194.896C279.384 195.008 279.624 195.072 279.784 195.088V198.232H277.888L277.336 196.408C277.24 196.248 277.024 196.104 276.688 195.976C276.352 195.848 275.968 195.784 275.536 195.784C274.88 195.784 274.352 195.928 273.952 196.216C273.568 196.488 273.376 196.872 273.376 197.368C273.376 197.816 273.512 198.192 273.784 198.496C274.056 198.784 274.352 199.008 274.672 199.168C274.992 199.328 275.584 199.592 276.448 199.96C277.312 200.328 278.024 200.68 278.584 201.016C279.16 201.352 279.632 201.792 280 202.336C280.384 202.864 280.576 203.512 280.576 204.28C280.576 205.464 280.112 206.424 279.184 207.16C278.256 207.896 276.92 208.264 275.176 208.264C274.36 208.264 273.624 208.192 272.968 208.048C272.328 207.904 271.584 207.712 270.736 207.472L270.208 207.304V204.136H272.2L272.752 206.032ZM283.661 190.456L281.837 190.144V188.848L286.301 188.32H286.373L286.997 188.776L287.021 194.128L286.853 196.216C287.349 195.768 288.021 195.352 288.869 194.968C289.733 194.584 290.637 194.392 291.581 194.392C292.589 194.392 293.373 194.584 293.933 194.968C294.493 195.336 294.885 195.904 295.109 196.672C295.333 197.44 295.445 198.464 295.445 199.744V206.344L296.981 206.56V208H290.669V206.56L292.061 206.344V199.744C292.061 198.912 292.005 198.264 291.893 197.8C291.781 197.336 291.573 196.992 291.269 196.768C290.981 196.544 290.549 196.432 289.973 196.432C289.477 196.432 288.965 196.552 288.437 196.792C287.925 197.016 287.469 197.288 287.069 197.608V206.344L288.533 206.56V208H282.317V206.56L283.661 206.368V190.456Z" fill="#FAFAFA"/>
    <path d="M111.992 161.847V132.756H123.64C125.78 132.756 127.565 133.073 128.995 133.708C130.425 134.342 131.499 135.223 132.219 136.35C132.939 137.467 133.299 138.755 133.299 140.213C133.299 141.35 133.071 142.349 132.617 143.211C132.162 144.063 131.537 144.764 130.742 145.313C129.956 145.853 129.056 146.236 128.043 146.463V146.747C129.151 146.795 130.188 147.107 131.154 147.685C132.129 148.263 132.92 149.072 133.526 150.114C134.132 151.146 134.435 152.377 134.435 153.807C134.435 155.351 134.051 156.729 133.284 157.941C132.527 159.143 131.405 160.095 129.918 160.796C128.431 161.497 126.599 161.847 124.421 161.847H111.992ZM118.142 156.819H123.157C124.871 156.819 126.121 156.492 126.907 155.838C127.693 155.176 128.086 154.295 128.086 153.196C128.086 152.391 127.891 151.681 127.503 151.066C127.115 150.45 126.561 149.967 125.841 149.617C125.131 149.266 124.283 149.091 123.299 149.091H118.142V156.819ZM118.142 144.929H122.702C123.545 144.929 124.293 144.783 124.946 144.489C125.609 144.186 126.13 143.76 126.509 143.211C126.897 142.661 127.091 142.003 127.091 141.236C127.091 140.185 126.717 139.337 125.969 138.694C125.23 138.05 124.179 137.728 122.816 137.728H118.142V144.929ZM144.545 162.259C143.153 162.259 141.912 162.017 140.823 161.534C139.734 161.042 138.873 160.318 138.238 159.361C137.613 158.395 137.301 157.193 137.301 155.753C137.301 154.541 137.523 153.523 137.968 152.699C138.413 151.875 139.019 151.212 139.787 150.711C140.554 150.209 141.425 149.83 142.4 149.574C143.385 149.319 144.417 149.139 145.497 149.034C146.766 148.902 147.788 148.779 148.565 148.665C149.341 148.542 149.905 148.362 150.255 148.125C150.606 147.889 150.781 147.538 150.781 147.074V146.989C150.781 146.089 150.497 145.393 149.929 144.901C149.37 144.408 148.574 144.162 147.542 144.162C146.453 144.162 145.587 144.404 144.943 144.887C144.299 145.36 143.873 145.957 143.664 146.676L138.068 146.222C138.352 144.896 138.911 143.75 139.744 142.784C140.577 141.809 141.652 141.061 142.968 140.54C144.294 140.01 145.828 139.745 147.571 139.745C148.783 139.745 149.943 139.887 151.051 140.171C152.168 140.455 153.158 140.895 154.019 141.492C154.891 142.088 155.577 142.855 156.079 143.793C156.581 144.721 156.832 145.834 156.832 147.131V161.847H151.093V158.821H150.923C150.573 159.503 150.104 160.104 149.517 160.625C148.93 161.137 148.224 161.539 147.4 161.833C146.576 162.117 145.625 162.259 144.545 162.259ZM146.278 158.083C147.168 158.083 147.954 157.908 148.636 157.557C149.318 157.197 149.853 156.714 150.241 156.108C150.629 155.502 150.823 154.816 150.823 154.049V151.733C150.634 151.856 150.374 151.97 150.042 152.074C149.72 152.169 149.356 152.259 148.948 152.344C148.541 152.42 148.134 152.491 147.727 152.557C147.32 152.614 146.95 152.666 146.619 152.713C145.909 152.818 145.288 152.983 144.758 153.211C144.228 153.438 143.816 153.746 143.522 154.134C143.229 154.513 143.082 154.986 143.082 155.554C143.082 156.378 143.38 157.008 143.977 157.444C144.583 157.87 145.35 158.083 146.278 158.083ZM161.527 161.847V140.029H167.393V143.836H167.62C168.018 142.481 168.686 141.459 169.623 140.767C170.561 140.067 171.64 139.716 172.862 139.716C173.165 139.716 173.492 139.735 173.842 139.773C174.192 139.811 174.5 139.863 174.765 139.929V145.299C174.481 145.213 174.088 145.138 173.586 145.071C173.084 145.005 172.625 144.972 172.208 144.972C171.318 144.972 170.523 145.166 169.822 145.554C169.131 145.933 168.582 146.463 168.174 147.145C167.777 147.827 167.578 148.613 167.578 149.503V161.847H161.527ZM183.49 162.259C182.098 162.259 180.858 162.017 179.769 161.534C178.68 161.042 177.818 160.318 177.184 159.361C176.559 158.395 176.246 157.193 176.246 155.753C176.246 154.541 176.469 153.523 176.914 152.699C177.359 151.875 177.965 151.212 178.732 150.711C179.499 150.209 180.37 149.83 181.345 149.574C182.33 149.319 183.363 149.139 184.442 149.034C185.711 148.902 186.734 148.779 187.51 148.665C188.287 148.542 188.85 148.362 189.201 148.125C189.551 147.889 189.726 147.538 189.726 147.074V146.989C189.726 146.089 189.442 145.393 188.874 144.901C188.315 144.408 187.52 144.162 186.488 144.162C185.399 144.162 184.532 144.404 183.888 144.887C183.244 145.36 182.818 145.957 182.61 146.676L177.013 146.222C177.297 144.896 177.856 143.75 178.689 142.784C179.523 141.809 180.597 141.061 181.914 140.54C183.239 140.01 184.774 139.745 186.516 139.745C187.728 139.745 188.888 139.887 189.996 140.171C191.113 140.455 192.103 140.895 192.965 141.492C193.836 142.088 194.523 142.855 195.024 143.793C195.526 144.721 195.777 145.834 195.777 147.131V161.847H190.039V158.821H189.868C189.518 159.503 189.049 160.104 188.462 160.625C187.875 161.137 187.169 161.539 186.345 161.833C185.522 162.117 184.57 162.259 183.49 162.259ZM185.223 158.083C186.113 158.083 186.899 157.908 187.581 157.557C188.263 157.197 188.798 156.714 189.186 156.108C189.575 155.502 189.769 154.816 189.769 154.049V151.733C189.579 151.856 189.319 151.97 188.988 152.074C188.666 152.169 188.301 152.259 187.894 152.344C187.487 152.42 187.079 152.491 186.672 152.557C186.265 152.614 185.896 152.666 185.564 152.713C184.854 152.818 184.234 152.983 183.703 153.211C183.173 153.438 182.761 153.746 182.468 154.134C182.174 154.513 182.027 154.986 182.027 155.554C182.027 156.378 182.326 157.008 182.922 157.444C183.528 157.87 184.295 158.083 185.223 158.083ZM205.955 155.569L205.969 148.31H206.85L213.838 140.029H220.784L211.395 150.995H209.961L205.955 155.569ZM200.472 161.847V132.756H206.523V161.847H200.472ZM214.108 161.847L207.688 152.344L211.722 148.069L221.196 161.847H214.108ZM229.975 162.259C228.583 162.259 227.342 162.017 226.253 161.534C225.164 161.042 224.302 160.318 223.668 159.361C223.043 158.395 222.73 157.193 222.73 155.753C222.73 154.541 222.953 153.523 223.398 152.699C223.843 151.875 224.449 151.212 225.216 150.711C225.983 150.209 226.854 149.83 227.83 149.574C228.815 149.319 229.847 149.139 230.926 149.034C232.195 148.902 233.218 148.779 233.995 148.665C234.771 148.542 235.335 148.362 235.685 148.125C236.035 147.889 236.211 147.538 236.211 147.074V146.989C236.211 146.089 235.926 145.393 235.358 144.901C234.8 144.408 234.004 144.162 232.972 144.162C231.883 144.162 231.016 144.404 230.372 144.887C229.729 145.36 229.302 145.957 229.094 146.676L223.497 146.222C223.782 144.896 224.34 143.75 225.174 142.784C226.007 141.809 227.082 141.061 228.398 140.54C229.724 140.01 231.258 139.745 233 139.745C234.212 139.745 235.372 139.887 236.48 140.171C237.598 140.455 238.587 140.895 239.449 141.492C240.32 142.088 241.007 142.855 241.509 143.793C242.011 144.721 242.262 145.834 242.262 147.131V161.847H236.523V158.821H236.353C236.002 159.503 235.533 160.104 234.946 160.625C234.359 161.137 233.654 161.539 232.83 161.833C232.006 162.117 231.054 162.259 229.975 162.259ZM231.708 158.083C232.598 158.083 233.384 157.908 234.066 157.557C234.747 157.197 235.283 156.714 235.671 156.108C236.059 155.502 236.253 154.816 236.253 154.049V151.733C236.064 151.856 235.803 151.97 235.472 152.074C235.15 152.169 234.785 152.259 234.378 152.344C233.971 152.42 233.564 152.491 233.157 152.557C232.749 152.614 232.38 152.666 232.049 152.713C231.338 152.818 230.718 152.983 230.188 153.211C229.658 153.438 229.246 153.746 228.952 154.134C228.658 154.513 228.512 154.986 228.512 155.554C228.512 156.378 228.81 157.008 229.407 157.444C230.013 157.87 230.78 158.083 231.708 158.083ZM253.007 132.756V161.847H246.956V132.756H253.007ZM263.906 132.756V161.847H257.855V132.756H263.906ZM274.975 162.259C273.583 162.259 272.342 162.017 271.253 161.534C270.164 161.042 269.302 160.318 268.668 159.361C268.043 158.395 267.73 157.193 267.73 155.753C267.73 154.541 267.953 153.523 268.398 152.699C268.843 151.875 269.449 151.212 270.216 150.711C270.983 150.209 271.854 149.83 272.83 149.574C273.815 149.319 274.847 149.139 275.926 149.034C277.195 148.902 278.218 148.779 278.995 148.665C279.771 148.542 280.335 148.362 280.685 148.125C281.035 147.889 281.211 147.538 281.211 147.074V146.989C281.211 146.089 280.926 145.393 280.358 144.901C279.8 144.408 279.004 144.162 277.972 144.162C276.883 144.162 276.016 144.404 275.372 144.887C274.729 145.36 274.302 145.957 274.094 146.676L268.497 146.222C268.782 144.896 269.34 143.75 270.174 142.784C271.007 141.809 272.082 141.061 273.398 140.54C274.724 140.01 276.258 139.745 278 139.745C279.212 139.745 280.372 139.887 281.48 140.171C282.598 140.455 283.587 140.895 284.449 141.492C285.32 142.088 286.007 142.855 286.509 143.793C287.011 144.721 287.262 145.834 287.262 147.131V161.847H281.523V158.821H281.353C281.002 159.503 280.533 160.104 279.946 160.625C279.359 161.137 278.654 161.539 277.83 161.833C277.006 162.117 276.054 162.259 274.975 162.259ZM276.708 158.083C277.598 158.083 278.384 157.908 279.066 157.557C279.747 157.197 280.283 156.714 280.671 156.108C281.059 155.502 281.253 154.816 281.253 154.049V151.733C281.064 151.856 280.803 151.97 280.472 152.074C280.15 152.169 279.785 152.259 279.378 152.344C278.971 152.42 278.564 152.491 278.157 152.557C277.749 152.614 277.38 152.666 277.049 152.713C276.338 152.818 275.718 152.983 275.188 153.211C274.658 153.438 274.246 153.746 273.952 154.134C273.658 154.513 273.512 154.986 273.512 155.554C273.512 156.378 273.81 157.008 274.407 157.444C275.013 157.87 275.78 158.083 276.708 158.083ZM299.186 132.756L298.632 153.125H293.434L292.865 132.756H299.186ZM296.033 162.216C295.095 162.216 294.291 161.885 293.618 161.222C292.946 160.55 292.614 159.745 292.624 158.807C292.614 157.879 292.946 157.084 293.618 156.421C294.291 155.758 295.095 155.426 296.033 155.426C296.933 155.426 297.723 155.758 298.405 156.421C299.087 157.084 299.433 157.879 299.442 158.807C299.433 159.432 299.267 160.005 298.945 160.526C298.632 161.037 298.22 161.449 297.709 161.762C297.198 162.065 296.639 162.216 296.033 162.216Z" fill="#FF3030"/>
    <defs>
    <filter id="filter0_d_341_3982" x="36.0791" y="96.5393" width="346.152" height="142.461" filterUnits="userSpaceOnUse" color-interpolation-filters="sRGB">
    <feFlood flood-opacity="0" result="BackgroundImageFix"/>
    <feColorMatrix in="SourceAlpha" type="matrix" values="0 0 0 0 0 0 0 0 0 0 0 0 0 0 0 0 0 0 127 0" result="hardAlpha"/>
    <feOffset dy="4"/>
    <feComposite in2="hardAlpha" operator="out"/>
    <feColorMatrix type="matrix" values="0 0 0 0 1 0 0 0 0 0.787333 0 0 0 0 0.468333 0 0 0 1 0"/>
    <feBlend mode="normal" in2="BackgroundImageFix" result="effect1_dropShadow_341_3982"/>
    <feBlend mode="normal" in="SourceGraphic" in2="effect1_dropShadow_341_3982" result="shape"/>
    </filter>
    <filter id="filter1_d_341_3982" x="13.4941" y="37.8159" width="88.9868" height="90.2598" filterUnits="userSpaceOnUse" color-interpolation-filters="sRGB">
    <feFlood flood-opacity="0" result="BackgroundImageFix"/>
    <feColorMatrix in="SourceAlpha" type="matrix" values="0 0 0 0 0 0 0 0 0 0 0 0 0 0 0 0 0 0 127 0" result="hardAlpha"/>
    <feOffset dy="4"/>
    <feComposite in2="hardAlpha" operator="out"/>
    <feColorMatrix type="matrix" values="0 0 0 0 0.886275 0 0 0 0 0.419608 0 0 0 0 0.117647 0 0 0 1 0"/>
    <feBlend mode="normal" in2="BackgroundImageFix" result="effect1_dropShadow_341_3982"/>
    <feBlend mode="normal" in="SourceGraphic" in2="effect1_dropShadow_341_3982" result="shape"/>
    </filter>
    <filter id="filter2_d_341_3982" x="315.478" y="37.8159" width="88.9868" height="90.2598" filterUnits="userSpaceOnUse" color-interpolation-filters="sRGB">
    <feFlood flood-opacity="0" result="BackgroundImageFix"/>
    <feColorMatrix in="SourceAlpha" type="matrix" values="0 0 0 0 0 0 0 0 0 0 0 0 0 0 0 0 0 0 127 0" result="hardAlpha"/>
    <feOffset dy="4"/>
    <feComposite in2="hardAlpha" operator="out"/>
    <feColorMatrix type="matrix" values="0 0 0 0 0.886275 0 0 0 0 0.419608 0 0 0 0 0.117647 0 0 0 1 0"/>
    <feBlend mode="normal" in2="BackgroundImageFix" result="effect1_dropShadow_341_3982"/>
    <feBlend mode="normal" in="SourceGraphic" in2="effect1_dropShadow_341_3982" result="shape"/>
    </filter>
    <filter id="filter3_d_341_3982" x="53.1094" y="11.1868" width="310.779" height="102.096" filterUnits="userSpaceOnUse" color-interpolation-filters="sRGB">
    <feFlood flood-opacity="0" result="BackgroundImageFix"/>
    <feColorMatrix in="SourceAlpha" type="matrix" values="0 0 0 0 0 0 0 0 0 0 0 0 0 0 0 0 0 0 127 0" result="hardAlpha"/>
    <feOffset dy="4"/>
    <feComposite in2="hardAlpha" operator="out"/>
    <feColorMatrix type="matrix" values="0 0 0 0 0.886275 0 0 0 0 0.419608 0 0 0 0 0.117647 0 0 0 1 0"/>
    <feBlend mode="normal" in2="BackgroundImageFix" result="effect1_dropShadow_341_3982"/>
    <feBlend mode="normal" in="SourceGraphic" in2="effect1_dropShadow_341_3982" result="shape"/>
    </filter>
    <filter id="filter4_d_341_3982" x="161.648" y="9.38452" width="93.1006" height="83.6157" filterUnits="userSpaceOnUse" color-interpolation-filters="sRGB">
    <feFlood flood-opacity="0" result="BackgroundImageFix"/>
    <feColorMatrix in="SourceAlpha" type="matrix" values="0 0 0 0 0 0 0 0 0 0 0 0 0 0 0 0 0 0 127 0" result="hardAlpha"/>
    <feOffset dy="4"/>
    <feComposite in2="hardAlpha" operator="out"/>
    <feColorMatrix type="matrix" values="0 0 0 0 1 0 0 0 0 0.720277 0 0 0 0 0.000989556 0 0 0 1 0"/>
    <feBlend mode="normal" in2="BackgroundImageFix" result="effect1_dropShadow_341_3982"/>
    <feBlend mode="normal" in="SourceGraphic" in2="effect1_dropShadow_341_3982" result="shape"/>
    </filter>
    <filter id="filter5_d_341_3982" x="260.837" y="40.0269" width="57.999" height="56.2395" filterUnits="userSpaceOnUse" color-interpolation-filters="sRGB">
    <feFlood flood-opacity="0" result="BackgroundImageFix"/>
    <feColorMatrix in="SourceAlpha" type="matrix" values="0 0 0 0 0 0 0 0 0 0 0 0 0 0 0 0 0 0 127 0" result="hardAlpha"/>
    <feOffset dy="4"/>
    <feComposite in2="hardAlpha" operator="out"/>
    <feColorMatrix type="matrix" values="0 0 0 0 1 0 0 0 0 0.720277 0 0 0 0 0.000989556 0 0 0 1 0"/>
    <feBlend mode="normal" in2="BackgroundImageFix" result="effect1_dropShadow_341_3982"/>
    <feBlend mode="normal" in="SourceGraphic" in2="effect1_dropShadow_341_3982" result="shape"/>
    </filter>
    <filter id="filter6_d_341_3982" x="98.2212" y="40.0269" width="57.999" height="56.2395" filterUnits="userSpaceOnUse" color-interpolation-filters="sRGB">
    <feFlood flood-opacity="0" result="BackgroundImageFix"/>
    <feColorMatrix in="SourceAlpha" type="matrix" values="0 0 0 0 0 0 0 0 0 0 0 0 0 0 0 0 0 0 127 0" result="hardAlpha"/>
    <feOffset dy="4"/>
    <feComposite in2="hardAlpha" operator="out"/>
    <feColorMatrix type="matrix" values="0 0 0 0 1 0 0 0 0 0.720277 0 0 0 0 0.000989556 0 0 0 1 0"/>
    <feBlend mode="normal" in2="BackgroundImageFix" result="effect1_dropShadow_341_3982"/>
    <feBlend mode="normal" in="SourceGraphic" in2="effect1_dropShadow_341_3982" result="shape"/>
    </filter>
    <filter id="filter7_d_341_3982" x="95" y="179" width="235.075" height="45.5383" filterUnits="userSpaceOnUse" color-interpolation-filters="sRGB">
    <feFlood flood-opacity="0" result="BackgroundImageFix"/>
    <feColorMatrix in="SourceAlpha" type="matrix" values="0 0 0 0 0 0 0 0 0 0 0 0 0 0 0 0 0 0 127 0" result="hardAlpha"/>
    <feOffset dy="4"/>
    <feComposite in2="hardAlpha" operator="out"/>
    <feColorMatrix type="matrix" values="0 0 0 0 1 0 0 0 0 0.835982 0 0 0 0 0.251667 0 0 0 1 0"/>
    <feBlend mode="normal" in2="BackgroundImageFix" result="effect1_dropShadow_341_3982"/>
    <feBlend mode="normal" in="SourceGraphic" in2="effect1_dropShadow_341_3982" result="shape"/>
    </filter>
    <filter id="filter8_d_341_3982" x="98.4443" y="181.077" width="228.187" height="38.6152" filterUnits="userSpaceOnUse" color-interpolation-filters="sRGB">
    <feFlood flood-opacity="0" result="BackgroundImageFix"/>
    <feColorMatrix in="SourceAlpha" type="matrix" values="0 0 0 0 0 0 0 0 0 0 0 0 0 0 0 0 0 0 127 0" result="hardAlpha"/>
    <feOffset dy="4"/>
    <feComposite in2="hardAlpha" operator="out"/>
    <feColorMatrix type="matrix" values="0 0 0 0 0.929167 0 0 0 0 0.72458 0 0 0 0 0 0 0 0 1 0"/>
    <feBlend mode="normal" in2="BackgroundImageFix" result="effect1_dropShadow_341_3982"/>
    <feBlend mode="normal" in="SourceGraphic" in2="effect1_dropShadow_341_3982" result="shape"/>
    </filter>
    <linearGradient id="paint0_linear_341_3982" x1="32.9667" y1="-2.06909" x2="46.9233" y2="82.7105" gradientUnits="userSpaceOnUse">
    <stop stop-color="#FFCF25"/>
    <stop offset="1" stop-color="#FD8C43"/>
    </linearGradient>
    <linearGradient id="paint1_linear_341_3982" x1="384.992" y1="-2.06909" x2="371.036" y2="82.7105" gradientUnits="userSpaceOnUse">
    <stop stop-color="#FFCF25"/>
    <stop offset="1" stop-color="#FD8C43"/>
    </linearGradient>
    <linearGradient id="paint2_linear_341_3982" x1="208.499" y1="-40.8528" x2="208.499" y2="64.2083" gradientUnits="userSpaceOnUse">
    <stop stop-color="#FFCF25"/>
    <stop offset="1" stop-color="#FD8C43"/>
    </linearGradient>
    <linearGradient id="paint3_linear_341_3982" x1="208.198" y1="15.1689" x2="208.198" y2="75.8444" gradientUnits="userSpaceOnUse">
    <stop stop-color="#FFF2C2"/>
    <stop offset="1" stop-color="#FFCF25"/>
    </linearGradient>
    <linearGradient id="paint4_linear_341_3982" x1="293.388" y1="43.2269" x2="287.562" y2="81.958" gradientUnits="userSpaceOnUse">
    <stop stop-color="#FFF2C2"/>
    <stop offset="1" stop-color="#FFCF25"/>
    </linearGradient>
    <linearGradient id="paint5_linear_341_3982" x1="123.669" y1="43.2269" x2="129.495" y2="81.958" gradientUnits="userSpaceOnUse">
    <stop stop-color="#FFF2C2"/>
    <stop offset="1" stop-color="#FFCF25"/>
    </linearGradient>
    </defs>
    </svg>
    