<svg width="200" height="200" viewBox="0 0 200 200" fill="none" xmlns="http://www.w3.org/2000/svg">
<path d="M22.3804 130.717C23.3054 133.034 24.7074 134.859 26.5866 136.192" stroke="#8F848D" stroke-width="2"/>
<path d="M26.5861 136.192L26.2111 136.805C26.1027 136.976 26.0944 137.153 26.1861 137.336C32.0319 148.836 40.2215 158.305 50.7548 165.742C52.259 166.805 55.4111 168.749 60.2111 171.574" stroke="#EAF0F3" stroke-width="2"/>
<path d="M60.2109 171.574C60.5943 172.174 61.0818 172.578 61.6735 172.786" stroke="#FDDCA7" stroke-width="2"/>
<path d="M61.6733 172.786C62.1692 173.232 62.4483 173.674 62.5108 174.111C62.5358 174.311 62.6233 174.476 62.7733 174.605C82.9483 192.03 112.705 192.511 134.061 177.311C135.461 176.317 136.755 174.842 138.08 173.63C138.118 173.594 138.146 173.547 138.159 173.496C138.172 173.444 138.169 173.39 138.152 173.34C138.135 173.29 138.104 173.245 138.062 173.213C138.02 173.18 137.97 173.16 137.917 173.155C137.767 173.142 137.721 173.092 137.78 173.005" stroke="#EAF0F3" stroke-width="2"/>
<path d="M137.78 173.005L139.487 171.893" stroke="#FDD6A2" stroke-width="2"/>
<path d="M139.486 171.892C151.453 165.701 161.507 156.799 169.649 145.186C171.857 142.036 173.595 138.861 174.861 135.661C174.936 135.469 174.886 135.326 174.711 135.23C174.436 135.08 174.288 134.888 174.268 134.655" stroke="#EAF0F3" stroke-width="2"/>
<path d="M174.267 134.655C177.959 130.659 178.659 126.205 176.367 121.292C176.276 121.105 176.334 120.994 176.542 120.961C188.111 119.211 191.192 104.217 181.586 97.811C181.543 97.7832 181.508 97.7452 181.484 97.7005C181.46 97.6557 181.447 97.6057 181.447 97.5548C181.447 97.504 181.46 97.4539 181.484 97.4091C181.508 97.3644 181.543 97.3264 181.586 97.2985C189.298 92.186 188.323 80.8923 180.286 76.6798C180.086 76.5715 180.055 76.4298 180.192 76.2548C186.461 68.1985 181.461 58.411 171.305 57.686" stroke="#8F848D" stroke-width="2"/>
<path d="M171.305 57.6864C172.838 55.3531 173.351 52.8552 172.843 50.1927C171.443 42.8802 164.436 39.1677 157.18 40.7427C156.968 40.7885 156.849 40.701 156.824 40.4802C156.236 34.5927 153.374 30.201 148.236 27.3052" stroke="#968990" stroke-width="2"/>
<path d="M148.236 27.305C143.915 24.8508 139.576 24.7091 135.218 26.88C135.17 26.9034 135.119 26.9165 135.066 26.9183C135.013 26.9201 134.961 26.9106 134.913 26.8904C134.865 26.8701 134.822 26.8397 134.787 26.8012C134.752 26.7627 134.726 26.7171 134.711 26.6675C131.468 16.5925 119.674 13.7049 112.186 21.3612C112.032 21.5195 111.911 21.4966 111.824 21.2925C107.174 9.96121 92.4363 9.54245 86.6425 20.2674C86.5342 20.4716 86.3946 20.4966 86.2238 20.3424C78.2363 13.0612 65.705 16.4299 63.9863 27.5487C63.9771 27.6075 63.9541 27.6634 63.9191 27.7115C63.8841 27.7597 63.8381 27.7989 63.785 27.8257C63.7318 27.8526 63.673 27.8664 63.6135 27.8661C63.5539 27.8657 63.4953 27.8512 63.4425 27.8237C53.4925 22.5737 43.53 29.1987 43.305 40.3737C43.3009 40.6112 43.1863 40.6945 42.9613 40.6237C32.2238 37.2612 23.7863 46.8487 27.4425 57.2737C27.5259 57.5029 27.4446 57.6279 27.1988 57.6487C18.8925 58.3362 13.1238 67.305 18.1113 74.6737C18.403 75.1029 18.678 75.5487 18.9363 76.0112C18.9827 76.0969 18.9955 76.1966 18.9724 76.2904C18.9492 76.3842 18.8917 76.4653 18.8113 76.5174C11.055 81.6424 10.4613 91.4612 17.8613 97.4987C17.9009 97.5318 17.9326 97.5735 17.9539 97.6205C17.9753 97.6676 17.9857 97.7188 17.9845 97.7705C17.9833 97.8221 17.9705 97.8728 17.947 97.9188C17.9235 97.9648 17.8899 98.0049 17.8488 98.0362C8.78005 105.017 11.7175 118.567 23.08 120.855C23.305 120.901 23.3592 121.024 23.2425 121.224C21.4342 124.345 21.1467 127.509 22.38 130.717" stroke="#A09496" stroke-width="2"/>
<path d="M148.236 27.3052C147.982 27.4343 147.872 27.6531 147.905 27.9614C147.926 28.1614 148.028 28.3031 148.211 28.3864C148.494 28.5198 148.601 28.7448 148.53 29.0614C146.261 39.5739 136.817 48.6052 128.055 54.1989C118.136 60.5427 109.167 63.2239 99.1611 67.2489C92.7361 69.8302 90.0612 74.9802 82.6862 74.9864C82.5956 74.9863 82.5065 74.9637 82.4268 74.9209C82.347 74.878 82.279 74.8161 82.229 74.7406C82.1789 74.6652 82.1482 74.5786 82.1397 74.4884C82.1311 74.3983 82.1449 74.3074 82.1799 74.2239C82.2799 73.9906 82.4737 73.8323 82.7612 73.7489C82.898 73.7094 83.0206 73.6314 83.1144 73.5243C83.2083 73.4171 83.2693 73.2852 83.2904 73.1443C83.3115 73.0035 83.2916 72.8595 83.2333 72.7296C83.1749 72.5997 83.0805 72.4892 82.9612 72.4114L77.5236 68.8427C77.3412 68.724 77.1199 68.6811 76.9072 68.7232C76.6945 68.7653 76.5074 68.889 76.3861 69.0677C73.6299 73.0614 65.4049 79.9739 60.2174 76.2364C60.1549 76.1906 60.1049 76.2031 60.0674 76.2739L59.8486 76.6927" stroke="#382029" stroke-width="2"/>
<path d="M59.849 76.6926L59.4928 76.5926C59.3887 76.5659 59.2796 76.5668 59.1764 76.5954C59.0733 76.6239 58.9798 76.679 58.9053 76.7551C57.5261 78.1468 55.949 79.2509 54.174 80.0676C53.9574 80.1676 53.8448 80.3364 53.8365 80.5739C53.649 85.0614 52.2677 86.9176 50.2365 90.1301C48.874 92.2864 47.7678 95.1301 47.749 97.3426C47.7032 103.443 48.0115 109.453 48.674 115.374C48.7573 116.12 48.6282 116.157 48.2865 115.486C45.9615 110.882 44.1261 106.082 42.7803 101.086C42.6802 100.717 42.4478 100.398 42.1273 100.189C41.8069 99.9806 41.4208 99.8973 41.0428 99.9551L37.5303 100.499" stroke="#8B5949" stroke-width="2"/>
<path d="M37.5304 100.499C34.897 102.049 33.2575 104.586 32.6116 108.111C32.0241 111.361 33.7241 115.836 34.1179 119.099C34.8387 125.036 35.7262 130.874 36.7804 136.611C36.8036 136.738 36.8007 136.869 36.7719 136.995C36.7431 137.121 36.689 137.24 36.6129 137.344C36.5368 137.448 36.4404 137.536 36.3295 137.601C36.2185 137.666 36.0955 137.708 35.9679 137.724C32.0512 138.215 28.7387 137.311 26.0303 135.011C24.9991 134.142 24.9054 132.911 24.0179 132.03C23.5137 131.53 22.9679 131.092 22.3804 130.717" stroke="#311B26" stroke-width="2"/>
<path d="M171.306 57.686C167.506 65.4569 163.71 71.8923 159.918 76.9923C158.337 79.1235 159.006 79.2798 159.012 81.4548C159.041 87.0048 158.743 92.5402 158.118 98.0611C158.031 98.8423 157.699 99.3735 157.587 100.149" stroke="#271020" stroke-width="2"/>
<path d="M157.586 100.148C157.565 100.207 157.511 100.271 157.424 100.342C157.307 100.43 157.238 100.546 157.218 100.692C156.468 105.717 154.911 110.461 152.549 114.923" stroke="#5D2C2C" stroke-width="2"/>
<path d="M152.549 114.924C152.617 105.849 155.024 96.43 150.086 89.53C147.911 86.4987 146.53 83.9987 146.467 80.155C146.463 79.8925 146.33 79.7716 146.067 79.7925C141.034 80.1633 136.913 78.4737 133.705 74.7237C133.547 74.5404 133.388 74.5362 133.23 74.7112C128.799 79.5612 120.061 80.6987 115.786 74.8675C115.665 74.7008 115.53 74.6904 115.38 74.8362C110.78 79.2945 105.655 80.2008 100.005 77.555" stroke="#733E37" stroke-width="2"/>
<path d="M100.005 77.5553L96.7174 74.574C96.684 74.5438 96.6445 74.521 96.6016 74.507C96.5586 74.493 96.513 74.4883 96.4678 74.493C96.4225 74.4977 96.3786 74.5118 96.3387 74.5343C96.2988 74.5569 96.2639 74.5874 96.2362 74.624C91.0924 81.5365 82.6611 81.074 77.3486 74.8053C77.3203 74.7718 77.2852 74.7447 77.2455 74.726C77.2059 74.7073 77.1627 74.6973 77.1188 74.6967C77.075 74.6961 77.0315 74.7049 76.9913 74.7226C76.9512 74.7402 76.9153 74.7663 76.8861 74.799C71.7861 80.6032 66.107 81.2344 59.8486 76.6928" stroke="#78443B" stroke-width="2"/>
<path d="M100.005 77.5547C99.4839 77.7755 99.086 78.1505 98.811 78.6797" stroke="#BD6D4F" stroke-width="2"/>
<path d="M98.8112 78.6799C98.1279 77.9924 97.3342 77.7007 96.43 77.8049C96.2209 77.8292 96.0288 77.932 95.8925 78.0924C94.4217 79.8007 92.6675 81.0466 90.63 81.8299C88.28 82.7361 82.9362 82.7299 80.4425 81.9986C77.3175 81.082 74.2217 81.307 71.155 82.6736C70.9467 82.7653 70.7425 82.7611 70.5425 82.6611C69.3488 82.0674 68.3112 82.3236 67.255 82.0174C64.1612 81.1049 61.7987 80.3174 59.7675 77.9799C59.7021 77.9048 59.6565 77.8147 59.6347 77.7176C59.6129 77.6205 59.6156 77.5195 59.6425 77.4236L59.8487 76.6924" stroke="#CB7D5B" stroke-width="2"/>
<path d="M85.2859 151.542C84.9984 152.213 84.6089 152.676 84.1172 152.93" stroke="#6C3934" stroke-width="2"/>
<path d="M84.1173 152.93L79.7485 154.136" stroke="#8F6A3B" stroke-width="2"/>
<path d="M79.7492 154.136C75.8951 155.224 72.4513 156.705 69.418 158.58" stroke="#8F6337" stroke-width="2"/>
<path d="M69.4177 158.58C67.1802 157.48 65.8573 155.949 65.4489 153.986C65.4371 153.926 65.41 153.871 65.3701 153.825C65.3303 153.779 65.2791 153.744 65.2216 153.724C65.1642 153.704 65.1025 153.699 65.0426 153.71C64.9827 153.721 64.9268 153.747 64.8802 153.786C59.2052 158.499 51.1677 155.536 50.5864 147.93C50.5698 147.722 50.4635 147.659 50.2677 147.742C44.6302 150.138 40.451 148.917 37.7302 144.08C36.8489 142.517 36.8802 140.38 36.7802 138.592C36.7718 138.376 36.6594 138.286 36.4427 138.324C32.8344 138.944 29.5489 138.234 26.5864 136.192" stroke="#7C7783" stroke-width="2"/>
<path d="M104.205 81.4302L103.511 116.424" stroke="#CB7D5B" stroke-width="2"/>
<path d="M103.511 116.424C97.7865 115.292 90.9739 121.617 98.6739 126.161" stroke="#C67757" stroke-width="2"/>
<path d="M98.6738 126.161C99.753 126.532 100.688 127.14 101.48 127.986C102.368 128.924 105.705 132.211 107.899 132.324C108.111 132.336 108.134 132.407 107.968 132.536C107.613 132.819 107.557 133.136 107.799 133.486" stroke="#CB7D5B" stroke-width="2"/>
<path d="M107.799 133.487C100.711 134.162 92.4677 134.155 85.7739 131.562" stroke="#E9C2B0" stroke-width="2"/>
<path d="M85.7738 131.561C85.5654 130.77 85.0696 130.332 84.2863 130.249C84.1284 130.232 83.9688 130.252 83.82 130.308C83.6712 130.363 83.5371 130.452 83.4282 130.567C83.3193 130.683 83.2386 130.822 83.1923 130.974C83.146 131.125 83.1354 131.286 83.1613 131.443C83.9113 135.905 88.205 139.236 92.1612 140.724C97.8404 142.857 103.54 142.909 109.261 140.88" stroke="#8F5242" stroke-width="2"/>
<path d="M109.262 140.88C110.066 143.597 111.547 145.99 113.705 148.061C113.86 148.211 113.953 148.39 113.987 148.599C114.12 149.515 113.947 150.367 113.468 151.155C113.368 151.322 113.222 151.426 113.03 151.467C112.764 151.526 112.612 151.684 112.574 151.942" stroke="#CB7D5B" stroke-width="2"/>
<path d="M112.574 151.942C103.869 152.884 95.157 152.77 86.4361 151.599C86.2278 151.57 86.0216 151.588 85.8174 151.655C85.4716 151.763 85.2945 151.726 85.2861 151.542" stroke="#C67757" stroke-width="2"/>
<path d="M85.2866 151.542C69.9678 147.711 54.3179 141.699 49.0241 125.017C48.9533 124.796 48.9533 124.578 49.0241 124.361L49.1304 124.049C49.2137 123.794 49.1241 123.688 48.8616 123.73C39.5116 125.186 32.8554 117.917 33.3866 108.917C33.5824 105.634 34.9637 102.828 37.5304 100.499" stroke="#7A4940" stroke-width="2"/>
<path d="M152.549 114.924L151.318 123.749" stroke="#A25640" stroke-width="2"/>
<path d="M117.012 151.711C116.824 151.344 116.737 150.986 116.749 150.636C116.753 150.419 116.855 150.269 117.055 150.186C122.943 147.717 128.612 142.811 129.512 136.117C129.624 135.296 129.533 133.938 129.237 132.042C128.616 128.026 129.278 124.207 131.224 120.586C131.812 119.486 132.987 118.292 133.58 116.836C133.689 116.569 133.605 116.476 133.33 116.555C132.814 116.701 132.441 116.59 132.212 116.223C132.108 116.053 131.955 115.973 131.755 115.986C131.501 116.003 131.266 115.963 131.049 115.867" stroke="#BD6D4F" stroke-width="2"/>
<path d="M131.049 115.867C133.62 114.226 135.149 111.555 135.636 107.855" stroke="#A25640" stroke-width="2"/>
<path d="M135.636 107.855C136.644 108.976 137.513 109.578 138.242 109.661C138.526 109.695 138.636 109.572 138.574 109.292C137.499 104.351 134.557 100.924 129.749 99.0112" stroke="#63372B" stroke-width="2"/>
<path d="M129.749 99.0111L130.224 96.3736C130.261 96.1653 130.226 95.9695 130.117 95.7861C128.788 93.4861 129.057 91.5174 130.924 89.8799" stroke="#BD6D4F" stroke-width="2"/>
<path d="M130.924 89.88C133.428 90.8966 135.759 92.2904 137.917 94.0612C137.986 94.1156 138.07 94.1461 138.157 94.1482C138.244 94.1504 138.33 94.1239 138.4 94.073C138.471 94.022 138.523 93.9493 138.549 93.866C138.575 93.7826 138.572 93.6931 138.542 93.6112C136.817 89.1862 133.786 85.83 129.449 83.5425" stroke="#733E37" stroke-width="2"/>
<path d="M129.449 83.5424L126.436 81.1987C126.307 81.0987 126.161 81.0549 125.999 81.0674L125.555 81.0987C125.342 81.1189 125.128 81.0587 124.955 80.9299C124.051 80.2633 123.118 80.1799 122.155 80.6799C121.947 80.7883 121.726 80.8195 121.493 80.7737C120.218 80.5278 118.984 80.1383 117.793 79.6049C116.949 79.2299 115.918 77.8237 114.818 78.5049C111.23 80.7091 107.693 81.6841 104.205 81.4299" stroke="#BD6D4F" stroke-width="2"/>
<path d="M104.205 81.4297C102.33 80.8214 100.532 79.9047 98.811 78.6797" stroke="#C67757" stroke-width="2"/>
<path d="M174.267 134.655C171.338 137.388 167.882 138.653 163.899 138.449C163.69 138.436 163.578 138.536 163.561 138.749C163.405 140.53 163.449 142.436 162.686 143.98C160.217 148.992 154.142 150.292 149.392 147.524C149.151 147.382 149.021 147.451 149.005 147.73C148.536 155.311 141.142 158.286 135.161 154.13C135.121 154.102 135.075 154.082 135.027 154.072C134.979 154.061 134.929 154.061 134.881 154.07C134.832 154.08 134.786 154.099 134.745 154.126C134.704 154.153 134.669 154.189 134.642 154.23C133.249 156.349 132.636 157.667 129.749 158.905" stroke="#7C7783" stroke-width="2"/>
<path d="M129.749 158.905C127.82 157.709 125.997 156.732 124.281 155.974C122.472 155.178 120.085 154.399 117.118 153.636" stroke="#8E5D32" stroke-width="2"/>
<path d="M117.117 153.636L113.392 152.524" stroke="#8F6A3B" stroke-width="2"/>
<path d="M113.393 152.524C113.118 152.278 113.013 152.136 113.08 152.099" stroke="#6C3934" stroke-width="2"/>
<path d="M113.08 152.098L117.011 151.711" stroke="#713F38" stroke-width="2"/>
<path d="M117.012 151.712C132.437 148.899 147.874 140.305 151.318 123.749" stroke="#6C3934" stroke-width="2"/>
<path d="M151.318 123.749C163.624 126.636 172.18 110.711 163.818 101.949C162.049 100.105 160.012 99.6237 157.587 100.149" stroke="#562829" stroke-width="2"/>
<path d="M117.118 153.636C116.63 164.511 113.855 172.386 101.799 174.455" stroke="#FDBC4F" stroke-width="2"/>
<path d="M101.799 174.455C93.6298 175.811 85.161 171.061 82.4235 163.28C82.411 163.242 82.0777 161.695 81.4235 158.636C81.0735 157.007 80.5152 155.507 79.7485 154.136" stroke="#FEC154" stroke-width="2"/>
<path d="M69.4172 158.58C64.838 162.13 61.7693 166.461 60.2109 171.574" stroke="#EACF9C" stroke-width="2"/>
<path d="M113.392 152.524C113.111 152.43 112.986 152.561 112.992 152.836C113.273 173.217 85.6609 174.536 84.1172 152.93" stroke="#DB9852" stroke-width="2"/>
<path d="M98.5608 183.049C85.5358 182.986 72.8796 179.399 61.6733 172.786" stroke="#EACF9C" stroke-width="2"/>
<path d="M129.449 83.5429C125.893 82.6491 118.856 81.5241 116.743 85.4804C116.65 85.6499 116.619 85.8467 116.656 86.0366C116.91 87.4491 117.699 88.2429 119.024 88.4179C122.418 88.8679 126.868 88.2554 130.924 89.8804" stroke="#78443B" stroke-width="2"/>
<path d="M129.749 99.0114C124.33 97.8364 118.23 100.043 117.93 106.38C117.909 106.772 118.251 106.843 118.955 106.593" stroke="#683D2F" stroke-width="2"/>
<path d="M118.955 106.592C118.422 111.738 120.147 115.074 124.13 116.599C126.418 117.474 128.955 116.992 131.049 115.867" stroke="#A75C44" stroke-width="2"/>
<path d="M113.08 152.099L112.574 151.942" stroke="#BD6D4F" stroke-width="2"/>
<path d="M109.262 140.88C113.268 139.299 117.362 136.23 118.462 131.861C118.514 131.655 118.502 131.439 118.429 131.239C118.356 131.04 118.225 130.867 118.052 130.744C117.879 130.62 117.673 130.552 117.461 130.547C117.249 130.542 117.04 130.602 116.862 130.718C116.433 130.993 116.026 131.422 115.643 132.005" stroke="#86483B" stroke-width="2"/>
<path d="M115.643 132.005C112.997 132.901 110.383 133.394 107.799 133.486" stroke="#E0B8A8" stroke-width="2"/>
<path d="M98.6738 126.161C98.8447 125.936 98.9551 125.888 99.0051 126.017" stroke="#BD6D4F" stroke-width="2"/>
<path d="M99.0049 126.017C101.263 126.613 103.699 126.261 106.311 124.961C107.532 124.349 108.126 123.455 108.092 122.28" stroke="#DA8A65" stroke-width="2"/>
<path d="M108.092 122.28C108.763 119.847 107.236 117.895 103.511 116.424" stroke="#BD6D4F" stroke-width="2"/>
<path d="M85.7739 131.562C90.6677 142.118 110.924 142.649 115.643 132.005" stroke="#A38D90" stroke-width="2"/>
<path d="M108.093 122.28C104.693 118.749 99.3363 119.593 97.0613 123.643C97.0075 123.737 96.9869 123.848 97.0028 123.956C97.0186 124.065 97.0699 124.165 97.1488 124.243L99.005 126.018" stroke="#D58461" stroke-width="2"/>
<path d="M135.637 107.855C134.866 106.268 134.101 105.174 133.343 104.574C132.764 104.115 132.132 103.853 131.449 103.786C131.333 103.773 131.215 103.799 131.116 103.86C131.016 103.922 130.94 104.015 130.9 104.125C130.861 104.235 130.859 104.355 130.896 104.466C130.934 104.577 131.007 104.672 131.105 104.736C133.862 106.605 133.287 110.999 131.18 112.936C127.08 116.718 122.137 113.693 121.662 108.543C121.641 108.338 121.705 108.163 121.855 108.018C122.343 107.559 122.67 107.074 122.837 106.561" stroke="#4C261F" stroke-width="2"/>
<path d="M122.837 106.561C125.137 106.818 126.48 104.393 125.149 102.53C125.032 102.364 124.876 102.253 124.68 102.199C123.197 101.791 122.087 102.347 121.349 103.868" stroke="#858284" stroke-width="2"/>
<path d="M121.349 103.867C120.232 103.796 119.434 104.705 118.955 106.592" stroke="#4C261F" stroke-width="2"/>
<path d="M139.486 171.893C137.965 166.797 134.719 162.468 129.749 158.905" stroke="#EAC997" stroke-width="2"/>
<path d="M137.78 173.005C125.439 179.755 112.366 183.103 98.5615 183.049" stroke="#EAC997" stroke-width="2"/>
<path d="M98.5615 183.049C98.7782 182.62 99.3386 182.295 100.243 182.074C100.484 182.015 100.572 181.863 100.505 181.618C99.9428 179.576 99.9136 177.576 100.418 175.618C100.459 175.455 100.43 175.324 100.33 175.224C100.214 175.103 100.239 175.028 100.405 174.999C100.926 174.911 101.391 174.73 101.799 174.455" stroke="#FDB54B" stroke-width="2"/>
<path d="M122.836 106.561C121.724 106.136 121.228 105.239 121.349 103.868" stroke="#C4A199" stroke-width="2"/>
<path d="M82.3426 83.8364C81.1759 83.1031 79.9134 82.6822 78.5551 82.5739C70.8676 81.9489 64.0863 86.3114 61.7113 93.6989C61.6704 93.8273 61.6726 93.9656 61.7174 94.0926C61.7623 94.2197 61.8474 94.3287 61.9599 94.403C62.0724 94.4772 62.206 94.5127 62.3405 94.5041C62.475 94.4955 62.603 94.4432 62.705 94.3551C68.6675 89.1364 73.3738 88.6926 81.1425 88.3801C83.7175 88.2739 84.6363 85.2739 82.3426 83.8364Z" stroke="#814E43" stroke-width="2"/>
<path d="M66.3301 106.855C66.4634 109.688 67.0051 111.871 67.9551 113.405C70.4426 117.43 75.7176 118.267 79.5676 115.73C82.4343 113.842 83.6197 110.836 83.1239 106.711" stroke="#B0664B" stroke-width="2"/>
<path d="M83.1235 106.711C83.736 105.807 83.8172 104.882 83.3672 103.936C81.3422 99.6302 77.2172 97.599 72.5547 98.4865C67.1172 99.5177 63.1672 104.18 61.4922 109.28C61.4776 109.325 61.472 109.372 61.4758 109.419C61.4795 109.466 61.4926 109.512 61.5142 109.553C61.5358 109.594 61.5655 109.631 61.6014 109.66C61.6374 109.69 61.6789 109.711 61.7235 109.724C63.7297 110.318 65.2422 108.368 66.3297 106.855" stroke="#714736" stroke-width="2"/>
<path d="M83.1238 106.711C82.7488 106.08 79.1988 101.692 78.4551 102.755C78.2811 103.001 78.21 103.305 78.2566 103.604C78.3032 103.902 78.464 104.172 78.7051 104.355C83.7676 108.199 79.9363 115.643 73.9176 114.53C70.9009 113.972 69.3405 111.659 69.2363 107.593" stroke="#4C261F" stroke-width="2"/>
<path d="M69.2367 107.592C71.7117 108.055 73.2117 106.461 72.4305 104.042C71.518 101.242 68.3742 103.374 67.8555 105.324" stroke="#858284" stroke-width="2"/>
<path d="M67.8551 105.324C67.0342 105.782 66.5259 106.292 66.3301 106.855" stroke="#4C261F" stroke-width="2"/>
<path d="M69.2367 107.592C68.4659 107.08 68.0055 106.324 67.8555 105.324" stroke="#C4A199" stroke-width="2"/>
<path d="M58.2358 134.568C58.7566 135.297 59.492 135.741 60.442 135.899C60.6701 135.936 60.904 135.896 61.1074 135.787C61.3108 135.677 61.4723 135.504 61.567 135.293C61.6617 135.082 61.6843 134.846 61.6312 134.621C61.578 134.396 61.4523 134.195 61.2733 134.049C57.0108 130.561 55.8983 124.33 59.9045 120.205C60.0721 120.034 60.2861 119.914 60.521 119.861C60.756 119.808 61.0019 119.823 61.2295 119.905C62.567 120.393 66.2045 120.287 66.1357 118.174C66.1301 117.95 66.0651 117.733 65.9475 117.544C65.8299 117.354 65.6639 117.201 65.467 117.099C62.4837 115.52 59.3545 114.861 56.0795 115.124C52.4858 115.418 52.3858 119.568 52.2608 122.261C52.0233 127.168 55.592 130.886 58.2358 134.568Z" stroke="#E3946D" stroke-width="2"/>
<path d="M148.236 27.305C147.982 27.4341 147.872 27.6529 147.905 27.9612C147.926 28.1612 148.028 28.3029 148.211 28.3862C148.495 28.5195 148.601 28.7445 148.53 29.0612C146.261 39.5737 136.818 48.605 128.055 54.1987C118.136 60.5425 109.168 63.2237 99.1613 67.2487C92.7363 69.83 90.0613 74.98 82.6863 74.9862C82.5957 74.986 82.5066 74.9635 82.4269 74.9206C82.3471 74.8778 82.2792 74.8159 82.2291 74.7404C82.179 74.665 82.1484 74.5784 82.1398 74.4882C82.1312 74.3981 82.1451 74.3072 82.18 74.2237C82.28 73.9904 82.4738 73.832 82.7613 73.7487C82.8981 73.7092 83.0207 73.6312 83.1146 73.524C83.2084 73.4169 83.2695 73.285 83.2905 73.1441C83.3116 73.0033 83.2918 72.8593 83.2334 72.7294C83.175 72.5995 83.0806 72.489 82.9613 72.4112L77.5238 68.8425C77.3413 68.7238 77.12 68.6809 76.9073 68.723C76.6946 68.7651 76.5076 68.8887 76.3863 69.0675C73.63 73.0612 65.405 79.9737 60.2175 76.2362C60.155 76.1904 60.105 76.2029 60.0675 76.2737L59.8488 76.6925L59.4925 76.5925C59.3885 76.5657 59.2793 76.5667 59.1762 76.5952C59.0731 76.6237 58.9796 76.6788 58.905 76.755C57.5259 78.1466 55.9488 79.2508 54.1738 80.0675C53.9571 80.1675 53.8446 80.3362 53.8363 80.5737C53.6488 85.0612 52.2675 86.9175 50.2363 90.13C48.8738 92.2862 47.7675 95.13 47.7488 97.3425C47.7029 103.442 48.0113 109.453 48.6738 115.374C48.7571 116.12 48.6279 116.157 48.2863 115.486C45.9613 110.882 44.1259 106.082 42.78 101.086C42.68 100.717 42.4476 100.398 42.1271 100.189C41.8066 99.9804 41.4205 99.8971 41.0425 99.955L37.53 100.499C34.8967 102.049 33.2571 104.586 32.6113 108.111C32.0238 111.361 33.7238 115.836 34.1175 119.099C34.8384 125.036 35.7259 130.874 36.78 136.611C36.8032 136.739 36.8004 136.869 36.7716 136.995C36.7428 137.121 36.6887 137.24 36.6126 137.344C36.5365 137.449 36.4401 137.536 36.3291 137.601C36.2182 137.666 36.0952 137.708 35.9675 137.724C32.0509 138.215 28.7384 137.311 26.03 135.011C24.9988 134.142 24.905 132.911 24.0175 132.03C23.5134 131.53 22.9675 131.092 22.38 130.717C21.1467 127.509 21.4342 124.345 23.2425 121.224C23.3592 121.024 23.305 120.901 23.08 120.855C11.7175 118.567 8.78005 105.017 17.8488 98.0362C17.8899 98.005 17.9235 97.9648 17.947 97.9188C17.9705 97.8728 17.9833 97.8221 17.9845 97.7705C17.9857 97.7188 17.9753 97.6676 17.9539 97.6205C17.9326 97.5735 17.9009 97.5318 17.8613 97.4987C10.4613 91.4612 11.055 81.6425 18.8113 76.5175C18.8917 76.4653 18.9492 76.3842 18.9724 76.2904C18.9955 76.1966 18.9827 76.0969 18.9363 76.0112C18.678 75.5487 18.403 75.1029 18.1113 74.6737C13.1238 67.305 18.8925 58.3362 27.1988 57.6487C27.4446 57.6279 27.5259 57.5029 27.4425 57.2737C23.7863 46.8487 32.2238 37.2612 42.9613 40.6237C43.1863 40.6945 43.3009 40.6112 43.305 40.3737C43.53 29.1987 53.4925 22.5737 63.4425 27.8237C63.4953 27.8512 63.5539 27.8657 63.6135 27.8661C63.673 27.8665 63.7318 27.8526 63.785 27.8257C63.8381 27.7989 63.8841 27.7597 63.9191 27.7115C63.9541 27.6634 63.9771 27.6075 63.9863 27.5487C65.705 16.4299 78.2363 13.0612 86.2238 20.3424C86.3946 20.4966 86.5342 20.4716 86.6425 20.2674C92.4363 9.54245 107.174 9.96121 111.824 21.2925C111.911 21.4966 112.032 21.5195 112.186 21.3612C119.674 13.7049 131.468 16.5925 134.711 26.6675C134.726 26.7171 134.752 26.7627 134.787 26.8012C134.822 26.8397 134.865 26.8701 134.913 26.8904C134.961 26.9106 135.013 26.9201 135.066 26.9183C135.119 26.9165 135.17 26.9034 135.218 26.88C139.576 24.7091 143.915 24.8508 148.236 27.305Z" fill="#422B2F"/>
<path d="M148.236 27.3052C153.374 30.201 156.236 34.5927 156.824 40.4802C156.849 40.701 156.967 40.7885 157.18 40.7427C164.436 39.1677 171.442 42.8802 172.842 50.1927C173.351 52.8552 172.838 55.3531 171.305 57.6864C167.505 65.4572 163.709 71.8927 159.917 76.9927C158.336 79.1239 159.005 79.2802 159.011 81.4552C159.04 87.0052 158.742 92.5406 158.117 98.0614C158.03 98.8427 157.699 99.3739 157.586 100.149C157.565 100.207 157.511 100.272 157.424 100.343C157.307 100.43 157.238 100.547 157.217 100.693C156.467 105.718 154.911 110.461 152.549 114.924C152.617 105.849 155.024 96.4302 150.086 89.5302C147.911 86.4989 146.53 83.9989 146.467 80.1552C146.463 79.8927 146.33 79.7718 146.067 79.7927C141.034 80.1635 136.913 78.4739 133.705 74.7239C133.547 74.5406 133.388 74.5364 133.23 74.7114C128.799 79.5614 120.061 80.6989 115.786 74.8677C115.665 74.701 115.53 74.6906 115.38 74.8364C110.78 79.2948 105.655 80.201 100.005 77.5552L96.7174 74.5739C96.684 74.5437 96.6445 74.5209 96.6016 74.5069C96.5586 74.493 96.513 74.4882 96.4678 74.4929C96.4225 74.4976 96.3786 74.5117 96.3387 74.5342C96.2988 74.5568 96.2639 74.5873 96.2361 74.6239C91.0924 81.5364 82.6611 81.0739 77.3486 74.8052C77.3203 74.7717 77.2852 74.7446 77.2455 74.7259C77.2059 74.7072 77.1627 74.6972 77.1188 74.6966C77.075 74.696 77.0315 74.7048 76.9913 74.7225C76.9512 74.7401 76.9153 74.7662 76.8861 74.7989C71.7861 80.6031 66.107 81.2343 59.8486 76.6927L60.0674 76.2739C60.1049 76.2031 60.1549 76.1906 60.2174 76.2364C65.4049 79.9739 73.6299 73.0614 76.3861 69.0677C76.5074 68.889 76.6945 68.7653 76.9072 68.7232C77.1199 68.6811 77.3412 68.724 77.5236 68.8427L82.9612 72.4114C83.0805 72.4892 83.1749 72.5997 83.2333 72.7296C83.2916 72.8595 83.3115 73.0035 83.2904 73.1444C83.2693 73.2852 83.2083 73.4171 83.1144 73.5243C83.0206 73.6314 82.898 73.7094 82.7612 73.7489C82.4737 73.8323 82.2799 73.9906 82.1799 74.2239C82.1449 74.3074 82.1311 74.3983 82.1397 74.4884C82.1482 74.5786 82.1789 74.6652 82.229 74.7407C82.279 74.8161 82.347 74.878 82.4268 74.9209C82.5065 74.9637 82.5956 74.9863 82.6862 74.9864C90.0612 74.9802 92.7361 69.8302 99.1611 67.2489C109.167 63.2239 118.136 60.5427 128.055 54.1989C136.817 48.6052 146.261 39.5739 148.53 29.0614C148.601 28.7448 148.494 28.5198 148.211 28.3864C148.028 28.3031 147.926 28.1614 147.905 27.9614C147.872 27.6531 147.982 27.4343 148.236 27.3052Z" fill="#2E1423"/>
<path d="M171.305 57.686C181.461 58.411 186.461 68.1985 180.193 76.2548C180.055 76.4298 180.086 76.5715 180.286 76.6798C188.324 80.8923 189.299 92.186 181.586 97.2985C181.544 97.3264 181.509 97.3644 181.485 97.4091C181.46 97.4539 181.448 97.504 181.448 97.5548C181.448 97.6057 181.46 97.6557 181.485 97.7005C181.509 97.7452 181.544 97.7832 181.586 97.811C191.193 104.217 188.111 119.211 176.543 120.961C176.334 120.994 176.276 121.105 176.368 121.292C178.659 126.205 177.959 130.659 174.268 134.655C171.338 137.388 167.882 138.653 163.899 138.449C163.69 138.436 163.578 138.536 163.561 138.749C163.405 140.53 163.449 142.436 162.686 143.98C160.218 148.992 154.143 150.292 149.393 147.524C149.151 147.382 149.022 147.451 149.005 147.73C148.536 155.311 141.143 158.286 135.161 154.13C135.121 154.102 135.075 154.082 135.027 154.072C134.979 154.061 134.929 154.061 134.881 154.07C134.832 154.08 134.786 154.099 134.746 154.126C134.705 154.153 134.67 154.189 134.643 154.23C133.249 156.349 132.636 157.667 129.749 158.905C127.82 157.709 125.997 156.732 124.28 155.974C122.472 155.178 120.084 154.399 117.118 153.636L113.393 152.524C113.118 152.278 113.013 152.136 113.08 152.099L117.011 151.711C132.436 148.899 147.874 140.305 151.318 123.749C163.624 126.636 172.18 110.711 163.818 101.949C162.049 100.105 160.011 99.6235 157.586 100.149C157.699 99.3735 158.03 98.8423 158.118 98.0611C158.743 92.5402 159.04 87.0048 159.011 81.4548C159.005 79.2798 158.336 79.1235 159.918 76.9923C163.709 71.8923 167.505 65.4569 171.305 57.686Z" fill="#200B1D"/>
<path d="M100.005 77.5553C99.4841 77.7761 99.0862 78.1511 98.8112 78.6803C98.1279 77.9928 97.3342 77.7011 96.43 77.8053C96.2209 77.8296 96.0288 77.9323 95.8925 78.0928C94.4217 79.8011 92.6675 81.0469 90.63 81.8303C88.28 82.7365 82.9362 82.7303 80.4425 81.999C77.3175 81.0824 74.2217 81.3074 71.155 82.674C70.9467 82.7657 70.7425 82.7615 70.5425 82.6615C69.3488 82.0678 68.3112 82.324 67.255 82.0178C64.1612 81.1053 61.7987 80.3178 59.7675 77.9803C59.7021 77.9052 59.6565 77.815 59.6347 77.7179C59.6129 77.6208 59.6156 77.5198 59.6425 77.424L59.8487 76.6928C66.1071 81.2344 71.7862 80.6032 76.8862 74.799C76.9154 74.7663 76.9513 74.7402 76.9914 74.7226C77.0316 74.7049 77.0751 74.6961 77.1189 74.6967C77.1628 74.6973 77.206 74.7073 77.2456 74.726C77.2853 74.7447 77.3204 74.7718 77.3487 74.8053C82.6612 81.074 91.0925 81.5365 96.2362 74.624C96.264 74.5874 96.2989 74.5569 96.3388 74.5343C96.3787 74.5118 96.4226 74.4977 96.4679 74.493C96.5131 74.4883 96.5587 74.493 96.6017 74.507C96.6446 74.521 96.6841 74.5438 96.7175 74.574L100.005 77.5553Z" fill="#C27353"/>
<path d="M152.549 114.924L151.317 123.749C147.874 140.305 132.436 148.899 117.011 151.711C116.824 151.345 116.736 150.986 116.749 150.636C116.753 150.42 116.855 150.27 117.055 150.186C122.942 147.717 128.611 142.811 129.511 136.117C129.624 135.297 129.532 133.938 129.236 132.042C128.615 128.026 129.278 124.207 131.224 120.586C131.811 119.486 132.986 118.292 133.58 116.836C133.688 116.57 133.605 116.476 133.33 116.555C132.813 116.701 132.44 116.59 132.211 116.224C132.107 116.053 131.955 115.974 131.755 115.986C131.501 116.003 131.265 115.963 131.049 115.867C133.619 114.226 135.149 111.555 135.636 107.855C136.644 108.976 137.513 109.578 138.242 109.661C138.526 109.695 138.636 109.572 138.574 109.292C137.499 104.351 134.557 100.924 129.749 99.0112L130.224 96.3737C130.261 96.1654 130.226 95.9695 130.117 95.7862C128.788 93.4862 129.057 91.5175 130.924 89.88C133.428 90.8966 135.759 92.2904 137.917 94.0612C137.985 94.1155 138.07 94.1461 138.157 94.1482C138.244 94.1504 138.329 94.1239 138.4 94.073C138.471 94.022 138.523 93.9493 138.549 93.8659C138.574 93.7826 138.572 93.6931 138.542 93.6112C136.817 89.1862 133.786 85.83 129.449 83.5425L126.436 81.1987C126.307 81.0987 126.161 81.0549 125.999 81.0674L125.555 81.0987C125.342 81.1189 125.128 81.0588 124.955 80.9299C124.051 80.2633 123.117 80.18 122.155 80.68C121.946 80.7883 121.726 80.8195 121.492 80.7737C120.217 80.5279 118.984 80.1383 117.792 79.605C116.949 79.23 115.917 77.8237 114.817 78.5049C111.23 80.7091 107.692 81.6841 104.205 81.43C102.33 80.8216 100.532 79.905 98.811 78.68C99.086 78.1508 99.4839 77.7758 100.005 77.555C105.655 80.2008 110.78 79.2945 115.38 74.8362C115.53 74.6904 115.665 74.7008 115.786 74.8675C120.061 80.6987 128.799 79.5612 133.23 74.7112C133.388 74.5362 133.546 74.5404 133.705 74.7237C136.913 78.4737 141.034 80.1633 146.067 79.7925C146.33 79.7716 146.463 79.8925 146.467 80.155C146.53 83.9987 147.911 86.4987 150.086 89.53C155.024 96.43 152.617 105.849 152.549 114.924Z" fill="#B8674B"/>
<path d="M59.8491 76.6926L59.6429 77.4239C59.6159 77.5197 59.6133 77.6207 59.6351 77.7178C59.6569 77.8149 59.7025 77.905 59.7678 77.9801C61.7991 80.3176 64.1616 81.1051 67.2554 82.0176C68.3116 82.3239 69.3491 82.0676 70.5429 82.6614C70.7429 82.7614 70.947 82.7655 71.1554 82.6739C74.222 81.3072 77.3178 81.0822 80.4428 81.9989C82.9366 82.7301 88.2803 82.7364 90.6303 81.8301C92.6678 81.0468 94.422 79.8009 95.8929 78.0926C96.0292 77.9322 96.2213 77.8294 96.4304 77.8051C97.3345 77.7009 98.1283 77.9926 98.8116 78.6801C100.532 79.9051 102.33 80.8218 104.205 81.4301L103.512 116.424C97.7866 115.293 90.9741 121.618 98.6741 126.161C99.7533 126.532 100.689 127.141 101.48 127.986C102.368 128.924 105.705 132.211 107.899 132.324C108.112 132.336 108.135 132.407 107.968 132.536C107.614 132.82 107.557 133.136 107.799 133.486C100.712 134.161 92.4679 134.155 85.7741 131.561C85.5658 130.77 85.0699 130.332 84.2866 130.249C84.1287 130.232 83.9692 130.252 83.8203 130.308C83.6715 130.363 83.5374 130.452 83.4286 130.567C83.3197 130.683 83.239 130.822 83.1927 130.974C83.1464 131.126 83.1357 131.286 83.1616 131.443C83.9116 135.905 88.2053 139.236 92.1616 140.724C97.8408 142.857 103.541 142.909 109.262 140.88C110.066 143.597 111.547 145.991 113.705 148.061C113.86 148.211 113.953 148.391 113.987 148.599C114.12 149.516 113.947 150.368 113.468 151.155C113.368 151.322 113.222 151.426 113.03 151.468C112.764 151.526 112.612 151.684 112.574 151.943C103.87 152.884 95.1574 152.77 86.4366 151.599C86.2283 151.57 86.022 151.588 85.8179 151.655C85.472 151.763 85.2949 151.726 85.2866 151.543C69.9678 147.711 54.3179 141.699 49.0241 125.018C48.9533 124.797 48.9533 124.578 49.0241 124.361L49.1304 124.049C49.2137 123.795 49.1241 123.688 48.8616 123.73C39.5116 125.186 32.8554 117.918 33.3866 108.918C33.5824 105.634 34.9637 102.828 37.5304 100.499L41.0429 99.9551C41.4209 99.8972 41.8069 99.9806 42.1274 100.189C42.4479 100.398 42.6803 100.717 42.7803 101.086C44.1262 106.082 45.9616 110.882 48.2866 115.486C48.6283 116.157 48.7574 116.12 48.6741 115.374C48.0116 109.453 47.7033 103.443 47.7491 97.3426C47.7679 95.1301 48.8741 92.2864 50.2366 90.1301C52.2678 86.9176 53.6491 85.0614 53.8366 80.5739C53.8449 80.3364 53.9575 80.1676 54.1741 80.0676C55.9491 79.2509 57.5262 78.1468 58.9054 76.7551C58.9799 76.679 59.0734 76.6239 59.1765 76.5954C59.2797 76.5668 59.3888 76.5659 59.4929 76.5926L59.8491 76.6926ZM82.3429 83.8364C81.1762 83.103 79.9137 82.6822 78.5554 82.5739C70.8679 81.9489 64.0866 86.3114 61.7116 93.6989C61.6707 93.8273 61.6729 93.9655 61.7178 94.0926C61.7626 94.2197 61.8478 94.3287 61.9602 94.4029C62.0727 94.4772 62.2063 94.5127 62.3408 94.5041C62.4753 94.4954 62.6033 94.4431 62.7053 94.3551C68.6678 89.1364 73.3741 88.6926 81.1428 88.3801C83.7178 88.2739 84.6366 85.2739 82.3429 83.8364ZM66.3303 106.855C66.4637 109.688 67.0054 111.872 67.9554 113.405C70.4429 117.43 75.7179 118.268 79.5679 115.73C82.4345 113.843 83.62 110.836 83.1241 106.711C83.7366 105.807 83.8178 104.882 83.3678 103.936C81.3428 99.6301 77.2179 97.5989 72.5554 98.4864C67.1179 99.5176 63.1678 104.18 61.4928 109.28C61.4782 109.325 61.4726 109.372 61.4764 109.419C61.4801 109.466 61.4932 109.512 61.5148 109.553C61.5364 109.594 61.5661 109.631 61.6021 109.66C61.638 109.69 61.6795 109.711 61.7241 109.724C63.7303 110.318 65.2428 108.368 66.3303 106.855ZM58.2366 134.568C58.7575 135.297 59.4929 135.741 60.4429 135.899C60.671 135.936 60.9048 135.896 61.1082 135.787C61.3116 135.677 61.4732 135.503 61.5679 135.293C61.6626 135.082 61.6851 134.846 61.632 134.621C61.5789 134.396 61.4531 134.195 61.2741 134.049C57.0116 130.561 55.8991 124.33 59.9054 120.205C60.073 120.034 60.287 119.914 60.5219 119.861C60.7568 119.808 61.0027 119.823 61.2304 119.905C62.5679 120.393 66.2053 120.286 66.1366 118.174C66.131 117.95 66.066 117.733 65.9483 117.543C65.8307 117.354 65.6648 117.201 65.4679 117.099C62.4845 115.52 59.3554 114.861 56.0804 115.124C52.4866 115.418 52.3866 119.568 52.2616 122.261C52.0241 127.168 55.5929 130.886 58.2366 134.568Z" fill="#D48762"/>
<path d="M129.449 83.5424C125.893 82.6487 118.855 81.5237 116.743 85.4799C116.65 85.6495 116.619 85.8462 116.655 86.0362C116.909 87.4487 117.699 88.2424 119.024 88.4174C122.418 88.8674 126.868 88.2549 130.924 89.8799C129.057 91.5174 128.788 93.4862 130.118 95.7862C130.226 95.9695 130.261 96.1654 130.224 96.3737L129.749 99.0112C124.33 97.8362 118.23 100.042 117.93 106.38C117.909 106.772 118.251 106.842 118.955 106.592C118.422 111.738 120.147 115.074 124.13 116.599C126.418 117.474 128.955 116.992 131.049 115.867C131.266 115.963 131.501 116.003 131.755 115.986C131.955 115.974 132.107 116.053 132.211 116.224C132.441 116.59 132.813 116.701 133.33 116.555C133.605 116.476 133.688 116.57 133.58 116.836C132.986 118.292 131.811 119.486 131.224 120.586C129.278 124.207 128.616 128.026 129.236 132.042C129.532 133.938 129.624 135.297 129.511 136.117C128.611 142.811 122.943 147.717 117.055 150.186C116.855 150.269 116.753 150.42 116.749 150.636C116.736 150.986 116.824 151.345 117.011 151.711L113.08 152.099L112.574 151.942C112.611 151.684 112.763 151.526 113.03 151.467C113.222 151.426 113.368 151.322 113.468 151.155C113.947 150.367 114.12 149.515 113.986 148.599C113.953 148.39 113.859 148.211 113.705 148.061C111.547 145.99 110.065 143.597 109.261 140.88C113.268 139.299 117.361 136.23 118.461 131.861C118.513 131.655 118.502 131.439 118.429 131.239C118.356 131.04 118.224 130.867 118.051 130.744C117.879 130.62 117.673 130.552 117.46 130.547C117.248 130.542 117.039 130.602 116.861 130.717C116.432 130.992 116.026 131.422 115.643 132.005C112.997 132.901 110.382 133.395 107.799 133.486C107.557 133.136 107.613 132.82 107.968 132.536C108.134 132.407 108.111 132.336 107.899 132.324C105.705 132.211 102.368 128.924 101.48 127.986C100.688 127.14 99.753 126.532 98.6738 126.161C98.8447 125.936 98.9551 125.888 99.0051 126.017C101.263 126.613 103.699 126.261 106.311 124.961C107.532 124.349 108.126 123.455 108.093 122.28C108.763 119.847 107.236 117.895 103.511 116.424L104.205 81.4299C107.693 81.6841 111.23 80.7091 114.818 78.5049C115.918 77.8237 116.949 79.2299 117.793 79.6049C118.984 80.1383 120.218 80.5278 121.493 80.7737C121.726 80.8195 121.947 80.7883 122.155 80.6799C123.118 80.1799 124.051 80.2633 124.955 80.9299C125.128 81.0587 125.342 81.1189 125.555 81.0987L125.999 81.0674C126.161 81.0549 126.307 81.0987 126.436 81.1987L129.449 83.5424Z" fill="#C27353"/>
<path d="M82.3426 83.8364C84.6363 85.2739 83.7175 88.2739 81.1425 88.3801C73.3738 88.6926 68.6675 89.1364 62.705 94.3551C62.603 94.4432 62.475 94.4955 62.3405 94.5041C62.206 94.5127 62.0724 94.4772 61.9599 94.403C61.8474 94.3287 61.7623 94.2197 61.7174 94.0926C61.6726 93.9656 61.6704 93.8273 61.7113 93.6989C64.0863 86.3114 70.8676 81.9489 78.5551 82.5739C79.9134 82.6822 81.1759 83.1031 82.3426 83.8364Z" fill="#2E1423"/>
<path d="M129.449 83.5429C133.787 85.8304 136.818 89.1866 138.543 93.6116C138.573 93.6935 138.575 93.783 138.55 93.8664C138.524 93.9497 138.472 94.0224 138.401 94.0734C138.33 94.1243 138.245 94.1508 138.158 94.1486C138.07 94.1465 137.986 94.116 137.918 94.0616C135.76 92.2908 133.428 90.897 130.924 89.8804C126.868 88.2554 122.418 88.8679 119.024 88.4179C117.699 88.2429 116.91 87.4491 116.656 86.0366C116.619 85.8467 116.65 85.6499 116.743 85.4804C118.856 81.5241 125.893 82.6491 129.449 83.5429Z" fill="#2E1423"/>
<path d="M83.1235 106.711C82.7485 106.08 79.1985 101.693 78.4547 102.755C78.2808 103.001 78.2096 103.305 78.2563 103.604C78.3029 103.902 78.4637 104.172 78.7048 104.355C83.7673 108.199 79.936 115.643 73.9172 114.53C70.9006 113.972 69.3402 111.659 69.236 107.593C71.711 108.055 73.211 106.461 72.4297 104.043C71.5172 101.243 68.3735 103.374 67.8547 105.324C67.0339 105.782 66.5256 106.293 66.3297 106.855C65.2422 108.368 63.7297 110.318 61.7235 109.724C61.6789 109.711 61.6374 109.69 61.6014 109.66C61.5655 109.631 61.5358 109.594 61.5142 109.553C61.4926 109.512 61.4795 109.466 61.4758 109.419C61.472 109.372 61.4776 109.325 61.4922 109.28C63.1672 104.18 67.1172 99.5177 72.5547 98.4865C77.2172 97.599 81.3422 99.6302 83.3672 103.936C83.8172 104.882 83.736 105.807 83.1235 106.711Z" fill="#0D070A"/>
<path d="M129.749 99.0114C134.557 100.924 137.499 104.351 138.574 109.293C138.636 109.572 138.526 109.695 138.243 109.661C137.513 109.578 136.645 108.976 135.636 107.855C134.865 106.268 134.101 105.174 133.343 104.574C132.763 104.116 132.132 103.853 131.449 103.786C131.333 103.773 131.215 103.799 131.115 103.86C131.016 103.922 130.94 104.015 130.9 104.125C130.86 104.235 130.859 104.355 130.896 104.466C130.933 104.577 131.007 104.673 131.105 104.736C133.861 106.605 133.286 110.999 131.18 112.936C127.08 116.718 122.136 113.693 121.661 108.543C121.64 108.338 121.705 108.164 121.855 108.018C122.343 107.559 122.67 107.074 122.836 106.561C125.136 106.818 126.48 104.393 125.149 102.53C125.032 102.363 124.876 102.253 124.68 102.199C123.197 101.791 122.086 102.347 121.349 103.868C120.232 103.797 119.434 104.705 118.955 106.593C118.251 106.843 117.909 106.772 117.93 106.38C118.23 100.043 124.33 97.8364 129.749 99.0114Z" fill="#0D070A"/>
<path d="M151.318 123.749L152.549 114.924C154.912 110.461 156.468 105.717 157.218 100.692C157.239 100.547 157.307 100.43 157.424 100.342C157.512 100.272 157.566 100.207 157.587 100.149C160.012 99.6237 162.049 100.105 163.818 101.949C172.18 110.711 163.624 126.636 151.318 123.749Z" fill="#8B4434"/>
<path d="M37.5304 100.499C34.9637 102.828 33.5824 105.634 33.3866 108.917C32.8554 117.917 39.5116 125.186 48.8616 123.73C49.1241 123.688 49.2137 123.794 49.1304 124.049L49.0241 124.361C48.9533 124.578 48.9533 124.796 49.0241 125.017C54.3179 141.699 69.9678 147.711 85.2866 151.542C84.9991 152.213 84.6095 152.676 84.1179 152.93L79.7491 154.136C75.8949 155.224 72.4512 156.705 69.4178 158.58C67.1803 157.48 65.8574 155.949 65.4491 153.986C65.4373 153.926 65.4101 153.871 65.3703 153.825C65.3304 153.779 65.2793 153.744 65.2218 153.724C65.1644 153.703 65.1027 153.699 65.0428 153.71C64.9829 153.72 64.9269 153.747 64.8804 153.786C59.2054 158.499 51.1679 155.536 50.5866 147.93C50.57 147.721 50.4637 147.659 50.2679 147.742C44.6304 150.138 40.4512 148.917 37.7304 144.08C36.8491 142.517 36.8804 140.38 36.7804 138.592C36.772 138.376 36.6595 138.286 36.4429 138.324C32.8345 138.944 29.5491 138.234 26.5866 136.192C24.7074 134.859 23.3054 133.034 22.3804 130.717C22.9679 131.092 23.5137 131.53 24.0179 132.03C24.9054 132.911 24.9991 134.142 26.0303 135.011C28.7387 137.311 32.0512 138.215 35.9679 137.724C36.0955 137.708 36.2185 137.666 36.3295 137.601C36.4404 137.536 36.5368 137.448 36.6129 137.344C36.689 137.24 36.7431 137.121 36.7719 136.995C36.8007 136.869 36.8036 136.738 36.7804 136.611C35.7262 130.874 34.8387 125.036 34.1179 119.099C33.7241 115.836 32.0241 111.361 32.6116 108.111C33.2575 104.586 34.897 102.049 37.5304 100.499Z" fill="#200B1D"/>
<path d="M122.836 106.561C121.724 106.136 121.228 105.239 121.349 103.868C122.086 102.347 123.197 101.791 124.68 102.199C124.876 102.253 125.032 102.364 125.149 102.53C126.48 104.393 125.136 106.818 122.836 106.561Z" fill="#FDFDFD"/>
<path d="M69.2367 107.592C68.4659 107.08 68.0055 106.324 67.8555 105.324C68.3742 103.374 71.518 101.242 72.4305 104.042C73.2117 106.461 71.7117 108.055 69.2367 107.592Z" fill="#FDFDFD"/>
<path d="M83.1239 106.711C83.6197 110.836 82.4343 113.842 79.5676 115.73C75.7176 118.267 70.4426 117.43 67.9551 113.405C67.0051 111.872 66.4634 109.688 66.3301 106.855C66.5259 106.292 67.0342 105.782 67.8551 105.324C68.0051 106.324 68.4655 107.08 69.2363 107.593C69.3405 111.659 70.9009 113.972 73.9176 114.53C79.9363 115.643 83.7676 108.199 78.7051 104.355C78.464 104.172 78.3033 103.902 78.2566 103.604C78.21 103.305 78.2811 103.001 78.4551 102.755C79.1988 101.692 82.7489 106.08 83.1239 106.711Z" fill="#8B4434"/>
<path d="M135.636 107.855C135.149 111.555 133.619 114.226 131.049 115.868C128.955 116.993 126.417 117.474 124.13 116.599C120.147 115.074 118.421 111.738 118.955 106.593C119.434 104.705 120.232 103.797 121.349 103.868C121.228 105.238 121.724 106.136 122.836 106.561C122.669 107.074 122.342 107.559 121.855 108.018C121.705 108.163 121.64 108.338 121.661 108.543C122.136 113.693 127.08 116.718 131.18 112.936C133.286 110.999 133.861 106.605 131.105 104.736C131.007 104.672 130.933 104.577 130.896 104.466C130.859 104.355 130.86 104.235 130.9 104.125C130.94 104.015 131.016 103.922 131.115 103.86C131.215 103.799 131.332 103.773 131.449 103.786C132.132 103.853 132.763 104.115 133.342 104.574C134.101 105.174 134.865 106.268 135.636 107.855Z" fill="#8B4434"/>
<path d="M58.2358 134.568C55.592 130.886 52.0233 127.168 52.2608 122.261C52.3858 119.568 52.4858 115.418 56.0795 115.124C59.3545 114.861 62.4837 115.52 65.467 117.099C65.6639 117.201 65.8299 117.354 65.9475 117.544C66.0651 117.733 66.1301 117.95 66.1357 118.174C66.2045 120.287 62.567 120.393 61.2295 119.905C61.0019 119.823 60.756 119.808 60.521 119.861C60.2861 119.914 60.0721 120.034 59.9045 120.205C55.8983 124.33 57.0108 130.561 61.2733 134.049C61.4523 134.195 61.578 134.396 61.6312 134.621C61.6843 134.846 61.6617 135.082 61.567 135.293C61.4723 135.504 61.3108 135.677 61.1074 135.787C60.904 135.896 60.6701 135.936 60.442 135.899C59.492 135.741 58.7566 135.297 58.2358 134.568Z" fill="#F2A177"/>
<path d="M103.511 116.424C107.236 117.894 108.764 119.847 108.093 122.28C104.693 118.749 99.3365 119.592 97.0615 123.642C97.0077 123.737 96.9871 123.847 97.0029 123.956C97.0187 124.064 97.0701 124.165 97.149 124.242L99.0052 126.017C98.9552 125.888 98.8448 125.936 98.6739 126.161C90.9739 121.617 97.7865 115.292 103.511 116.424Z" fill="#B8674B"/>
<path d="M108.093 122.28C108.126 123.455 107.532 124.349 106.311 124.961C103.699 126.261 101.263 126.613 99.005 126.018L97.1488 124.243C97.0699 124.165 97.0186 124.065 97.0028 123.956C96.9869 123.848 97.0075 123.737 97.0613 123.643C99.3363 119.593 104.693 118.749 108.093 122.28Z" fill="#F2A177"/>
<path d="M85.7738 131.561C90.6675 142.118 110.924 142.649 115.642 132.005C116.026 131.422 116.432 130.993 116.861 130.718C117.039 130.602 117.248 130.542 117.46 130.547C117.673 130.552 117.879 130.62 118.051 130.744C118.224 130.867 118.356 131.04 118.429 131.239C118.502 131.439 118.513 131.655 118.461 131.861C117.361 136.23 113.267 139.299 109.261 140.88C103.54 142.909 97.8404 142.857 92.1612 140.724C88.205 139.236 83.9113 135.905 83.1613 131.443C83.1354 131.286 83.146 131.125 83.1923 130.974C83.2386 130.822 83.3193 130.683 83.4282 130.567C83.5371 130.452 83.6712 130.363 83.82 130.308C83.9688 130.252 84.1284 130.232 84.2863 130.249C85.0696 130.332 85.5654 130.77 85.7738 131.561Z" fill="#491D22"/>
<path d="M85.7739 131.562C92.4677 134.155 100.711 134.162 107.799 133.487C110.382 133.395 112.997 132.901 115.643 132.005C110.924 142.649 90.6677 142.118 85.7739 131.562Z" fill="#FDFDFD"/>
<path d="M174.267 134.655C174.288 134.889 174.436 135.08 174.711 135.23C174.886 135.326 174.936 135.47 174.861 135.662C173.594 138.862 171.857 142.037 169.649 145.187C161.507 156.799 151.453 165.701 139.486 171.893C137.965 166.797 134.719 162.468 129.749 158.905C132.636 157.668 133.249 156.349 134.642 154.23C134.669 154.189 134.704 154.154 134.745 154.126C134.786 154.099 134.832 154.08 134.881 154.071C134.929 154.062 134.979 154.062 135.027 154.072C135.075 154.082 135.121 154.102 135.161 154.13C141.142 158.287 148.536 155.312 149.005 147.73C149.021 147.451 149.151 147.382 149.392 147.524C154.142 150.293 160.217 148.993 162.686 143.98C163.449 142.437 163.405 140.53 163.561 138.749C163.578 138.537 163.69 138.437 163.899 138.449C167.882 138.653 171.338 137.389 174.267 134.655Z" fill="#D7E3E8"/>
<path d="M26.5861 136.192C29.5486 138.234 32.834 138.944 36.4423 138.324C36.659 138.286 36.7715 138.376 36.7798 138.592C36.8798 140.38 36.8486 142.517 37.7298 144.08C40.4507 148.917 44.6298 150.138 50.2673 147.742C50.4632 147.659 50.5694 147.722 50.5861 147.93C51.1673 155.536 59.2048 158.499 64.8798 153.786C64.9264 153.747 64.9824 153.721 65.0423 153.71C65.1021 153.699 65.1639 153.704 65.2213 153.724C65.2787 153.744 65.3299 153.779 65.3697 153.825C65.4096 153.871 65.4368 153.926 65.4486 153.986C65.8569 155.949 67.1798 157.48 69.4173 158.58C64.8381 162.13 61.7694 166.461 60.2111 171.574C55.4111 168.749 52.259 166.805 50.7548 165.742C40.2215 158.305 32.0319 148.836 26.1861 137.336C26.0944 137.153 26.1027 136.976 26.2111 136.805L26.5861 136.192Z" fill="#D7E3E8"/>
<path d="M112.573 151.942L113.08 152.099C113.013 152.136 113.117 152.278 113.392 152.524C113.111 152.43 112.986 152.561 112.992 152.836C113.273 173.217 85.6609 174.536 84.1172 152.93C84.6089 152.676 84.9984 152.213 85.2859 151.542C85.2943 151.726 85.4714 151.763 85.8172 151.655C86.0214 151.588 86.2276 151.57 86.436 151.599C95.1568 152.77 103.869 152.884 112.573 151.942Z" fill="#B8674B"/>
<path d="M113.392 152.524L117.117 153.636C116.63 164.511 113.855 172.386 101.799 174.455C93.6298 175.811 85.161 171.061 82.4235 163.28C82.411 163.242 82.0777 161.695 81.4235 158.636C81.0735 157.007 80.5152 155.507 79.7485 154.136L84.1173 152.93C85.661 174.536 113.274 173.217 112.992 152.836C112.986 152.561 113.111 152.43 113.392 152.524Z" fill="#FEC858"/>
<path d="M117.118 153.636C120.084 154.399 122.472 155.178 124.28 155.974C125.997 156.732 127.82 157.709 129.749 158.905C134.72 162.467 137.966 166.797 139.487 171.892L137.78 173.005C125.439 179.755 112.366 183.103 98.5615 183.049C98.7782 182.62 99.3386 182.295 100.243 182.074C100.484 182.015 100.572 181.863 100.505 181.617C99.9428 179.576 99.9136 177.576 100.418 175.617C100.459 175.455 100.43 175.324 100.33 175.224C100.214 175.103 100.239 175.028 100.405 174.999C100.926 174.911 101.391 174.73 101.799 174.455C113.855 172.386 116.63 164.511 117.118 153.636Z" fill="#FCAF46"/>
<path d="M79.7484 154.136C80.5151 155.507 81.0734 157.007 81.4234 158.636C82.0776 161.695 82.4109 163.242 82.4234 163.28C85.1609 171.061 93.6297 175.811 101.798 174.455C101.39 174.73 100.926 174.911 100.405 174.999C100.238 175.028 100.213 175.103 100.33 175.224C100.43 175.324 100.459 175.455 100.417 175.617C99.913 177.576 99.9422 179.576 100.505 181.618C100.571 181.863 100.484 182.015 100.242 182.074C99.338 182.295 98.7776 182.62 98.5609 183.049C85.5359 182.986 72.8797 179.399 61.6735 172.786C61.0818 172.578 60.5943 172.174 60.2109 171.574C61.7693 166.461 64.838 162.13 69.4172 158.58C72.4505 156.705 75.8943 155.224 79.7484 154.136Z" fill="#FDBA50"/>
<path d="M61.6733 172.786C72.8796 179.399 85.5358 182.986 98.5608 183.049C112.365 183.103 125.438 179.755 137.78 173.005C137.721 173.092 137.767 173.142 137.917 173.155C137.97 173.16 138.02 173.18 138.062 173.213C138.104 173.245 138.135 173.29 138.152 173.34C138.169 173.39 138.172 173.444 138.159 173.496C138.146 173.547 138.118 173.594 138.08 173.63C136.755 174.842 135.461 176.317 134.061 177.311C112.705 192.511 82.9483 192.03 62.7733 174.605C62.6233 174.476 62.5358 174.311 62.5108 174.111C62.4483 173.674 62.1692 173.232 61.6733 172.786Z" fill="#D7E3E8"/>
</svg>
