<svg width="47" height="47" viewBox="0 0 47 47" fill="none" xmlns="http://www.w3.org/2000/svg">
<path d="M20.3442 3.27227C20.8094 3.17205 21.087 3.74857 20.7652 4.09922C18.207 6.88755 16.6457 10.6052 16.6457 14.6875C16.6457 23.34 23.6598 30.3542 32.3123 30.3542C35.1578 30.3542 37.826 29.5956 40.126 28.2697C40.3725 28.1275 40.6903 28.2139 40.8308 28.4616C40.9257 28.6289 41.0238 28.7946 41.125 28.9586L42.5655 31.2927C44.0119 33.6366 43.223 36.0578 40.4928 36.4209C37.371 36.8362 32.1579 37.2084 23.4995 37.2084C14.8413 37.2084 9.62817 36.8362 6.50639 36.4209C3.77622 36.0578 2.98722 33.6366 4.4337 31.2927L5.87417 28.9586C7.16201 26.8718 7.94201 24.5119 8.15144 22.0687L8.62054 16.5957C9.19036 9.94789 14.0568 4.62677 20.3442 3.27227Z" fill="#FF9415" fill-opacity="0.7"/>
<path d="M32.3125 26.4376C38.8018 26.4376 44.0625 21.1769 44.0625 14.6876C44.0625 8.19822 38.8018 2.93756 32.3125 2.93756C25.8232 2.93756 20.5625 8.19822 20.5625 14.6876C20.5625 21.1769 25.8232 26.4376 32.3125 26.4376Z" fill="white"/>
<path d="M15.7134 37.0889C17.9358 37.164 20.5128 37.2083 23.4998 37.2083C26.487 37.2083 29.0641 37.164 31.2867 37.0889C30.8585 41.0106 27.5356 44.0625 23.5 44.0625C19.4644 44.0625 16.1415 41.0106 15.7134 37.0889Z" fill="white"/>
<path d="M41.1252 28.9588L42.5657 31.293C44.0122 33.6368 43.2232 36.058 40.493 36.4211C37.3712 36.8364 32.1582 37.2086 23.4998 37.2086C14.8415 37.2086 9.62841 36.8364 6.50664 36.4211C3.77646 36.058 2.98747 33.6368 4.43394 31.293L5.87442 28.9588C7.16225 26.8721 7.94227 24.5121 8.15168 22.0689L8.62079 16.596C9.19718 9.87153 14.1697 4.50466 20.5621 3.22729" stroke="#FF9415" stroke-width="3.30417" stroke-linecap="round" stroke-linejoin="round"/>
<path d="M32.3125 26.4376C38.8018 26.4376 44.0625 21.1769 44.0625 14.6876C44.0625 8.19822 38.8018 2.93756 32.3125 2.93756C25.8232 2.93756 20.5625 8.19822 20.5625 14.6876C20.5625 21.1769 25.8232 26.4376 32.3125 26.4376Z" stroke="#FF9415" stroke-width="3.30417" stroke-linecap="round" stroke-linejoin="round"/>
<path d="M32.3125 9.79169V19.5834" stroke="#FF9415" stroke-width="3.30417" stroke-linecap="round" stroke-linejoin="round"/>
<path d="M32.3125 8.8125V20.5625" stroke="#FF9415" stroke-width="3.30417" stroke-linecap="round" stroke-linejoin="round"/>
<path d="M37.2082 14.6875H27.4165" stroke="#FF9415" stroke-width="3.30417" stroke-linecap="round" stroke-linejoin="round"/>
<path d="M38.1875 14.6875H26.4375" stroke="#FF9415" stroke-width="3.30417" stroke-linecap="round" stroke-linejoin="round"/>
<path d="M15.7131 37.0889C16.1413 41.0106 19.4641 44.0624 23.4999 44.0624C27.5355 44.0624 30.8584 41.0106 31.2865 37.0889" stroke="#FF9415" stroke-width="3.30417" stroke-linecap="round" stroke-linejoin="round"/>
</svg>
