<svg width="70" height="60" viewBox="0 0 70 60" fill="none" xmlns="http://www.w3.org/2000/svg">
<path d="M5.62792 49.9665C6.08689 52.7118 8.53469 54.7801 11.7417 55.1466C16.3069 55.6681 23.9634 56.2695 35.0002 56.2695C46.0371 56.2695 53.6936 55.6681 58.2588 55.1466C61.4658 54.7801 63.9136 52.7118 64.3725 49.9665C64.967 46.4116 65.6252 40.7561 65.6252 33.1445C65.6252 25.5329 64.967 19.8774 64.3725 16.3225C63.9136 13.5774 61.4658 11.5089 58.2588 11.1425C53.6936 10.6209 46.0371 10.0195 35.0002 10.0195C23.9634 10.0195 16.3069 10.6209 11.7417 11.1425C8.53469 11.5089 6.08689 13.5774 5.62792 16.3225C5.03356 19.8774 4.37524 25.5329 4.37524 33.1445C4.37524 40.7561 5.03356 46.4116 5.62792 49.9665Z" fill="#FAFAFA"/>
<path d="M23.3335 33.8158L33.2052 42.5L46.6668 27.5" stroke="#FF8A00" stroke-width="3.30417" stroke-linecap="round" stroke-linejoin="round"/>
<path d="M16.0457 10.7227C14.3887 10.8599 12.9559 11.0042 11.7417 11.1429C8.53469 11.5094 6.08689 13.5779 5.62792 16.323C5.03356 19.8779 4.37524 25.5334 4.37524 33.145C4.37524 40.7566 5.03356 46.4121 5.62792 49.967C6.08689 52.7121 8.53469 54.7806 11.7417 55.147C16.3069 55.6686 23.9634 56.27 35.0002 56.27C46.0371 56.27 53.6936 55.6686 58.2588 55.147C61.4658 54.7806 63.9136 52.7121 64.3725 49.967C64.967 46.4121 65.6252 40.7566 65.6252 33.145C65.6252 25.5334 64.967 19.8779 64.3725 16.323C63.9136 13.5779 61.4658 11.5094 58.2588 11.1429C57.0446 11.0042 55.6117 10.8599 53.9548 10.7227" stroke="#FF8A00" stroke-width="3.30417" stroke-linecap="round" stroke-linejoin="round"/>
<path d="M42.292 10.1121C40.0492 10.0534 37.6199 10.0195 35.0002 10.0195C32.3804 10.0195 29.9513 10.0534 27.7085 10.1121" stroke="#FF8A00" stroke-width="3.30417" stroke-linecap="round" stroke-linejoin="round"/>
<path d="M16.0609 11.5874C16.124 14.1874 18.1151 16.2054 21.1487 16.2454C21.3804 16.2484 21.6224 16.25 21.8751 16.25C22.1278 16.25 22.3697 16.2484 22.6015 16.2454C25.6351 16.2054 27.6262 14.1874 27.6893 11.5874C27.7013 11.0933 27.7084 10.5628 27.7084 10C27.7084 9.43717 27.7013 8.90666 27.6893 8.41259C27.6262 5.81261 25.6351 3.79468 22.6015 3.75468C22.3697 3.75163 22.1278 3.75 21.8751 3.75C21.6224 3.75 21.3804 3.75163 21.1487 3.75468C18.1151 3.79468 16.124 5.81261 16.0609 8.41259C16.0489 8.90666 16.0417 9.43717 16.0417 10C16.0417 10.5628 16.0489 11.0933 16.0609 11.5874Z" fill="#FAFAFA" fill-opacity="0.7"/>
<path d="M42.3109 11.5874C42.374 14.1874 44.3651 16.2054 47.3987 16.2454C47.6304 16.2484 47.8724 16.25 48.1251 16.25C48.3778 16.25 48.6197 16.2484 48.8515 16.2454C51.8851 16.2054 53.8762 14.1874 53.9393 11.5874C53.9513 11.0933 53.9584 10.5628 53.9584 10C53.9584 9.43717 53.9513 8.90666 53.9393 8.41259C53.8762 5.81261 51.8851 3.79468 48.8515 3.75468C48.6197 3.75163 48.3778 3.75 48.1251 3.75C47.8724 3.75 47.6304 3.75163 47.3987 3.75468C44.3651 3.79468 42.374 5.81261 42.3109 8.41259C42.2989 8.90666 42.2917 9.43717 42.2917 10C42.2917 10.5628 42.2989 11.0933 42.3109 11.5874Z" fill="#FAFAFA" fill-opacity="0.7"/>
<path d="M21.1487 3.75467L21.115 1.8799L21.1487 3.75467ZM16.0609 8.41259L18.2479 8.45157L16.0609 8.41259ZM22.6015 3.75467L22.6352 1.8799L22.6015 3.75467ZM27.6893 8.41259L25.5022 8.45157L27.6893 8.41259ZM27.6893 11.5874L29.8764 11.6264L27.6893 11.5874ZM22.6015 16.2454L22.5678 14.3705L22.6015 16.2454ZM16.0609 11.5874L13.8738 11.6264L16.0609 11.5874ZM21.1487 16.2454L21.115 18.1201L21.1487 16.2454ZM22.6352 1.8799C22.3919 1.87669 22.1386 1.875 21.8751 1.875V5.625C22.1169 5.625 22.3476 5.62655 22.5678 5.62945L22.6352 1.8799ZM21.8751 1.875C21.6116 1.875 21.3582 1.87669 21.115 1.8799L21.1824 5.62945C21.4026 5.62655 21.6333 5.625 21.8751 5.625V1.875ZM29.8764 11.6264C29.8886 11.1199 29.8959 10.5764 29.8959 10H25.5209C25.5209 10.5493 25.5139 11.0667 25.5022 11.5484L29.8764 11.6264ZM29.8959 10C29.8959 9.4236 29.8886 8.88009 29.8764 8.3736L25.5022 8.45157C25.5139 8.93325 25.5209 9.45074 25.5209 10H29.8959ZM13.8738 8.3736C13.8616 8.88009 13.8542 9.4236 13.8542 10H18.2292C18.2292 9.45074 18.2362 8.93325 18.2479 8.45157L13.8738 8.3736ZM13.8542 10C13.8542 10.5764 13.8616 11.1199 13.8738 11.6264L18.2479 11.5484C18.2362 11.0667 18.2292 10.5492 18.2292 10H13.8542ZM21.115 18.1201C21.3582 18.1232 21.6116 18.125 21.8751 18.125V14.375C21.6333 14.375 21.4026 14.3735 21.1824 14.3705L21.115 18.1201ZM21.8751 18.125C22.1386 18.125 22.3919 18.1232 22.6352 18.1201L22.5678 14.3705C22.3476 14.3735 22.1169 14.375 21.8751 14.375V18.125ZM21.115 1.8799C16.7054 1.93804 13.9571 4.94421 13.8738 8.3736L18.2479 8.45157C18.2909 6.68101 19.5247 5.65131 21.1824 5.62945L21.115 1.8799ZM22.5678 5.62945C24.2255 5.65131 25.4592 6.68101 25.5022 8.45157L29.8764 8.3736C29.7931 4.94421 27.0447 1.93804 22.6352 1.8799L22.5678 5.62945ZM25.5022 11.5484C25.4592 13.319 24.2255 14.3487 22.5678 14.3705L22.6352 18.1201C27.0447 18.062 29.7931 15.0557 29.8764 11.6264L25.5022 11.5484ZM13.8738 11.6264C13.9571 15.0557 16.7054 18.062 21.115 18.1201L21.1824 14.3705C19.5247 14.3487 18.2909 13.319 18.2479 11.5484L13.8738 11.6264Z" fill="#FF8A00"/>
<path d="M47.3987 3.75467L47.365 1.8799L47.3987 3.75467ZM42.3109 8.41259L44.4979 8.45157L42.3109 8.41259ZM48.8515 3.75467L48.8852 1.8799L48.8515 3.75467ZM53.9393 8.41259L51.7522 8.45157L53.9393 8.41259ZM53.9393 11.5874L56.1264 11.6264L53.9393 11.5874ZM48.8515 16.2454L48.8178 14.3705L48.8515 16.2454ZM42.3109 11.5874L40.1238 11.6264L42.3109 11.5874ZM47.3987 16.2454L47.365 18.1201L47.3987 16.2454ZM48.8852 1.8799C48.6419 1.87669 48.3886 1.875 48.1251 1.875V5.625C48.3669 5.625 48.5976 5.62655 48.8178 5.62945L48.8852 1.8799ZM48.1251 1.875C47.8616 1.875 47.6083 1.87669 47.365 1.8799L47.4324 5.62945C47.6526 5.62655 47.8833 5.625 48.1251 5.625V1.875ZM56.1264 11.6264C56.1386 11.1199 56.1459 10.5764 56.1459 10H51.7709C51.7709 10.5492 51.7639 11.0667 51.7522 11.5484L56.1264 11.6264ZM56.1459 10C56.1459 9.4236 56.1386 8.88009 56.1264 8.3736L51.7522 8.45157C51.7639 8.93325 51.7709 9.45075 51.7709 10H56.1459ZM40.1238 8.3736C40.1115 8.88009 40.1042 9.4236 40.1042 10H44.4792C44.4792 9.45075 44.4862 8.93325 44.4979 8.45157L40.1238 8.3736ZM40.1042 10C40.1042 10.5764 40.1115 11.1199 40.1238 11.6264L44.4979 11.5484C44.4862 11.0667 44.4792 10.5492 44.4792 10H40.1042ZM47.365 18.1201C47.6083 18.1232 47.8616 18.125 48.1251 18.125V14.375C47.8833 14.375 47.6526 14.3735 47.4324 14.3705L47.365 18.1201ZM48.1251 18.125C48.3886 18.125 48.6419 18.1232 48.8852 18.1201L48.8178 14.3705C48.5976 14.3735 48.3669 14.375 48.1251 14.375V18.125ZM47.365 1.8799C42.9554 1.93804 40.2071 4.94421 40.1238 8.3736L44.4979 8.45157C44.5409 6.68101 45.7747 5.65131 47.4324 5.62945L47.365 1.8799ZM48.8178 5.62945C50.4755 5.65131 51.7092 6.68101 51.7522 8.45157L56.1264 8.3736C56.0431 4.94421 53.2947 1.93804 48.8852 1.8799L48.8178 5.62945ZM51.7522 11.5484C51.7092 13.319 50.4755 14.3487 48.8178 14.3705L48.8852 18.1201C53.2947 18.062 56.0431 15.0557 56.1264 11.6264L51.7522 11.5484ZM40.1238 11.6264C40.2071 15.0557 42.9554 18.062 47.365 18.1201L47.4324 14.3705C45.7747 14.3487 44.5409 13.319 44.4979 11.5484L40.1238 11.6264Z" fill="#FF8A00"/>
</svg>
