<svg width="50" height="50" viewBox="0 0 50 50" fill="none" xmlns="http://www.w3.org/2000/svg">
<path d="M25 49.2758C38.4072 49.2758 49.2758 38.4072 49.2758 25C49.2758 11.5928 38.4072 0.724121 25 0.724121C11.5928 0.724121 0.724121 11.5928 0.724121 25C0.724121 38.4072 11.5928 49.2758 25 49.2758Z" fill="#5C5560"/>
<path d="M25 49.2758C38.4072 49.2758 49.2758 38.4072 49.2758 25C49.2758 11.5928 38.4072 0.724121 25 0.724121C11.5928 0.724121 0.724121 11.5928 0.724121 25C0.724121 38.4072 11.5928 49.2758 25 49.2758Z" fill="#EEEEEE"/>
<path d="M41.703 21.8242H25.3736V28.5494H34.4639C33.6457 30.7332 32.0923 32.5575 30.1047 33.7232C28.6074 34.6022 26.8626 35.1056 25 35.1056C20.6669 35.1056 16.9707 32.3781 15.5351 28.5466C15.1204 27.4434 14.8944 26.2478 14.8944 24.9999C14.8944 23.8501 15.0867 22.7451 15.4399 21.7158C16.8035 17.7469 20.5689 14.8943 25 14.8943C26.9625 14.8943 28.7942 15.4538 30.3438 16.4225L35.8511 11.9137C32.9069 9.46929 29.1249 8 25 8C18.4298 8 12.7301 11.7269 9.9008 17.1819C8.68555 19.5226 8 22.1809 8 25C8 27.9152 8.73324 30.6586 10.026 33.0563C12.8973 38.3814 18.526 42 25 42C29.0286 42 32.7294 40.599 35.6427 38.2572C38.6383 35.8492 40.8006 32.4464 41.6283 28.5494C41.8721 27.4043 42 26.2171 42 25C42 23.9146 41.8982 22.8526 41.703 21.8242Z" fill="#FF854C"/>
<path d="M35.999 38.3825L36 38.3834C33.043 40.6462 29.2869 42 25.198 42C18.6272 42 12.9143 38.5034 10 33.3577L15.5915 29C17.0487 32.7024 20.8 35.338 25.198 35.338C27.0885 35.338 28.8594 34.8515 30.3791 34.0022L35.999 38.3825Z" fill="#FF854C"/>
<path d="M41.6963 22C41.8989 23.0194 42.0006 24.0546 42 25.0921C42 26.2771 41.8692 27.4331 41.6199 28.5481C40.7738 32.3423 38.5628 35.6554 35.4999 38L35.4989 37.999L29.8373 33.5855C31.8697 32.4505 33.458 30.6743 34.2945 28.5481H25V22H34.4302H41.6963Z" fill="#FF854C"/>
<path d="M36 11.9948L30.4822 16.597C28.9296 15.6083 27.0945 15.0372 25.1281 15.0372C20.6884 15.0372 16.916 17.9489 15.5497 22L10.001 17.3721H10C12.8348 11.8041 18.5453 8 25.1281 8C29.2609 8 33.0502 9.49972 36 11.9948Z" fill="#FF854C"/>
</svg>
