<svg width="400" height="408" viewBox="0 0 400 408" fill="none" xmlns="http://www.w3.org/2000/svg">
<ellipse cx="200" cy="204" rx="200" ry="204" fill="#D9D9D9"/>
<path d="M200.199 62C164.336 62 135.264 90.7918 135.264 126.308C135.264 161.825 164.336 190.617 200.199 190.617C236.062 190.617 265.134 161.825 265.134 126.308C265.134 90.7918 236.062 62 200.199 62Z" fill="white"/>
<path d="M130.935 224.914C95.0724 224.914 66 253.706 66 289.223V309.6C66 322.517 75.4525 333.531 88.3251 335.612C162.417 347.592 237.981 347.592 312.073 335.612C324.946 333.531 334.398 322.518 334.398 309.6V289.223C334.398 253.706 305.326 224.914 269.463 224.914H263.561C260.366 224.914 257.191 225.415 254.155 226.397L239.167 231.243C213.846 239.432 186.552 239.432 161.231 231.243L146.244 226.397C143.207 225.415 140.032 224.914 136.838 224.914H130.935Z" fill="white"/>
</svg>
