<svg width="48" height="48" viewBox="0 0 48 48" fill="none" xmlns="http://www.w3.org/2000/svg">
<path d="M8 30.6476V19.3531C8 18.9942 8.18443 18.6501 8.51272 18.3963C8.84101 18.1426 9.28627 18 9.75055 18H20V32H9.75055C9.28658 32 8.84158 31.8576 8.51334 31.6042C8.1851 31.3507 8.00046 31.0069 8 30.6482V30.6476Z" fill="#6ACAFF"/>
<path d="M28 38L18 30.2783C18.0248 30.2141 18.039 30.1466 18.0421 30.0782V15.9071C18.0383 15.8808 18.0327 15.8547 18.0255 15.8291L27.9979 8L28 38Z" fill="#6ACAFF"/>
<path d="M28.8127 7.58334L17.856 16.4807H9.38135C8.85146 16.4824 8.34377 16.6937 7.96908 17.0684C7.59438 17.4431 7.38311 17.9508 7.38135 18.4807V29.6087C7.38311 30.1386 7.59438 30.6463 7.96908 31.021C8.34377 31.3956 8.85146 31.6069 9.38135 31.6087H17.856L28.8133 40.3607L28.8127 7.58334Z" stroke="#2ABAFF" stroke-width="1.5" stroke-linecap="round" stroke-linejoin="round"/>
<path d="M34 16.4081C35.6366 18.5902 36.5213 21.2443 36.5213 23.972C36.5213 26.6998 35.6366 29.3539 34 31.536" stroke="#2ABAFF" stroke-width="1.5" stroke-miterlimit="10" stroke-linecap="round"/>
<path d="M40 13.1881C42.3333 16.2992 43.5947 20.0832 43.5947 23.9721C43.5947 27.861 42.3333 31.645 40 34.7561" stroke="#2ABAFF" stroke-width="1.5" stroke-miterlimit="10" stroke-linecap="round"/>
</svg>
